<svg xmlns="http://www.w3.org/2000/svg" width="1980.328" height="1980.328" viewBox="0 0 523.962 523.962">
    <g transform="translate(-1249.594 168.483)">
        <circle cx="1511.575" cy="93.498" r="261.981" style="fill:#0073a1;fill-opacity:1;stroke-width:.127118"/>
        <circle cx="1511.575" cy="93.498" r="237.131" style="fill:#0073a1;fill-opacity:1;stroke-width:.11506"/>
        <path d="M1515.009-144.413a238.2 238.2 0 0 0-99.32 19.807 238.22 238.22 0 0 0-123.196 313.564 238.22 238.22 0 0 0 261.73 138.465c4.639-14.788 8.442-31.002 8.442-48.684 0-2.512-.07-5.025-.21-7.607 0 0 8.515-14.517 15.216-33.431 8.305-23.38 3.908-49.135-10.47-69.515-.837-1.117-1.674-2.373-2.582-3.63-84.66 0-126.536-76.772-137.146-123.464-4.397-19.193-7.965-21.1-19.95-21.1-22.172 0-38.177-9.193-38.177-9.193-20.356 9.328-29.47 5.527-26.739-4.211-8.863-.977-8.68-11.038-3.283-20.284 6.764-11.591 20.589-19.472 37.13-19.472h8.864c18.286 0 22.054-9.562 40.899-7.538 2.932.28 5.653.768 8.167 1.396 5.234-6.002 11.167-8.515 18.355-8.027 1.117.14 1.814 1.117 1.605 2.164l-1.744 8.096c-.628 3.001.21 6.142 2.372 8.166 15.215 14.238 23.94 38.526 33.71 60.441 15.845 32.314 54.091 77.192 115.44 19.612 43.137-40.486 69.197-74.242 112.036-77.56a238.22 238.22 0 0 0-201.15-117.995M1413.86-27.21c-6.283 0-12.551 5.043-10.418 5.947.475.201 1.282.338 2.207.44.663 4.02 4.038 7.127 8.246 7.127s7.528-3.109 8.18-7.127c.924-.103 1.729-.24 2.203-.44 2.133-.904-4.135-5.947-10.418-5.947m222.534 229.035c-5.093.124-9.666 3.36-11.193 8.307v.07c-7.607 24.427-22.404 55.974-22.404 55.974s-14.72 26.074-23.052 55.275a238 238 0 0 0 26.314-9.299 238.2 238.2 0 0 0 47.337-27.588c-2.287-4.552-4.858-9.196-7.923-13.991 0 0-4.885-21.706-14.238-45.366a263 263 0 0 0 3.979-11.865l.069-.279c.278-.558.906-.768 1.604-.768h.07c4.886.768 10.05 1.536 16.052 2.234 1.815.14 3.7.279 5.584.488 2.303.21 4.537.419 6.84.559.552 21.959 10.082 42.945 12.493 47.956a238.2 238.2 0 0 0 43.815-59.07c-16.964 1.938-37.716 2.591-62.132.157-1.954-.21-3.908-.42-5.862-.559a348 348 0 0 1-15.145-2.094q-1.114-.169-2.208-.141z" style="fill:#fff;fill-opacity:1;stroke-width:.365058"/>
    </g>
</svg>
