<svg xmlns="http://www.w3.org/2000/svg" width="2219.564" height="2219.565" viewBox="0 0 587.26 587.26">
    <g transform="translate(1094.937 1925.843)">
        <circle cx="-800.497" cy="-1632.697" r="252.067" style="fill:#005a7d;fill-opacity:1;stroke-width:.122307"/>
        <path d="M-640.69-1513.324c.651 25.72 14.779 62.327 14.779 62.327l-10.981 15.12c-14.976 4.922-19.687-4.146-23.44-10.018 0 0-12.217-34.642-21.845-58.995l-6.102-17.312z" class="cls-2" style="fill:#e9e9e9;fill-opacity:1;stroke:#e9e9e9;stroke-width:10.7762px;stroke-miterlimit:10;stroke-opacity:1"/>
        <path d="M-730.048-1385.29c6.174-23.236 13.978-43.751 25.883-65.132 0 0 15.23-32.472 23.06-57.618 1.793-5.819 7.687-9.34 13.794-8.406 4.888.787 10.057 1.52 15.591 2.145 2.01.271 4.022.353 6.034.57 12.155.335 23.948.828 35.321.912 5.687.042 11.27-.018 16.74-.25 5.47-.233 14.826-1.065 20.066-1.714 1.504-.187 28.769-3.656 29.687-122.284-1.903-118.466-35.149-114.877-36.493-114.877-48.492 0-75.721 36.282-122.49 80.178-63.148 59.269-102.517 13.074-118.825-20.189-10.06-22.558-19.04-47.56-34.701-62.215-2.227-2.09-3.087-5.317-2.444-8.407l1.792-8.333c.272-1.086-.489-2.09-1.656-2.226-7.402-.49-13.506 2.09-18.896 8.262-2.58-.651-5.387-1.14-8.406-1.439-19.396-2.09-23.276 7.76-42.098 7.76h-9.123c-17.028 0-31.259 8.114-38.22 20.045-5.556 9.517-5.743 19.873 3.38 20.878-2.813 10.024 6.568 13.937 27.522 4.336 0 0 16.474 9.463 39.298 9.463 12.336 0 16.01 1.955 20.536 21.72 10.918 48.06 54.023 127.089 141.167 127.089.923 1.303 1.792 2.58 2.661 3.733 14.801 20.978 19.328 47.488 10.777 71.556-6.897 19.468-15.662 34.41-15.662 34.41.272 2.662.272 5.246.272 7.831-.425 20.44-5.73 43.606-10.7 57.602" class="cls-2" style="fill:#e9e9e9;fill-opacity:1;stroke:#e9e9e9;stroke-width:10.776;stroke-miterlimit:10;stroke-dasharray:none;stroke-opacity:1"/>
        <path d="M-888.009-1746.299c-.488.272-1.33.353-2.28.462-.68 4.135-4.087 7.337-8.42 7.337-4.331 0-7.804-3.199-8.489-7.337-.95 0-1.792-.271-2.28-.462-2.2-.923 4.254-6.12 10.722-6.12s12.92 5.19 10.723 6.12z" class="cls-1" style="fill:#005a7d;fill-opacity:1;stroke:none;stroke-width:0;stroke-opacity:1"/>
        <circle cx="-801.307" cy="-1632.213" r="256.423" style="fill:none;fill-opacity:1;stroke:#e9e9e9;stroke-width:25;stroke-linejoin:round;stroke-dasharray:none;stroke-opacity:1"/>
        <circle cx="-801.307" cy="-1632.213" r="279.981" style="fill:none;fill-opacity:1;stroke:#005a7d;stroke-width:27.2969;stroke-linejoin:round;stroke-dasharray:none;stroke-opacity:1"/>
    </g>
</svg>
