<svg xmlns="http://www.w3.org/2000/svg" width="2219.565" height="2219.565" viewBox="0 0 587.26 587.26">
    <g transform="translate(407.984 2147.59)">
        <circle cx="-113.544" cy="-1854.443" r="252.067" style="fill:#005a7d;fill-opacity:1;stroke-width:.122307"/>
        <path d="M46.263-1734.009c.652 25.72 14.78 62.327 14.78 62.327l-10.982 15.12c-14.976 4.922-19.687-4.146-23.44-10.018 0 0-12.216-34.642-21.845-58.995" class="cls-2" style="fill:none;fill-opacity:1;stroke:#e9e9e9;stroke-width:10.7762px;stroke-miterlimit:10;stroke-opacity:1"/>
        <path d="M-43.095-1607.035c6.175-23.236 13.978-43.752 25.883-65.132 0 0 15.23-32.472 23.06-57.618 1.793-5.82 7.688-9.34 13.794-8.407 4.888.788 10.058 1.52 15.591 2.145 2.01.272 4.022.353 6.034.57 12.155.335 23.948.829 35.322.913 5.686.042 11.269-.018 16.739-.25 5.47-.234 14.827-1.065 20.066-1.715 1.504-.187 28.769-3.655 29.687-122.283-1.903-118.467-35.148-114.877-36.493-114.877-48.492 0-75.721 36.282-122.489 80.177-63.149 59.27-102.518 13.074-118.826-20.188-10.06-22.559-19.039-47.561-34.7-62.216-2.227-2.09-3.088-5.316-2.445-8.406l1.793-8.333c.271-1.086-.49-2.091-1.657-2.227-7.402-.489-13.506 2.09-18.895 8.263-2.58-.652-5.388-1.14-8.407-1.44-19.395-2.09-23.275 7.76-42.098 7.76h-9.123c-17.027 0-31.258 8.114-38.22 20.045-5.556 9.517-5.743 19.873 3.38 20.878-2.813 10.025 6.569 13.938 27.522 4.336 0 0 16.474 9.463 39.299 9.463 12.335 0 16.009 1.955 20.535 21.72 10.918 48.06 54.023 127.09 141.168 127.09.923 1.303 1.792 2.579 2.66 3.733 14.801 20.978 19.328 47.487 10.777 71.555-6.896 19.469-15.661 34.411-15.661 34.411.271 2.661.271 5.246.271 7.831-.425 20.44-5.73 43.606-10.7 57.602" class="cls-2" style="fill:none;fill-opacity:1;stroke:#e9e9e9;stroke-width:10.776;stroke-miterlimit:10;stroke-dasharray:none;stroke-opacity:1"/>
        <path d="M-201.055-1968.044c-.49.272-1.33.353-2.281.462-.679 4.135-4.087 7.336-8.42 7.336-4.331 0-7.804-3.198-8.488-7.336-.95 0-1.792-.272-2.281-.462-2.2-.923 4.255-6.12 10.723-6.12 6.467 0 12.919 5.189 10.722 6.12z" class="cls-1" style="fill:#fff;fill-opacity:1;stroke:none;stroke-width:0;stroke-opacity:1"/>
        <circle cx="-114.354" cy="-1853.959" r="256.423" style="fill:none;fill-opacity:1;stroke:#e9e9e9;stroke-width:25;stroke-linejoin:round;stroke-dasharray:none;stroke-opacity:1"/>
        <circle cx="-114.354" cy="-1853.959" r="279.981" style="fill:none;fill-opacity:1;stroke:#005a7d;stroke-width:27.2969;stroke-linejoin:round;stroke-dasharray:none;stroke-opacity:1"/>
    </g>
</svg>
