<svg xmlns="http://www.w3.org/2000/svg" width="2219.565" height="2219.565" viewBox="0 0 587.26 587.26">
    <g transform="translate(-851.98 1053.56)">
        <circle cx="1146.419" cy="-760.414" r="252.067" style="fill:#dbf7ff;fill-opacity:1;stroke-width:.122307"/>
        <path d="M1306.226-641.038c.652 25.719 14.78 62.326 14.78 62.326l-10.981 15.12c-14.976 4.923-19.687-4.145-23.441-10.018 0 0-12.216-34.641-21.844-58.994l-6.102-17.312z" class="cls-2" style="fill:#e9e1a6;fill-opacity:1;stroke:#956d45;stroke-width:10.7762px;stroke-miterlimit:10;stroke-opacity:1"/>
        <path d="M1216.868-513.004c6.175-23.237 13.979-43.752 25.883-65.132 0 0 15.23-32.472 23.061-57.618 1.792-5.819 7.687-9.34 13.794-8.406 4.887.787 10.057 1.52 15.59 2.145 2.01.271 4.022.353 6.034.57 12.155.335 23.948.828 35.322.912 5.687.042 11.269-.018 16.74-.25 5.47-.233 14.826-1.065 20.065-1.714 1.505-.187 28.77-3.656 29.687-122.283-1.903-118.466-35.148-114.876-36.493-114.876-48.492 0-75.72 36.281-122.489 80.176-63.149 59.27-102.518 13.075-118.826-20.188-10.06-22.558-19.04-47.56-34.701-62.215-2.227-2.09-3.087-5.316-2.444-8.406l1.792-8.333c.272-1.087-.489-2.091-1.656-2.227-7.402-.489-13.506 2.09-18.896 8.263-2.58-.652-5.387-1.14-8.407-1.44-19.395-2.09-23.275 7.76-42.097 7.76h-9.124c-17.027 0-31.258 8.114-38.22 20.045-5.556 9.517-5.743 19.873 3.38 20.878-2.813 10.025 6.569 13.937 27.522 4.336 0 0 16.474 9.463 39.299 9.463 12.336 0 16.01 1.955 20.536 21.72 10.918 48.06 54.023 127.088 141.168 127.088.923 1.303 1.792 2.58 2.66 3.733 14.802 20.978 19.328 47.488 10.778 71.556-6.897 19.468-15.662 34.41-15.662 34.41.271 2.661.271 5.246.271 7.83-.424 20.44-5.73 43.607-10.7 57.602" class="cls-2" style="fill:#e9e1a6;fill-opacity:1;stroke:#956d45;stroke-width:10.776;stroke-miterlimit:10;stroke-dasharray:none;stroke-opacity:1"/>
        <path d="M1058.907-874.011c-.489.271-1.33.353-2.28.461-.68 4.136-4.087 7.337-8.42 7.337-4.332 0-7.805-3.198-8.489-7.337-.95 0-1.792-.271-2.28-.461-2.2-.923 4.254-6.12 10.722-6.12s12.92 5.188 10.723 6.12z" class="cls-1" style="fill:#987148;fill-opacity:1;stroke:#005a7d;stroke-width:0;stroke-opacity:1"/>
        <circle cx="1145.61" cy="-759.93" r="256.423" style="fill:none;fill-opacity:1;stroke:#956d45;stroke-width:25;stroke-linejoin:round;stroke-dasharray:none;stroke-opacity:1"/>
        <circle cx="1145.61" cy="-759.93" r="279.981" style="fill:none;fill-opacity:1;stroke:#e9e1a6;stroke-width:27.2969;stroke-linejoin:round;stroke-dasharray:none;stroke-opacity:1"/>
    </g>
</svg>
