<svg xmlns="http://www.w3.org/2000/svg" id="Layer_1" width="47.957" height="47.957" data-name="Layer 1" version="1.1">
    <defs id="defs55">
        <style id="style53">
            .cls-1{fill:#000;stroke-width:0}
        </style>
    </defs>
    <g id="g7657" transform="translate(53.259 205.877)">
        <circle id="circle7630" cx="-29.28" cy="-181.898" r="22.479" style="fill:#000;fill-opacity:1;stroke:none;stroke-width:3;stroke-linejoin:round;stroke-dasharray:none;stroke-opacity:1"/>
        <path id="path7632" d="M-33.704-189.74a1.3 1.3 0 0 1-.315.064c-.094.576-.57 1.021-1.172 1.021a1.2 1.2 0 0 1-1.182-1.021 1.3 1.3 0 0 1-.316-.063c-.306-.13.592-.852 1.493-.852.9 0 1.798.722 1.492.852" class="cls-1" style="fill:#000;fill-opacity:1"/>
        <path id="path7634" d="m-33.241-180.88 1.824 5.208 3.275-1.04 3.67-5.538-1-2.305z" style="fill:#fff;fill-opacity:1;stroke:none;stroke-width:1px;stroke-linecap:butt;stroke-linejoin:miter;stroke-opacity:1"/>
        <path id="path7636" d="M-6.168-177.01c-5.687-5.175-8.39-7.67-13.031-7.67-6.061 0-9.464 4.535-15.31 10.022-7.893 7.407-12.813 1.634-14.852-2.524-.83-1.861-1.6-3.855-2.592-5.523" style="fill:none;fill-opacity:1;stroke:#fff;stroke-width:1.5;stroke-dasharray:none;stroke-opacity:1"/>
        <path id="path7638" d="M-6.913-180.407q-.5.478-1.018.967c-8.79 8.25-14.27 1.82-16.54-2.81-1.4-3.14-2.65-6.62-4.83-8.66-.31-.29-.43-.74-.34-1.17l.25-1.16a.26.26 0 0 0-.23-.31c-1.03-.07-1.88.29-2.63 1.15-.36-.09-.75-.16-1.17-.2-2.7-.29-3.24 1.08-5.86 1.08h-1.27c-2.37 0-4.351 1.129-5.32 2.79-.773 1.324-.8 2.766.47 2.906-.391 1.395.915 1.94 3.831.603 0 0 2.294 1.317 5.47 1.317 1.718 0 2.229.274 2.859 3.024 1.384 6.091 6.482 15.756 16.54 17.437" style="stroke-miterlimit:10;stroke-width:1.5px;fill:#000;fill-opacity:1;stroke:#fff;stroke-opacity:1"/>
        <path id="path7640" d="M-33.704-189.74a1.3 1.3 0 0 1-.315.064c-.094.576-.57 1.021-1.172 1.021a1.2 1.2 0 0 1-1.182-1.021 1.3 1.3 0 0 1-.316-.063c-.306-.13.592-.852 1.493-.852.9 0 1.798.722 1.492.852" class="cls-1" style="fill:#fff;fill-opacity:1"/>
        <path id="path7642" d="m-6.785-178.102-8.998 14.575-2.572-1.713 7.54-9.745 2.144-2.518z" style="fill:#000;fill-opacity:1;stroke:none;stroke-width:1px;stroke-linecap:butt;stroke-linejoin:miter;stroke-opacity:1"/>
        <circle id="circle7644" cx="-29.28" cy="-181.898" r="22.479" style="fill:none;fill-opacity:1;stroke:#000;stroke-width:3;stroke-linejoin:round;stroke-dasharray:none;stroke-opacity:1"/>
        <circle id="circle7646" cx="-29.28" cy="-181.898" r="20.758" style="fill:none;fill-opacity:1;stroke:#fff;stroke-width:1.38518;stroke-linejoin:round;stroke-dasharray:none;stroke-opacity:1"/>
    </g>
</svg>
