<svg xmlns="http://www.w3.org/2000/svg" id="Layer_1" width="47.957" height="47.957" data-name="Layer 1" version="1.1">
    <defs id="defs55">
        <style id="style53">
            .cls-1{fill:#000;stroke-width:0}
        </style>
    </defs>
    <g id="g7583" transform="translate(48.45 147.724)">
        <circle id="circle7470" cx="-24.471" cy="-123.745" r="22.479" style="fill:#fff;fill-opacity:1;stroke:none;stroke-width:3;stroke-linejoin:round;stroke-dasharray:none;stroke-opacity:1"/>
        <path id="path7450" d="M-28.895-131.587a1.3 1.3 0 0 1-.315.064c-.094.575-.57 1.02-1.172 1.02a1.2 1.2 0 0 1-1.182-1.02 1.3 1.3 0 0 1-.316-.064c-.306-.13.592-.852 1.493-.852.9 0 1.798.723 1.492.852" class="cls-1" style="fill:#000;fill-opacity:1"/>
        <path id="path7476" d="m-28.432-122.728 1.824 5.209 3.275-1.04 3.67-5.539-1-2.304z" style="fill:#fff;fill-opacity:1;stroke:none;stroke-width:1px;stroke-linecap:butt;stroke-linejoin:miter;stroke-opacity:1"/>
        <path id="path7474" d="M-1.36-118.858c-5.686-5.174-8.388-7.669-13.03-7.669-6.061 0-9.465 4.535-15.31 10.021-7.893 7.408-12.813 1.634-14.852-2.523-.83-1.861-1.6-3.856-2.592-5.523" style="fill:none;fill-opacity:1;stroke:#000;stroke-width:1.5;stroke-dasharray:none;stroke-opacity:1"/>
        <path id="path7466" d="M-2.105-122.254q-.497.478-1.017.966c-8.79 8.25-14.27 1.82-16.54-2.81-1.4-3.14-2.65-6.62-4.83-8.66-.31-.29-.43-.74-.34-1.17l.25-1.16a.26.26 0 0 0-.23-.31c-1.03-.07-1.88.29-2.63 1.15-.36-.09-.75-.16-1.17-.2-2.7-.29-3.24 1.08-5.86 1.08h-1.27c-2.37 0-4.351 1.13-5.32 2.79-.774 1.325-.8 2.767.47 2.907-.391 1.395.915 1.94 3.831.603 0 0 2.293 1.317 5.47 1.317 1.717 0 2.229.273 2.859 3.023 1.384 6.092 6.482 15.757 16.54 17.437" style="stroke:#000;stroke-miterlimit:10;stroke-width:1.5px;fill:#fff;fill-opacity:1"/>
        <path id="path7468" d="M-28.895-131.587a1.3 1.3 0 0 1-.315.064c-.094.575-.57 1.02-1.172 1.02a1.2 1.2 0 0 1-1.182-1.02 1.3 1.3 0 0 1-.316-.064c-.306-.13.592-.852 1.493-.852.9 0 1.798.723 1.492.852" class="cls-1" style="fill:#000;fill-opacity:1"/>
        <path id="path7472" d="m-1.976-119.949-8.998 14.575-2.573-1.713 7.54-9.745 2.144-2.518z" style="fill:#fff;fill-opacity:1;stroke:none;stroke-width:1px;stroke-linecap:butt;stroke-linejoin:miter;stroke-opacity:1"/>
        <circle id="circle7452" cx="-24.471" cy="-123.745" r="22.479" style="fill:none;fill-opacity:1;stroke:#fff;stroke-width:3;stroke-linejoin:round;stroke-dasharray:none;stroke-opacity:1"/>
        <circle id="circle7482" cx="-24.471" cy="-123.745" r="20.758" style="fill:none;fill-opacity:1;stroke:#000;stroke-width:1.38518;stroke-linejoin:round;stroke-dasharray:none;stroke-opacity:1"/>
    </g>
</svg>
