<?xml version="1.0" encoding="UTF-8" standalone="no"?>
<svg
   id="Layer_1"
   data-name="Layer 1"
   width="47.957371"
   height="47.957375"
   viewBox="0 0 47.957371 47.957375"
   version="1.1"
   sodipodi:docname="2025_perl_logo.svg"
   inkscape:version="1.2.2 (b0a8486541, 2022-12-01)"
   xmlns:inkscape="http://www.inkscape.org/namespaces/inkscape"
   xmlns:sodipodi="http://sodipodi.sourceforge.net/DTD/sodipodi-0.dtd"
   xmlns="http://www.w3.org/2000/svg"
   xmlns:svg="http://www.w3.org/2000/svg">
  <sodipodi:namedview
     id="namedview70"
     pagecolor="#ffffff"
     bordercolor="#111111"
     borderopacity="1"
     inkscape:showpageshadow="0"
     inkscape:pageopacity="0"
     inkscape:pagecheckerboard="1"
     inkscape:deskcolor="#d1d1d1"
     showgrid="false"
     inkscape:zoom="2.8284271"
     inkscape:cx="-301.05071"
     inkscape:cy="-123.92046"
     inkscape:window-width="1920"
     inkscape:window-height="1080"
     inkscape:window-x="0"
     inkscape:window-y="0"
     inkscape:window-maximized="1"
     inkscape:current-layer="Layer_1"
     showguides="true">
    <sodipodi:guide
       position="-185.31229,17.505294"
       orientation="0,-1"
       id="guide4329"
       inkscape:locked="false" />
    <sodipodi:guide
       position="-169.67603,7.028994"
       orientation="1,0"
       id="guide4331"
       inkscape:locked="false" />
  </sodipodi:namedview>
  <defs
     id="defs55">
    <style
       id="style53">
      .cls-1 {
        fill: #000;
        stroke-width: 0px;
      }

      .cls-2 {
        fill: none;
        stroke: #000;
        stroke-miterlimit: 10;
        stroke-width: 1.5px;
      }
    </style>
  </defs>
  <g
     id="g7583"
     inkscape:export-filename="../../metacpan/perl-assets/experiments/exports/021.png"
     inkscape:export-xdpi="300"
     inkscape:export-ydpi="300"
     transform="translate(48.449913,147.72409)">
    <circle
       style="fill:#ffffff;fill-opacity:1;stroke:none;stroke-width:3;stroke-linejoin:round;stroke-dasharray:none;stroke-opacity:1"
       id="circle7470"
       cx="-24.47123"
       cy="-123.7454"
       r="22.478685" />
    <path
       class="cls-1"
       d="m -28.894764,-131.58657 c -0.0679,0.0288 -0.18329,0.0484 -0.31561,0.0631 -0.0935,0.57581 -0.56903,1.02124 -1.172,1.02124 -0.60297,0 -1.08624,-0.44531 -1.18146,-1.02112 -0.13263,-0.0147 -0.24817,-0.0343 -0.31622,-0.0632 -0.30566,-0.12952 0.59235,-0.85211 1.49268,-0.85211 0.90027,0 1.79828,0.7226 1.49261,0.85211 z"
       id="path7450"
       style="fill:#000000;fill-opacity:1" />
    <path
       style="fill:#ffffff;fill-opacity:1;stroke:none;stroke-width:1px;stroke-linecap:butt;stroke-linejoin:miter;stroke-opacity:1"
       d="m -28.432424,-122.72768 1.82422,5.20843 3.275061,-1.03922 3.670739,-5.53922 -1.001095,-2.30434 -7.768925,3.67435 v 0"
       id="path7476" />
    <path
       style="fill:none;fill-opacity:1;stroke:#000000;stroke-width:1.5;stroke-dasharray:none;stroke-opacity:1"
       d="m -1.3593723,-118.85779 c -5.6866199,-5.1742 -8.3890098,-7.66893 -13.0309977,-7.66893 -6.06099,0 -9.46419,4.53453 -15.30969,10.02088 -7.89275,7.40789 -12.81338,1.63418 -14.85169,-2.52317 -0.8299,-1.86133 -1.60109,-3.85573 -2.59259,-5.52331"
       id="path7474" />
    <path
       id="path7466"
       style="fill:#ffffff;fill-opacity:1"
       class="cls-2"
       d="m -2.1045838,-122.25429 c -0.33214,0.31879 -0.67113,0.64119 -1.01784,0.9666 -8.7899702,8.24999 -14.2699602,1.81995 -16.5399802,-2.81 -1.40002,-3.14001 -2.65002,-6.62006 -4.83002,-8.66003 -0.31,-0.28998 -0.42999,-0.73999 -0.33997,-1.16998 l 0.25,-1.16003 c 0.03,-0.14996 -0.07,-0.28998 -0.23004,-0.31 -1.02997,-0.07 -1.87994,0.29004 -2.62994,1.15002 -0.36005,-0.09 -0.75,-0.15997 -1.17004,-0.20001 -2.70001,-0.28998 -3.23999,1.08002 -5.85999,1.08002 h -1.27002 c -2.37,0 -4.35071,1.12921 -5.31995,2.78998 -0.77319,1.32483 -0.7995,2.7663 0.4704,2.90625 -0.39148,1.39526 0.91449,1.93982 3.83118,0.60333 0,0 2.29315,1.31714 5.46991,1.31714 1.71722,0 2.22845,0.27332 2.85846,3.02332 1.38407,6.09163 6.48257,15.75677 16.54118,17.43696"
       sodipodi:nodetypes="cscccccccsssccscc" />
    <path
       class="cls-1"
       d="m -28.894764,-131.58657 c -0.0679,0.0288 -0.18329,0.0484 -0.31561,0.0631 -0.0935,0.57581 -0.56903,1.02124 -1.172,1.02124 -0.60297,0 -1.08624,-0.44531 -1.18146,-1.02112 -0.13263,-0.0147 -0.24817,-0.0343 -0.31622,-0.0632 -0.30566,-0.12952 0.59235,-0.85211 1.49268,-0.85211 0.90027,0 1.79828,0.7226 1.49261,0.85211 z"
       id="path7468"
       style="fill:#000000;fill-opacity:1" />
    <path
       style="fill:#ffffff;fill-opacity:1;stroke:none;stroke-width:1px;stroke-linecap:butt;stroke-linejoin:miter;stroke-opacity:1"
       d="m -1.9760538,-119.94889 -8.9978602,14.5747 -2.57266,-1.71302 7.5405202,-9.74488 2.14344,-2.51794 z"
       id="path7472" />
    <circle
       style="fill:none;fill-opacity:1;stroke:#ffffff;stroke-width:3;stroke-linejoin:round;stroke-dasharray:none;stroke-opacity:1"
       id="circle7452"
       cx="-24.47123"
       cy="-123.7454"
       r="22.478685" />
    <circle
       style="fill:none;fill-opacity:1;stroke:#000000;stroke-width:1.38518;stroke-linejoin:round;stroke-dasharray:none;stroke-opacity:1"
       id="circle7482"
       cx="-24.47123"
       cy="-123.7454"
       r="20.757971" />
  </g>
</svg>
