<svg xmlns="http://www.w3.org/2000/svg" xmlns:xlink="http://www.w3.org/1999/xlink" width="60.644" height="57.052" data-name="Layer 1">
    <defs>
        <linearGradient id="a">
            <stop offset="0" style="stop-color:#0073a1;stop-opacity:1"/>
            <stop offset="1" style="stop-color:#003555;stop-opacity:1"/>
        </linearGradient>
        <linearGradient xlink:href="#a" id="b" x1="-20.841" x2="-20.841" y1="-91.521" y2="-35.269" gradientTransform="matrix(.60143 0 0 1.0064 40.313 92.73)" gradientUnits="userSpaceOnUse"/>
    </defs>
    <path d="M.622.622h59.399v55.807H.622z" style="fill:url(#b);fill-opacity:1;stroke:#fff;stroke-width:1.24481;stroke-linejoin:round;stroke-dasharray:none;stroke-opacity:1"/>
    <path d="M30.464 6.435c-12.02.025-21.894 9.504-22.41 21.513l.38-.226c.206.346.395.708.583 1.072C9.08 17.01 18.665 7.462 30.464 7.462c11.838 0 21.451 9.613 21.451 21.451 0 .461-.02.917-.049 1.371.574-.353.386-.484.969.125q.078-.746.107-1.496c0-12.414-10.064-22.478-22.478-22.478m22.37 23.974q-.024.55-.077 1.098c.592-.509.624-.529.078-1.098m-.077 1.098-.291.277c.35.513.167-.16.29-.277m-1.229 1.455c-1.072 5.602-4.326 10.432-8.843 13.572.16.032.319.067.482.094l-.145.873c2.585-2.522 11.917-11.469 8.506-14.54M43.022 47.5q-.396.243-.802.469c.232.048.463.097.7.136zm-.802.469q-.668-.141-1.307-.326a21.33 21.33 0 0 1-10.45 2.72c-10.26 0-18.843-7.223-20.95-16.855-.477-1.085-.94-2.18-1.428-3.211.73 11.832 10.524 21.064 22.379 21.094 4.16-.031 8.23-1.216 11.756-3.422M8.085 30.298q-.071-.69-.1-1.385.024-.483.069-.965l-.909.541c.333.56.64 1.175.94 1.809m1.024-1.739c27.627 42.508 13.814 21.254 0 0m1.947 4.74.002.005c.974 1.987 2.653 4.312 4.845 5.232 2.194.92 5 .655 8.819-2.93.742-.697 1.446-1.378 2.123-2.04a25.6 25.6 0 0 1-1.074-3.467c-.307-1.338-.6-1.966-.815-2.176s-.494-.266-1.312-.266c-3.023 0-5.037-1.024-5.49-1.265-1.35.58-2.422.848-3.3.652-.478-.107-.937-.405-1.16-.852-.118-.236-.037-.493-.039-.746-.196-.093-.433-.118-.578-.273-.296-.318-.442-.725-.482-1.12-.08-.788.186-1.59.63-2.35 1.12-1.918 3.36-3.163 5.967-3.163h1.27c1.18 0 1.812-.286 2.633-.6.818-.313 1.825-.632 3.299-.476h.002c.332.032.629.096.927.158.813-.744 1.783-1.182 2.85-1.11h.021l.022.005c.55.068.981.648.871 1.2v.007l-.25 1.16c-.041.196.02.377.117.469 1.982 1.854 3.167 4.618 4.305 7.283 1.594-.788 3.317-1.254 5.285-1.254 2.455 0 4.48.688 6.531 2.014 1.08.698 2.2 1.59 3.42 2.644a20 20 0 0 0 .033-1.127c0-11.09-8.974-20.066-20.064-20.066s-20.066 8.976-20.066 20.066c.1 1.572.075 3.05.658 4.387m40.738-2.116c-.049.463-.117.92-.195 1.375.328-.271.587-.522.867-.774-.23-.208-.45-.402-.672-.601m-.195 1.375c-.41.105-.056.317-.07.404.027-.146.047-.272.07-.404m-1.69 1.32c.427 38.962.214 19.481 0 0m0 0c-3.52 2.431-6.624 2.649-9.101 1.61-3.03-1.272-5.03-4.19-6.21-6.596l-.005-.014-.006-.012-.043-.095c-.425.278-.849.574-1.276.906-1.47 1.144-2.98 2.618-4.65 4.254.844 1.97 1.992 4.03 3.488 5.904 2.186 2.737 5.073 5.071 8.768 6.238 4.33-3.388 7.855-7.83 9.035-12.195M39.114 47.024c7.624 30.198 3.812 15.1 0 0m0 0c-3.397-1.372-6.111-3.663-8.18-6.253-1.46-1.83-2.603-3.801-3.47-5.72-.554.54-1.115 1.084-1.717 1.65-4.074 3.823-7.674 4.372-10.424 3.218-1.03-.432-1.926-1.073-2.7-1.818 3.33 6.46 10.064 10.877 17.84 10.877 3.1 0 6.033-.702 8.651-1.954M28.02 32.415c15.02 39.938 7.51 19.969 0 0m.598 1.516c2.317-2.149 3.579-3.268 5.969-5.065-1.175-2.706-2.988-6.857-4.656-8.418-.523-.488-.702-1.207-.563-1.87v-.003l.104-.48c-.508.084-.957.283-1.414.808l-.301.346-.445-.111a7 7 0 0 0-1.061-.18l-.004-.002h-.004c-1.22-.131-1.834.088-2.613.387-.78.298-1.727.697-3.168.697h-1.27c-2.131 0-3.852 1.014-4.671 2.418-.33.563-.465 1.145-.434 1.443.015.15.054.213.086.246.031.034.074.075.252.094l.879.098-.239.85c-.065.232-.03.327-.027.333s-.021.022.143.059c.328.073 1.297-.037 2.681-.672l.35-.162.336.193s2.126 1.217 5.096 1.217c.898 0 1.733.08 2.36.694.629.614.906 1.499 1.23 2.912v.002c.237.947 1.11 3.394 1.384 4.166m7.23-5.928c9.801 42.879 4.901 21.44 0 0m0 0 .098.227.002.002c1.09 2.223 2.966 4.835 5.44 5.873 2.257.947 5.097.758 8.818-2.323-1.481-1.305-2.768-2.366-3.945-3.127-1.882-1.215-3.53-1.773-5.717-1.773-1.764 0-3.267.399-4.695 1.121m14.358 3.78c.23 40.359.115 20.179 0 0M29.62 17.412l-.004.01.002.002zm-5.072 2.807c.9 0 1.798.722 1.492.851a1.3 1.3 0 0 1-.316.063c-.094.576-.57 1.021-1.172 1.021a1.2 1.2 0 0 1-1.182-1.02 1.3 1.3 0 0 1-.314-.064c-.306-.13.592-.851 1.492-.851" style="fill:#fff;fill-opacity:1;stroke:none;stroke-width:3;stroke-linejoin:round;stroke-dasharray:none;stroke-opacity:1"/>
    <circle cx="30.464" cy="28.913" r="22.479" style="fill:none;fill-opacity:1;stroke:#fff;stroke-width:1.6;stroke-linejoin:round;stroke-dasharray:none;stroke-opacity:1"/>
</svg>
