<?xml version="1.0" encoding="UTF-8" standalone="no"?>
<svg
   id="Layer_1"
   data-name="Layer 1"
   width="60.644192"
   height="57.05196"
   viewBox="0 0 60.644192 57.05196"
   version="1.1"
   sodipodi:docname="2025_perl_logo.svg"
   inkscape:version="1.2.2 (b0a8486541, 2022-12-01)"
   xmlns:inkscape="http://www.inkscape.org/namespaces/inkscape"
   xmlns:sodipodi="http://sodipodi.sourceforge.net/DTD/sodipodi-0.dtd"
   xmlns:xlink="http://www.w3.org/1999/xlink"
   xmlns="http://www.w3.org/2000/svg"
   xmlns:svg="http://www.w3.org/2000/svg">
  <sodipodi:namedview
     id="namedview70"
     pagecolor="#ffffff"
     bordercolor="#111111"
     borderopacity="1"
     inkscape:showpageshadow="0"
     inkscape:pageopacity="0"
     inkscape:pagecheckerboard="1"
     inkscape:deskcolor="#d1d1d1"
     showgrid="false"
     inkscape:zoom="2.8284271"
     inkscape:cx="-301.05071"
     inkscape:cy="-123.92046"
     inkscape:window-width="1920"
     inkscape:window-height="1080"
     inkscape:window-x="0"
     inkscape:window-y="0"
     inkscape:window-maximized="1"
     inkscape:current-layer="Layer_1"
     showguides="true">
    <sodipodi:guide
       position="-183.21241,82.002666"
       orientation="0,-1"
       id="guide4329"
       inkscape:locked="false" />
    <sodipodi:guide
       position="-167.57615,71.526366"
       orientation="1,0"
       id="guide4331"
       inkscape:locked="false" />
  </sodipodi:namedview>
  <defs
     id="defs55">
    <linearGradient
       inkscape:collect="always"
       id="linearGradient7821">
      <stop
         style="stop-color:#0073a1;stop-opacity:1;"
         offset="0"
         id="stop7817" />
      <stop
         style="stop-color:#003555;stop-opacity:1;"
         offset="1"
         id="stop7819" />
    </linearGradient>
    <style
       id="style53">
      .cls-1 {
        fill: #000;
        stroke-width: 0px;
      }

      .cls-2 {
        fill: none;
        stroke: #000;
        stroke-miterlimit: 10;
        stroke-width: 1.5px;
      }
    </style>
    <linearGradient
       inkscape:collect="always"
       xlink:href="#linearGradient7821"
       id="linearGradient7823"
       x1="-20.840614"
       y1="-91.521301"
       x2="-20.840614"
       y2="-35.269352"
       gradientUnits="userSpaceOnUse"
       gradientTransform="matrix(0.60143394,0,0,1.0064055,40.312809,92.729946)" />
  </defs>
  <rect
     style="fill:url(#linearGradient7823);fill-opacity:1;stroke:#ffffff;stroke-width:1.24481;stroke-linejoin:round;stroke-dasharray:none;stroke-opacity:1"
     id="rect7792"
     width="59.39938"
     height="55.807148"
     x="0.62240601"
     y="0.62240601"
     inkscape:export-filename="stroke-sine-dune-simple-dotorg-background-transparent.png"
     inkscape:export-xdpi="300"
     inkscape:export-ydpi="300" />
  <path
     id="circle7689"
     style="fill:#ffffff;fill-opacity:1;stroke:none;stroke-width:3;stroke-linejoin:round;stroke-dasharray:none;stroke-opacity:1"
     d="M 30.463855,6.4345853 C 18.443053,6.4601553 8.5697282,15.938509 8.0536992,27.948257 l 0.38086,-0.226562 c 0.205751,0.346047 0.394639,0.708435 0.582031,1.072265 0.06457,-11.783583 9.6486238,-21.3320307 21.4472648,-21.3320307 11.838591,0 21.451173,9.6125817 21.451173,21.4511717 0,0.460972 -0.02012,0.917308 -0.04883,1.371094 0.573952,-0.352997 0.385461,-0.484406 0.96875,0.125 0.05244,-0.497364 0.08827,-0.99634 0.107422,-1.496094 C 52.942278,16.498598 42.878358,6.4346783 30.463855,6.4345853 Z M 52.834949,30.409195 c -0.01708,0.366468 -0.04313,0.732463 -0.07813,1.097656 0.592592,-0.508718 0.624147,-0.528797 0.07813,-1.097656 z m -0.07813,1.097656 c -0.09743,0.0925 -0.19228,0.184299 -0.291015,0.277344 0.3498,0.512416 0.167544,-0.159673 0.291015,-0.277344 z m -1.228515,1.455078 c -1.072565,5.602496 -4.326492,10.431837 -8.84375,13.572266 0.160719,0.03163 0.318956,0.06644 0.482422,0.09375 L 43.02245,47.500992 C 45.606626,44.979275 54.938944,36.032304 51.528309,32.961929 Z M 43.02245,47.500992 c -0.264319,0.161767 -0.531954,0.31805 -0.802735,0.46875 0.232278,0.04812 0.463629,0.09704 0.701172,0.136718 z m -0.802735,0.46875 c -0.446198,-0.09245 -0.879697,-0.20419 -1.30664,-0.326172 -3.093348,1.730993 -6.655703,2.720703 -10.44922,2.720703 -10.260478,0 -18.843797,-7.223109 -20.9511708,-16.855469 -0.476837,-1.084679 -0.940116,-2.179479 -1.427735,-3.210938 0.730351,11.832332 10.5240928,21.063647 22.3789058,21.09375 4.159756,-0.03089 8.229351,-1.215461 11.75586,-3.421874 z M 8.0849492,30.297866 c -0.04745,-0.460453 -0.08067,-0.922261 -0.09961,-1.384765 0.01586,-0.322068 0.03865,-0.643757 0.06836,-0.964844 l -0.908203,0.541016 c 0.332494,0.55921 0.639926,1.175 0.939453,1.808593 z m 1.02413,-1.738831 c 27.6271428,42.508179 13.8135708,21.254089 0,0 z m 1.9465728,4.740785 c 6e-4,0.0012 0.0014,0.0027 0.002,0.0039 0.974813,1.986907 2.653506,4.31253 4.845704,5.232422 2.193514,0.920445 4.999607,0.654477 8.818359,-2.929688 0.742661,-0.697031 1.44587,-1.378513 2.123047,-2.041015 -0.468438,-1.217941 -0.830411,-2.394113 -1.074219,-3.466797 -0.306351,-1.337225 -0.599921,-1.965901 -0.814453,-2.175782 -0.214532,-0.209882 -0.493685,-0.265624 -1.3125,-0.265624 -3.022735,0 -5.036755,-1.024239 -5.490234,-1.265626 -1.348964,0.580943 -2.421162,0.848459 -3.298828,0.652344 -0.478082,-0.106826 -0.937218,-0.404767 -1.160157,-0.851562 -0.11811,-0.236718 -0.03716,-0.493601 -0.03906,-0.746094 -0.196243,-0.09342 -0.433163,-0.118325 -0.578125,-0.273438 -0.296663,-0.317434 -0.442152,-0.724894 -0.482422,-1.11914 -0.08054,-0.788496 0.186447,-1.590074 0.630859,-2.351563 1.118847,-1.917117 3.358579,-3.162109 5.966797,-3.162109 h 1.269531 c 1.179271,0 1.812418,-0.28555 2.632813,-0.599609 0.818291,-0.313258 1.825069,-0.63265 3.298828,-0.476563 h 0.002 c 0.331955,0.03172 0.628988,0.09611 0.927735,0.158203 0.812897,-0.744549 1.782462,-1.181905 2.849609,-1.109375 h 0.02148 l 0.02148,0.0039 c 0.549236,0.06871 0.981599,0.648795 0.871093,1.201172 v 0.0059 l -0.25,1.160156 c -0.04112,0.196435 0.01938,0.37726 0.117188,0.46875 1.981634,1.854346 3.16686,4.618766 4.304687,7.283203 1.59425,-0.78821 3.317094,-1.253906 5.285157,-1.253906 2.455337,0 4.479844,0.688476 6.53125,2.013672 1.080494,0.697991 2.198826,1.591353 3.419922,2.644531 0.02063,-0.373246 0.0332,-0.748507 0.0332,-1.126953 0,-11.089985 -8.974469,-20.0664057 -20.064454,-20.0664057 -11.089985,0 -20.066406,8.9764207 -20.066406,20.0664057 0.101363,1.572268 0.0758,3.04986 0.658116,4.386691 z m 40.738282,-2.117188 c -0.04883,0.463187 -0.117431,0.921039 -0.195313,1.375 0.328367,-0.270757 0.587536,-0.521531 0.867188,-0.773437 -0.230453,-0.208184 -0.449127,-0.402423 -0.671875,-0.601563 z m -0.195313,1.375 c -0.409085,0.10573 -0.05518,0.317261 -0.07031,0.404297 0.02774,-0.145721 0.04736,-0.272345 0.07031,-0.404297 z m -1.689453,1.320313 c 0.427084,38.962239 0.213542,19.48112 0,0 z m 0,0 c -3.520747,2.431367 -6.624043,2.648993 -9.101562,1.609375 -3.030496,-1.27166 -5.029377,-4.189767 -6.208985,-6.595704 l -0.0059,-0.01367 -0.0059,-0.01172 c -0.0142,-0.03186 -0.02879,-0.06381 -0.04297,-0.0957 -0.424861,0.278109 -0.848771,0.574413 -1.275391,0.90625 -1.470548,1.143832 -2.979787,2.617996 -4.650391,4.253906 0.843499,1.970899 1.99153,4.029727 3.488282,5.904297 2.18561,2.737318 5.072499,5.071313 8.767578,6.238281 4.330927,-3.388617 7.85551,-7.831033 9.035239,-12.195315 z M 39.114246,47.024429 c 7.623698,30.197917 3.811849,15.098958 0,0 z m 0,0 c -3.397195,-1.371929 -6.111565,-3.663735 -8.179687,-6.253906 -1.460437,-1.829088 -2.603558,-3.800659 -3.470704,-5.71875 -0.554134,0.538797 -1.114738,1.08337 -1.716796,1.648437 -4.073958,3.82369 -7.674292,4.372514 -10.423828,3.21875 -1.030201,-0.432293 -1.926359,-1.072466 -2.701172,-1.818359 3.331517,6.461284 10.064856,10.876953 17.841796,10.876953 3.09854,0 6.031748,-0.701558 8.650391,-1.953125 z M 28.020496,32.415054 c 15.019532,39.9375 7.509766,19.96875 0,0 z m 0.597573,1.515628 c 2.31649,-2.14844 3.578722,-3.267861 5.968752,-5.064456 -1.175096,-2.705938 -2.988084,-6.857033 -4.656169,-8.417969 -0.522187,-0.488462 -0.701412,-1.207549 -0.5625,-1.871094 v -0.002 l 0.103516,-0.480468 c -0.507462,0.08424 -0.956302,0.283709 -1.414063,0.808593 l -0.300781,0.345703 -0.445312,-0.111328 c -0.325174,-0.08129 -0.679026,-0.143317 -1.060547,-0.179687 l -0.0039,-0.002 h -0.0039 c -1.220031,-0.131032 -1.833691,0.08828 -2.613281,0.386718 -0.77959,0.298442 -1.727248,0.697266 -3.167969,0.697266 h -1.269531 c -2.131762,0 -3.85225,1.013559 -4.671875,2.417969 -0.328773,0.563337 -0.464074,1.144929 -0.433594,1.443359 0.01524,0.149214 0.05454,0.212494 0.08594,0.246094 0.0314,0.0336 0.0741,0.07415 0.251953,0.09375 l 0.878906,0.09766 -0.238281,0.84961 c -0.06514,0.232164 -0.03034,0.327984 -0.02734,0.333984 0.003,0.0059 -0.02148,0.02193 0.142578,0.05859 0.328124,0.07332 1.296909,-0.03736 2.681641,-0.671875 l 0.349609,-0.16211 0.335938,0.19336 c 0,0 2.126264,1.216796 5.095703,1.216797 0.898397,0 1.733442,0.07908 2.361328,0.693359 0.627887,0.614275 0.904858,1.499346 1.228516,2.912109 v 0.002 c 0.237874,0.947603 1.110858,3.394814 1.384663,4.166066 z m 7.230552,-5.927737 c 9.800782,42.878906 4.900391,21.439453 0,0 z m 0,0 c 0.03266,0.07417 0.06485,0.152884 0.09766,0.226562 l 0.002,0.002 c 1.090563,2.223511 2.965805,4.835053 5.439453,5.873047 2.257721,0.947388 5.097358,0.758511 8.818359,-2.322265 -1.481266,-1.305237 -2.767713,-2.36623 -3.945312,-3.126954 -1.881921,-1.215704 -3.530173,-1.773437 -5.716797,-1.773437 -1.763576,0 -3.267404,0.398882 -4.695313,1.121094 z m 14.357422,3.779297 c 0.229167,40.359375 0.114584,20.179687 0,0 z m -20.585938,-14.369141 -0.0039,0.0098 0.002,0.002 z m -5.072265,2.806641 c 0.900268,0 1.797857,0.722052 1.492187,0.851562 -0.0679,0.0288 -0.184086,0.0478 -0.316406,0.0625 -0.0935,0.575808 -0.568905,1.021484 -1.171875,1.021484 -0.602968,0 -1.086421,-0.443721 -1.181641,-1.019531 -0.132628,-0.0147 -0.246403,-0.03555 -0.314453,-0.06445 -0.305658,-0.12952 0.59186,-0.851563 1.492188,-0.851562 z"
     sodipodi:nodetypes="ccccsscccccccccccccccccccccsccccccccccccssccsscsscsssssscccccccccccsscssscccccccccccccccscscccccccscscccccccccccscccsssssscccsscccsscccccccccsscccccccccsccsccsccss" />
  <circle
     style="fill:none;fill-opacity:1;stroke:#ffffff;stroke-width:1.6;stroke-linejoin:round;stroke-dasharray:none;stroke-opacity:1"
     id="circle7703"
     cx="30.463573"
     cy="28.912819"
     r="22.478685" />
</svg>
