<?xml version="1.0" encoding="UTF-8" standalone="no"?>
<svg
   id="Layer_1"
   data-name="Layer 1"
   width="47.957367"
   height="47.957367"
   viewBox="0 0 47.957367 47.957367"
   version="1.1"
   sodipodi:docname="2025_perl_logo.svg"
   inkscape:version="1.2.2 (b0a8486541, 2022-12-01)"
   xmlns:inkscape="http://www.inkscape.org/namespaces/inkscape"
   xmlns:sodipodi="http://sodipodi.sourceforge.net/DTD/sodipodi-0.dtd"
   xmlns="http://www.w3.org/2000/svg"
   xmlns:svg="http://www.w3.org/2000/svg">
  <sodipodi:namedview
     id="namedview70"
     pagecolor="#ffffff"
     bordercolor="#111111"
     borderopacity="1"
     inkscape:showpageshadow="0"
     inkscape:pageopacity="0"
     inkscape:pagecheckerboard="1"
     inkscape:deskcolor="#d1d1d1"
     showgrid="false"
     inkscape:zoom="2.8284271"
     inkscape:cx="-301.05071"
     inkscape:cy="-123.92046"
     inkscape:window-width="1920"
     inkscape:window-height="1080"
     inkscape:window-x="0"
     inkscape:window-y="0"
     inkscape:window-maximized="1"
     inkscape:current-layer="Layer_1"
     showguides="true">
    <sodipodi:guide
       position="10.03701,21.445533"
       orientation="0,-1"
       id="guide4329"
       inkscape:locked="false" />
    <sodipodi:guide
       position="25.67327,10.969233"
       orientation="1,0"
       id="guide4331"
       inkscape:locked="false" />
  </sodipodi:namedview>
  <defs
     id="defs55">
    <style
       id="style53">
      .cls-1 {
        fill: #000;
        stroke-width: 0px;
      }

      .cls-2 {
        fill: none;
        stroke: #000;
        stroke-miterlimit: 10;
        stroke-width: 1.5px;
      }
    </style>
  </defs>
  <g
     id="g4960"
     transform="translate(411.8935,97.822808)"
     inkscape:export-filename="../../metacpan/perl-assets/experiments/exports/023.png"
     inkscape:export-xdpi="300"
     inkscape:export-ydpi="300">
    <g
       id="g4953">
      <g
         id="g4947">
        <path
           id="path4610"
           style="fill:#ffffff;fill-opacity:1;stroke:#ffffff;stroke-width:1.21579;stroke-linejoin:round;stroke-dasharray:none;stroke-opacity:1"
           d="m -387.96065,-95.34257 c -11.41,0 -20.85726,8.46244 -22.39258,19.48633 l -0.13281,1.17382 c 0.22786,0.38324 -0.24371,-0.46356 0,0 -0.0486,0.5612 -0.0848,1.12693 -0.0918,1.69922 v 0 c 0.52176,1.08188 1.08265,2.57378 1.49139,3.49052 2.03832,4.15734 7.87759,9.60686 15.77033,2.19898 1.63256,-1.53226 3.06703,-2.97358 4.42969,-4.2793 l 1.24804,-1.17383 v 0 c 3.00826,-2.73564 5.78736,-4.56836 9.63281,-4.56836 4.51347,0 7.21375,2.38075 12.58594,7.26758 l 0.0957,0.006 c 0.22172,-1.27846 0.33202,-2.57353 0.33202,-3.8711 0,-12.50212 -10.47671,-21.42968 -22.96875,-21.42968 z"
           sodipodi:nodetypes="cccccccscccsccssc" />
        <g
           id="g4941"
           style="fill:#000000;fill-opacity:1;stroke:none"
           transform="matrix(1.0367384,0,0,1.0367384,-24.227142,50.712516)">
          <path
             id="path4934"
             style="fill:#000000;fill-opacity:1;stroke:none"
             d="m -340.89062,-123.94336 c -5.30337,0 -8.57238,3.47227 -13.22266,8.01563 -0.66433,0.64904 -1.35721,1.32007 -2.08789,2.00585 -0.24665,0.2315 -0.49158,0.45005 -0.73242,0.65626 -0.24085,0.20619 -0.47785,0.40021 -0.71289,0.58203 -0.23505,0.18181 -0.46801,0.35144 -0.69727,0.50976 -0.22926,0.15833 -0.45426,0.30567 -0.67773,0.44141 -0.22348,0.13574 -0.44442,0.26094 -0.66211,0.375 -0.2177,0.11406 -0.43263,0.21727 -0.64453,0.31054 -0.21192,0.0933 -0.42081,0.17661 -0.62696,0.25 -0.20615,0.0734 -0.40899,0.13697 -0.60937,0.19141 -0.20039,0.0544 -0.39913,0.10035 -0.59375,0.13672 -0.19463,0.0364 -0.38535,0.0628 -0.57422,0.082 -0.18887,0.0192 -0.37547,0.0303 -0.5586,0.0332 -0.18312,0.003 -0.36363,-0.001 -0.54101,-0.0137 -0.17739,-0.0124 -0.35179,-0.0337 -0.52344,-0.0605 -0.17165,-0.0269 -0.33994,-0.0592 -0.50586,-0.0996 -0.16591,-0.0404 -0.33004,-0.0876 -0.49023,-0.14063 -0.16019,-0.0531 -0.31623,-0.11291 -0.47071,-0.17773 -0.15447,-0.0648 -0.30632,-0.13528 -0.45507,-0.21094 -0.14876,-0.0757 -0.29446,-0.15659 -0.4375,-0.24219 -0.14305,-0.0856 -0.28453,-0.17489 -0.42188,-0.26953 -0.13734,-0.0946 -0.2707,-0.1941 -0.40234,-0.29687 -0.13165,-0.10277 -0.26077,-0.21032 -0.38672,-0.32032 -0.12595,-0.11 -0.24888,-0.22351 -0.36914,-0.33984 -0.24053,-0.23265 -0.46968,-0.47598 -0.6875,-0.72852 -0.21782,-0.25254 -0.424,-0.51409 -0.61914,-0.77929 -0.19515,-0.26521 -0.38022,-0.53405 -0.55274,-0.80469 -0.17252,-0.27064 -0.33248,-0.5417 -0.48242,-0.81055 -0.14993,-0.26885 -0.28862,-0.53509 -0.41601,-0.79492 -0.41495,-0.93066 -0.81586,-1.89622 -1.23633,-2.83594 -0.21024,-0.46985 -0.4257,-0.93225 -0.65039,-1.38281 -0.0998,-0.20007 -0.20082,-0.39758 -0.30469,-0.5918 a 22.61886,22.637136 0 0 0 -0.002,0.21094 22.61886,22.637136 0 0 0 22.61914,22.638673 22.61886,22.637136 0 0 0 22.19726,-18.384763 c -0.10307,-0.0937 -0.20122,-0.18321 -0.30078,-0.27344 l 0.37695,-0.043 c -5.68661,-5.17419 -7.89512,-6.83789 -12.5371,-6.83789 z" />
        </g>
      </g>
    </g>
  </g>
  <path
     class="cls-1"
     d="m 19.55515,16.137514 c -0.0679,0.0288 -0.18329,0.0484 -0.31561,0.0631 -0.0935,0.57581 -0.56903,1.02124 -1.172,1.02124 -0.60297,0 -1.08624,-0.44531 -1.18146,-1.02112 -0.13263,-0.0147 -0.24817,-0.0343 -0.31622,-0.0632 -0.30566,-0.12952 0.59235,-0.85211 1.49268,-0.85211 0.90027,0 1.79828,0.7226 1.49261,0.85211 z"
     id="path4094"
     style="fill:#000000;fill-opacity:1" />
  <circle
     style="fill:none;fill-opacity:1;stroke:#ffffff;stroke-width:3;stroke-linejoin:round;stroke-dasharray:none;stroke-opacity:1"
     id="path4986"
     cx="23.978683"
     cy="23.978683"
     r="22.478685" />
  <g
     id="g5217"
     transform="translate(411.8935,97.822808)">
    <g
       id="g5215">
      <g
         id="g5213">
        <path
           id="path5207"
           style="fill:#ffffff;fill-opacity:1;stroke:#ffffff;stroke-width:1.21579;stroke-linejoin:round;stroke-dasharray:none;stroke-opacity:1"
           d="m -387.96065,-95.34257 c -11.41,0 -20.85726,8.46244 -22.39258,19.48633 l -0.13281,1.17382 c 0.22786,0.38324 -0.24371,-0.46356 0,0 -0.0486,0.5612 -0.0848,1.12693 -0.0918,1.69922 v 0 c 0.52176,1.08188 1.08265,2.57378 1.49139,3.49052 2.03832,4.15734 7.87759,9.60686 15.77033,2.19898 1.63256,-1.53226 3.06703,-2.97358 4.42969,-4.2793 l 1.24804,-1.17383 v 0 c 3.00826,-2.73564 5.78736,-4.56836 9.63281,-4.56836 4.51347,0 7.21375,2.38075 12.58594,7.26758 l 0.0957,0.006 c 0.22172,-1.27846 0.33202,-2.57353 0.33202,-3.8711 0,-12.50212 -10.47671,-21.42968 -22.96875,-21.42968 z"
           sodipodi:nodetypes="cccccccscccsccssc" />
        <g
           id="g5211"
           style="fill:#000000;fill-opacity:1;stroke:none"
           transform="matrix(1.0367384,0,0,1.0367384,-24.227142,50.712516)">
          <path
             id="path5209"
             style="fill:#000000;fill-opacity:1;stroke:none"
             d="m -340.89062,-123.94336 c -5.30337,0 -8.57238,3.47227 -13.22266,8.01563 -0.66433,0.64904 -1.35721,1.32007 -2.08789,2.00585 -0.24665,0.2315 -0.49158,0.45005 -0.73242,0.65626 -0.24085,0.20619 -0.47785,0.40021 -0.71289,0.58203 -0.23505,0.18181 -0.46801,0.35144 -0.69727,0.50976 -0.22926,0.15833 -0.45426,0.30567 -0.67773,0.44141 -0.22348,0.13574 -0.44442,0.26094 -0.66211,0.375 -0.2177,0.11406 -0.43263,0.21727 -0.64453,0.31054 -0.21192,0.0933 -0.42081,0.17661 -0.62696,0.25 -0.20615,0.0734 -0.40899,0.13697 -0.60937,0.19141 -0.20039,0.0544 -0.39913,0.10035 -0.59375,0.13672 -0.19463,0.0364 -0.38535,0.0628 -0.57422,0.082 -0.18887,0.0192 -0.37547,0.0303 -0.5586,0.0332 -0.18312,0.003 -0.36363,-0.001 -0.54101,-0.0137 -0.17739,-0.0124 -0.35179,-0.0337 -0.52344,-0.0605 -0.17165,-0.0269 -0.33994,-0.0592 -0.50586,-0.0996 -0.16591,-0.0404 -0.33004,-0.0876 -0.49023,-0.14063 -0.16019,-0.0531 -0.31623,-0.11291 -0.47071,-0.17773 -0.15447,-0.0648 -0.30632,-0.13528 -0.45507,-0.21094 -0.14876,-0.0757 -0.29446,-0.15659 -0.4375,-0.24219 -0.14305,-0.0856 -0.28453,-0.17489 -0.42188,-0.26953 -0.13734,-0.0946 -0.2707,-0.1941 -0.40234,-0.29687 -0.13165,-0.10277 -0.26077,-0.21032 -0.38672,-0.32032 -0.12595,-0.11 -0.24888,-0.22351 -0.36914,-0.33984 -0.24053,-0.23265 -0.46968,-0.47598 -0.6875,-0.72852 -0.21782,-0.25254 -0.424,-0.51409 -0.61914,-0.77929 -0.19515,-0.26521 -0.38022,-0.53405 -0.55274,-0.80469 -0.17252,-0.27064 -0.33248,-0.5417 -0.48242,-0.81055 -0.14993,-0.26885 -0.28862,-0.53509 -0.41601,-0.79492 -0.41495,-0.93066 -0.81586,-1.89622 -1.23633,-2.83594 -0.21024,-0.46985 -0.4257,-0.93225 -0.65039,-1.38281 -0.0998,-0.20007 -0.20082,-0.39758 -0.30469,-0.5918 a 22.61886,22.637136 0 0 0 -0.002,0.21094 22.61886,22.637136 0 0 0 22.61914,22.638673 22.61886,22.637136 0 0 0 22.19726,-18.384763 c -0.10307,-0.0937 -0.20122,-0.18321 -0.30078,-0.27344 l 0.37695,-0.043 c -5.68661,-5.17419 -7.89512,-6.83789 -12.5371,-6.83789 z" />
        </g>
      </g>
    </g>
  </g>
  <path
     id="path5381"
     style="fill:#ffffff;fill-opacity:1"
     class="cls-2"
     d="m 46.34533,25.469794 c -0.33214,0.31879 -0.67113,0.64119 -1.01784,0.9666 -8.78997,8.24999 -14.26996,1.81995 -16.53998,-2.81 -1.40002,-3.14001 -2.65002,-6.62006 -4.83002,-8.66003 -0.31,-0.28998 -0.42999,-0.73999 -0.33997,-1.16998 l 0.25,-1.16003 c 0.03,-0.14996 -0.07,-0.28998 -0.23004,-0.31 -1.02997,-0.07 -1.87994,0.29004 -2.62994,1.15002 -0.36005,-0.09 -0.75,-0.15997 -1.17004,-0.20001 -2.70001,-0.28998 -3.23999,1.08002 -5.85999,1.08002 h -1.27002 c -2.37,0 -4.3507104,1.12921 -5.3199504,2.78998 -0.77319,1.32483 -0.7995,2.7663 0.4704,2.90625 -0.39148,1.39526 0.91449,1.93982 3.8311804,0.60333 0,0 2.29315,1.31714 5.46991,1.31714 1.71722,0 2.22845,0.27332 2.85846,3.02332 1.38407,6.09163 6.48257,15.75677 16.54118,17.43696"
     sodipodi:nodetypes="cscccccccsssccscc" />
  <path
     class="cls-1"
     d="m 19.55515,16.137514 c -0.0679,0.0288 -0.18329,0.0484 -0.31561,0.0631 -0.0935,0.57581 -0.56903,1.02124 -1.172,1.02124 -0.60297,0 -1.08624,-0.44531 -1.18146,-1.02112 -0.13263,-0.0147 -0.24817,-0.0343 -0.31622,-0.0632 -0.30566,-0.12952 0.59235,-0.85211 1.49268,-0.85211 0.90027,0 1.79828,0.7226 1.49261,0.85211 z"
     id="path5221"
     style="fill:#000000;fill-opacity:1" />
  <circle
     style="fill:none;fill-opacity:1;stroke:#ffffff;stroke-width:3;stroke-linejoin:round;stroke-dasharray:none;stroke-opacity:1"
     id="circle5223"
     cx="23.978683"
     cy="23.978683"
     r="22.478685" />
  <path
     style="fill:#ffffff;fill-opacity:1;stroke:none;stroke-width:1px;stroke-linecap:butt;stroke-linejoin:miter;stroke-opacity:1"
     d="m 46.47386,27.775194 -8.99786,14.5747 -2.57266,-1.71302 7.54052,-9.74488 2.14344,-2.51794 z"
     id="path5408" />
</svg>
