<svg xmlns="http://www.w3.org/2000/svg" id="Layer_1" width="47.957" height="47.957" data-name="Layer 1" version="1.1">
    <defs id="defs55">
        <style id="style53">
            .cls-1{fill:#000;stroke-width:0}
        </style>
    </defs>
    <g id="g4960" transform="translate(411.894 97.823)">
        <g id="g4953">
            <g id="g4947">
                <path id="path4610" d="M-387.96-95.343c-11.41 0-20.858 8.463-22.393 19.487l-.133 1.174c.228.383-.244-.464 0 0a23 23 0 0 0-.092 1.699c.522 1.082 1.083 2.574 1.492 3.49 2.038 4.158 7.877 9.607 15.77 2.2 1.632-1.533 3.067-2.974 4.43-4.28l1.248-1.174c3.008-2.735 5.787-4.568 9.632-4.568 4.514 0 7.214 2.38 12.586 7.267l.096.006c.222-1.278.332-2.573.332-3.87 0-12.503-10.477-21.43-22.969-21.43z" style="fill:#fff;fill-opacity:1;stroke:#fff;stroke-width:1.21579;stroke-linejoin:round;stroke-dasharray:none;stroke-opacity:1"/>
                <g id="g4941" style="fill:#000;fill-opacity:1;stroke:none" transform="matrix(1.03674 0 0 1.03674 -24.227 50.713)">
                    <path id="path4934" d="M-340.89-123.943c-5.304 0-8.573 3.472-13.223 8.015-.665.65-1.357 1.32-2.088 2.006a22 22 0 0 1-1.445 1.238 16 16 0 0 1-1.375.952q-.336.203-.663.375a11 11 0 0 1-1.271.56 8 8 0 0 1-1.203.328 7 7 0 0 1-1.133.115 6.2 6.2 0 0 1-2.531-.492 7 7 0 0 1-.893-.453 8 8 0 0 1-1.21-.887 11.092 11.092 0 0 1-1.057-1.068 14.625 14.625 0 0 1-1.654-2.395q-.226-.404-.417-.794c-.415-.931-.816-1.897-1.236-2.836q-.314-.707-.65-1.383-.15-.3-.305-.592a22.619 22.637 0 0 0-.002.211 22.619 22.637 0 0 0 22.619 22.639 22.619 22.637 0 0 0 22.197-18.385l-.3-.274.376-.043c-5.686-5.174-7.895-6.837-12.537-6.837" style="fill:#000;fill-opacity:1;stroke:none"/>
                </g>
            </g>
        </g>
    </g>
    <path id="path4094" d="M19.555 16.138a1.3 1.3 0 0 1-.315.063c-.094.575-.57 1.02-1.172 1.02a1.2 1.2 0 0 1-1.182-1.02 1.3 1.3 0 0 1-.316-.063c-.306-.13.592-.853 1.493-.853.9 0 1.798.723 1.492.853" class="cls-1" style="fill:#000;fill-opacity:1"/>
    <circle id="path4986" cx="23.979" cy="23.979" r="22.479" style="fill:none;fill-opacity:1;stroke:#fff;stroke-width:3;stroke-linejoin:round;stroke-dasharray:none;stroke-opacity:1"/>
    <g id="g5217" transform="translate(411.894 97.823)">
        <g id="g5215">
            <g id="g5213">
                <path id="path5207" d="M-387.96-95.343c-11.41 0-20.858 8.463-22.393 19.487l-.133 1.174c.228.383-.244-.464 0 0a23 23 0 0 0-.092 1.699c.522 1.082 1.083 2.574 1.492 3.49 2.038 4.158 7.877 9.607 15.77 2.2 1.632-1.533 3.067-2.974 4.43-4.28l1.248-1.174c3.008-2.735 5.787-4.568 9.632-4.568 4.514 0 7.214 2.38 12.586 7.267l.096.006c.222-1.278.332-2.573.332-3.87 0-12.503-10.477-21.43-22.969-21.43z" style="fill:#fff;fill-opacity:1;stroke:#fff;stroke-width:1.21579;stroke-linejoin:round;stroke-dasharray:none;stroke-opacity:1"/>
                <g id="g5211" style="fill:#000;fill-opacity:1;stroke:none" transform="matrix(1.03674 0 0 1.03674 -24.227 50.713)">
                    <path id="path5209" d="M-340.89-123.943c-5.304 0-8.573 3.472-13.223 8.015-.665.65-1.357 1.32-2.088 2.006a22 22 0 0 1-1.445 1.238 16 16 0 0 1-1.375.952q-.336.203-.663.375a11 11 0 0 1-1.271.56 8 8 0 0 1-1.203.328 7 7 0 0 1-1.133.115 6.2 6.2 0 0 1-2.531-.492 7 7 0 0 1-.893-.453 8 8 0 0 1-1.21-.887 11.092 11.092 0 0 1-1.057-1.068 14.625 14.625 0 0 1-1.654-2.395q-.226-.404-.417-.794c-.415-.931-.816-1.897-1.236-2.836q-.314-.707-.65-1.383-.15-.3-.305-.592a22.619 22.637 0 0 0-.002.211 22.619 22.637 0 0 0 22.619 22.639 22.619 22.637 0 0 0 22.197-18.385l-.3-.274.376-.043c-5.686-5.174-7.895-6.837-12.537-6.837" style="fill:#000;fill-opacity:1;stroke:none"/>
                </g>
            </g>
        </g>
    </g>
    <path id="path5381" d="M46.345 25.47q-.497.478-1.018.966c-8.79 8.25-14.27 1.82-16.54-2.81-1.4-3.14-2.65-6.62-4.83-8.66-.31-.29-.43-.74-.34-1.17l.25-1.16a.26.26 0 0 0-.23-.31c-1.03-.07-1.88.29-2.63 1.15-.36-.09-.75-.16-1.17-.2-2.7-.29-3.24 1.08-5.86 1.08h-1.27c-2.37 0-4.35 1.13-5.32 2.79-.773 1.325-.799 2.767.47 2.907-.39 1.395.915 1.94 3.832.603 0 0 2.293 1.317 5.47 1.317 1.717 0 2.228.273 2.858 3.023 1.385 6.092 6.483 15.757 16.542 17.437" style="stroke:#000;stroke-miterlimit:10;stroke-width:1.5px;fill:#fff;fill-opacity:1"/>
    <path id="path5221" d="M19.555 16.138a1.3 1.3 0 0 1-.315.063c-.094.575-.57 1.02-1.172 1.02a1.2 1.2 0 0 1-1.182-1.02 1.3 1.3 0 0 1-.316-.063c-.306-.13.592-.853 1.493-.853.9 0 1.798.723 1.492.853" class="cls-1" style="fill:#000;fill-opacity:1"/>
    <circle id="circle5223" cx="23.979" cy="23.979" r="22.479" style="fill:none;fill-opacity:1;stroke:#fff;stroke-width:3;stroke-linejoin:round;stroke-dasharray:none;stroke-opacity:1"/>
    <path id="path5408" d="M46.474 27.775 37.476 42.35l-2.573-1.713 7.54-9.745 2.144-2.518z" style="fill:#fff;fill-opacity:1;stroke:none;stroke-width:1px;stroke-linecap:butt;stroke-linejoin:miter;stroke-opacity:1"/>
</svg>
