<svg xmlns="http://www.w3.org/2000/svg" xml:space="preserve" width="868.533" height="868.531" viewBox="0 0 229.799 229.799">
    <g transform="translate(6986.534 -321.133)">
        <circle cx="-6871.634" cy="436.032" r="114.899" style="fill:#fff;fill-opacity:1;stroke:none;stroke-width:22.857;stroke-linejoin:round"/>
        <path d="M-6871.634 321.133a114.9 114.9 0 0 0-114.9 114.899 114.9 114.9 0 0 0 114.9 114.9 114.9 114.9 0 0 0 43.44-8.581c-13.83-22.293-22.639-45.626-26.966-64.67-5.124-22.364-9.281-24.586-23.246-24.586-25.836 0-44.486-10.712-44.486-10.712-23.72 10.869-34.34 6.44-31.156-4.907-10.328-1.138-10.115-12.861-3.827-23.636 7.882-13.506 23.99-22.69 43.265-22.69h10.329c21.307 0 25.698-11.141 47.656-8.783 3.417.326 6.589.895 9.517 1.627 6.1-6.994 13.012-9.923 21.388-9.353 1.301.163 2.114 1.302 1.871 2.522l-2.033 9.433c-.732 3.497.244 7.157 2.764 9.515 17.73 16.59 27.895 44.893 39.28 70.43 3.62 7.38 8.258 15.318 13.89 22.815a114.9 114.9 0 0 0 13.214-53.324 114.9 114.9 0 0 0-114.9-114.9m.611 76.96c-7.322 0-14.625 5.876-12.139 6.93.553.234 1.493.394 2.571.514.773 4.682 4.705 8.304 9.609 8.304s8.771-3.623 9.531-8.306c1.076-.119 2.015-.278 2.567-.512 2.486-1.054-4.818-6.93-12.139-6.93" style="fill:#000;fill-opacity:1;stroke-width:.42538"/>
    </g>
</svg>
