<?xml version="1.0" encoding="UTF-8" standalone="no"?>
<!-- Created with Inkscape (http://www.inkscape.org/) -->

<svg
   width="229.79932mm"
   height="229.79881mm"
   viewBox="0 0 229.79932 229.79882"
   version="1.1"
   id="svg1869"
   inkscape:version="1.2.2 (b0a8486541, 2022-12-01)"
   sodipodi:docname="2025.svg"
   xml:space="preserve"
   xmlns:inkscape="http://www.inkscape.org/namespaces/inkscape"
   xmlns:sodipodi="http://sodipodi.sourceforge.net/DTD/sodipodi-0.dtd"
   xmlns="http://www.w3.org/2000/svg"
   xmlns:svg="http://www.w3.org/2000/svg"><sodipodi:namedview
     id="namedview1871"
     pagecolor="#ffffff"
     bordercolor="#111111"
     borderopacity="1"
     inkscape:showpageshadow="0"
     inkscape:pageopacity="0"
     inkscape:pagecheckerboard="1"
     inkscape:deskcolor="#d1d1d1"
     inkscape:document-units="mm"
     showgrid="false"
     inkscape:zoom="0.08"
     inkscape:cx="481.25"
     inkscape:cy="4375"
     inkscape:window-width="2560"
     inkscape:window-height="1403"
     inkscape:window-x="0"
     inkscape:window-y="0"
     inkscape:window-maximized="1"
     inkscape:current-layer="layer1"
     showguides="true"><inkscape:grid
       type="xygrid"
       id="grid9452"
       originx="-444.7159"
       originy="716.26769" /></sodipodi:namedview><defs
     id="defs1866" /><g
     inkscape:label="Layer 1"
     inkscape:groupmode="layer"
     id="layer1"
     transform="translate(-2697.0028,-246.60319)"><g
       id="g4670"
       transform="translate(9683.5366,-74.529639)"><circle
         style="fill:#ffffff;fill-opacity:1;stroke:none;stroke-width:22.857;stroke-linejoin:round"
         id="circle4666"
         cx="-6871.6343"
         cy="436.03232"
         r="114.89941" /><path
         id="path4668"
         style="fill:#000000;fill-opacity:1;stroke-width:0.42538"
         d="m -6871.6341,321.13292 a 114.89945,114.89945 0 0 0 -114.8996,114.89911 114.89945,114.89945 0 0 0 114.8996,114.89969 114.89945,114.89945 0 0 0 43.4403,-8.58117 c -13.8293,-22.29252 -22.6391,-45.62544 -26.9661,-64.66866 -5.1237,-22.36467 -9.2812,-24.58733 -23.2466,-24.58733 -25.8356,0 -44.4851,-10.71168 -44.4851,-10.71168 -23.7203,10.86915 -34.3408,6.44027 -31.1567,-4.9068 -10.3276,-1.13817 -10.1146,-12.86155 -3.8264,-23.63589 7.8821,-13.50636 23.9904,-22.68964 43.2649,-22.68964 h 10.3286 c 21.3073,0 25.6986,-11.14189 47.6566,-8.7836 3.4166,0.32564 6.5882,0.89487 9.5165,1.62699 6.0996,-6.99401 13.0121,-9.92244 21.3878,-9.35308 1.3013,0.16283 2.1146,1.30203 1.8713,2.52164 l -2.0331,9.43395 c -0.7319,3.49692 0.2439,7.1565 2.7642,9.5148 17.7292,16.59033 27.8953,44.89239 39.2808,70.42883 3.6195,7.38187 8.2573,15.31907 13.8894,22.81638 a 114.89945,114.89945 0 0 0 13.2133,-53.32443 114.89945,114.89945 0 0 0 -114.8997,-114.89911 z m 0.6114,76.95975 c -7.3218,-2e-5 -14.6253,5.87682 -12.1392,6.93008 0.5531,0.23474 1.4928,0.39467 2.571,0.51385 0.7727,4.68282 4.7048,8.30415 9.6089,8.30415 4.904,0 8.771,-3.6225 9.5314,-8.3053 1.0759,-0.11919 2.0148,-0.27846 2.5669,-0.5127 2.4862,-1.05335 -4.8181,-6.93008 -12.139,-6.93008 z" /></g></g></svg>
