<svg xmlns="http://www.w3.org/2000/svg" xml:space="preserve" width="906.68" height="906.68" viewBox="0 0 239.892 239.892">
    <g transform="matrix(.5332 0 0 .5332 2238.334 133.232)">
        <rect width="449.909" height="449.909" x="3747.996" y="-249.872" rx="37.509" ry="37.509" style="fill:#fff;fill-opacity:1;stroke:none;stroke-width:.0912955;stroke-opacity:1" transform="scale(-1 1)"/>
        <path d="M-3906.097-130.68a56 56 0 0 1 5.994.095c2.537.318 4.122 2.538 3.648 4.916l-3.964 18.395c-1.427 6.819.475 13.955 5.39 18.553 34.569 32.349 54.391 87.533 76.591 137.326 6.456 13.167 14.617 27.234 24.356 40.73l-.039 67.087h-137.05c-14.932-28.969-15.167-36.93-26.338-86.092-9.99-43.608-18.096-47.942-45.326-47.942-50.376 0-86.739-20.887-86.739-20.887-46.251 21.194-66.962 12.559-60.753-9.567-20.138-2.219-19.721-25.077-7.46-46.085 15.369-26.336 46.779-44.242 84.361-44.242h20.138c41.547 0 50.11-21.725 92.925-17.127a125.5 125.5 0 0 1 18.555 3.172c10.407-11.933 22.028-17.796 35.711-18.332zm-82.34 45.823c-14.276 0-28.518 11.458-23.67 13.512 1.078.457 2.911.77 5.014 1.001 1.506 9.131 9.173 16.193 18.735 16.193s17.102-7.063 18.585-16.194c2.098-.233 3.928-.544 5.004-1 4.848-2.054-9.393-13.512-23.668-13.512" style="fill:#000;fill-opacity:1;stroke:none;stroke-width:0;stroke-opacity:1"/>
    </g>
</svg>
