<svg xmlns="http://www.w3.org/2000/svg" width="1500" height="1500">
    <defs>
        <linearGradient id="a" x1="244.823" x2="1115.34" y1="-272.523" y2="-272.523" gradientTransform="scale(1.7251)rotate(66.449 17.373 -105.521)" gradientUnits="userSpaceOnUse">
            <stop offset="0" stop-color="#0073A1"/>
            <stop offset="1" stop-color="#003555"/>
        </linearGradient>
    </defs>
    <path fill="#FFF" d="M1500 750c0 414.215-335.785 750-750 750S0 1164.215 0 750 335.785 0 750 0s750 335.785 750 750m0 0"/>
    <path fill="url(#a)" d="M763.898.113a750.9 750.9 0 0 0-313.05 62.43c-380.153 165.695-554 608.195-388.305 988.344 140.203 319.465 481.977 500.273 824.96 436.437 14.618-46.613 26.606-97.719 26.606-153.449 0-7.918-.218-15.84-.66-23.98 0 0 26.836-45.754 47.957-105.372 26.18-73.695 12.32-154.87-32.996-219.109-2.64-3.52-5.281-7.476-8.14-11.437-266.844 0-398.836-241.985-432.278-389.157-13.86-60.496-25.105-66.508-62.883-66.508-69.882 0-120.328-28.976-120.328-28.976-64.164 29.402-92.894 17.422-84.281-13.274-27.937-3.078-27.36-34.789-10.348-63.933 21.32-36.535 64.891-61.375 117.028-61.375h27.941c57.637 0 69.516-30.14 128.91-23.762 9.242.883 17.82 2.422 25.742 4.403 16.5-18.918 35.2-26.84 57.856-25.301 3.52.441 5.719 3.523 5.058 6.82l-5.496 25.52c-1.98 9.46.66 19.359 7.477 25.738 47.957 44.879 75.457 121.433 106.254 190.508 49.937 101.855 170.488 243.304 363.86 61.816 135.964-127.61 218.105-234.008 353.128-244.469C1265.852 146.02 1025.617 5.097 763.898.113M445.086 369.531c-19.809 0-39.563 15.899-32.836 18.746 1.496.633 4.035 1.067 6.953 1.391 2.09 12.664 12.727 22.46 25.992 22.46s23.727-9.796 25.782-22.464c2.91-.324 5.449-.754 6.945-1.387 6.723-2.847-13.035-18.746-32.836-18.746m701.414 721.914c-16.055.39-30.469 10.59-35.281 26.18v.223c-23.977 76.996-70.614 176.43-70.614 176.43s-46.398 82.183-72.66 174.222a751 751 0 0 0 82.942-29.309 750.6 750.6 0 0 0 149.203-86.957c-7.207-14.347-15.313-28.984-24.973-44.097 0 0-15.398-68.418-44.879-142.992 4.621-12.758 8.801-25.301 12.54-37.399l.218-.879c.879-1.762 2.86-2.422 5.059-2.422h.218c15.399 2.422 31.68 4.84 50.594 7.04 5.723.44 11.664.878 17.602 1.538 7.258.66 14.3 1.32 21.558 1.762 1.743 69.215 31.782 135.363 39.38 151.156a750.8 750.8 0 0 0 138.1-186.183c-53.468 6.105-118.874 8.164-195.835.492-6.16-.66-12.317-1.32-18.477-1.762-16.937-1.98-32.777-4.18-47.738-6.597a39 39 0 0 0-6.957-.446m0 0"/>
</svg>
