<svg xmlns="http://www.w3.org/2000/svg" width="800" height="800" viewBox="0 0 800 800">
    <defs>
        <linearGradient id="a" x1="244.823" x2="1115.34" y1="-272.523" y2="-272.523" gradientTransform="rotate(66.45 4.889 -33.052)scale(.82547)" gradientUnits="userSpaceOnUse">
            <stop offset="0" stop-color="#0073a1"/>
            <stop offset="1" stop-color="#003555"/>
        </linearGradient>
    </defs>
    <path fill="#fff" d="M800 400c0 220.914-179.086 400-400 400S0 620.914 0 400 179.086 0 400 0s400 179.086 400 400m0 0"/>
    <path fill="url(#a)" d="M409.406 41.176a359.3 359.3 0 0 0-149.797 29.87C77.703 150.337-5.484 362.07 73.801 543.977 140.89 696.845 304.43 783.36 468.55 752.814c6.996-22.301 12.73-46.758 12.73-73.426 0-3.79-.101-7.578-.312-11.473 0 0 12.84-21.894 22.945-50.422 12.527-35.262 5.895-74.105-15.789-104.844-1.262-1.683-2.527-3.578-3.895-5.472-127.687 0-190.847-115.793-206.847-186.215-6.633-28.95-12.012-31.824-30.09-31.824-33.441 0-57.578-13.867-57.578-13.867-30.703 14.07-44.45 8.335-40.328-6.352-13.367-1.473-13.09-16.645-4.953-30.594 10.203-17.48 31.05-29.367 56-29.367h13.37c27.579 0 33.262-14.422 61.684-11.367a83 83 0 0 1 12.317 2.105c7.894-9.054 16.843-12.843 27.683-12.105 1.684.21 2.739 1.683 2.422 3.262l-2.629 12.21c-.949 4.528.313 9.266 3.578 12.317 22.946 21.473 36.106 58.105 50.84 91.16 23.899 48.738 81.582 116.422 174.11 29.578 65.062-61.062 104.367-111.972 168.976-116.98C649.594 110.992 534.641 43.559 409.406 41.176m-152.554 176.77c-9.477 0-18.93 7.605-15.711 8.968.714.305 1.93.512 3.328.664 1 6.063 6.09 10.75 12.437 10.75 6.344 0 11.352-4.691 12.336-10.75 1.39-.156 2.606-.363 3.32-.664 3.22-1.363-6.234-8.969-15.71-8.969m335.632 345.437c-7.683.187-14.578 5.07-16.882 12.527v.106c-11.473 36.843-33.79 84.425-33.79 84.425s-22.203 39.325-34.769 83.368a358 358 0 0 0 39.687-14.028 359.2 359.2 0 0 0 71.395-41.605c-3.45-6.867-7.324-13.871-11.95-21.106 0 0-7.366-32.738-21.472-68.422a397 397 0 0 0 6-17.894l.106-.422c.418-.84 1.367-1.156 2.418-1.156h.105c7.367 1.156 15.16 2.316 24.211 3.367 2.738.21 5.578.422 8.422.738 3.472.317 6.844.63 10.316.84.832 33.121 15.207 64.774 18.844 72.332a359.4 359.4 0 0 0 66.082-89.09c-25.586 2.918-56.883 3.907-93.71.235-2.946-.317-5.895-.633-8.84-.844-8.106-.945-15.688-2-22.845-3.156a19 19 0 0 0-3.328-.215m0 0"/>
</svg>
