<svg xmlns="http://www.w3.org/2000/svg" width="64" height="64">
    <path fill="#005A7D" d="M59.559 31.945c0 15.172-12.301 27.473-27.47 27.473-15.171 0-27.472-12.3-27.472-27.473 0-15.168 12.301-27.468 27.473-27.468 15.168 0 27.469 12.3 27.469 27.468m0 0"/>
    <path fill="#FFF" stroke="#FFF" stroke-miterlimit="10" stroke-width="1.1743684799999998" d="M49.504 44.957c.07 2.8 1.61 6.793 1.61 6.793l-1.196 1.648c-1.633.535-2.145-.453-2.555-1.094 0 0-1.332-3.773-2.379-6.43l-.668-1.886Zm0 0"/>
    <path fill="#FFF" stroke="#FFF" stroke-miterlimit="10" stroke-width="1.1743684799999998" d="M39.765 58.91c.672-2.531 1.524-4.77 2.82-7.098 0 0 1.66-3.539 2.516-6.281.196-.633.836-1.016 1.5-.914a40 40 0 0 0 1.7.234c.218.027.441.035.66.063 1.324.035 2.61.09 3.847.097q.933.007 1.825-.027a36 36 0 0 0 2.187-.188c.164-.02 3.137-.398 3.235-13.324-.207-12.914-3.829-12.52-3.977-12.52-5.285 0-8.25 3.954-13.348 8.735-6.883 6.461-11.172 1.426-12.949-2.2-1.098-2.456-2.078-5.183-3.785-6.777a.99.99 0 0 1-.266-.918l.196-.91c.03-.117-.051-.226-.18-.242-.805-.05-1.473.23-2.059.902a6 6 0 0 0-.918-.156c-2.113-.23-2.535.844-4.586.844h-.996c-1.855 0-3.406.887-4.164 2.184-.605 1.039-.625 2.168.367 2.277-.304 1.094.72 1.52 3 .473 0 0 1.797 1.03 4.286 1.03 1.343 0 1.742.212 2.238 2.368C24.1 31.8 28.8 40.414 38.297 40.414c.101.14.195.28.289.406 1.613 2.285 2.105 5.176 1.176 7.797-.754 2.12-1.708 3.75-1.708 3.75.028.289.028.57.028.855-.043 2.227-.621 4.75-1.164 6.278"/>
    <path fill="#005A7D" d="M22.55 19.566c-.054.032-.144.04-.25.051-.07.45-.445.801-.913.801a.944.944 0 0 1-.926-.8.7.7 0 0 1-.25-.052c-.238-.101.465-.668 1.168-.668.707 0 1.41.567 1.168.668Zm0 0"/>
    <path fill="none" stroke="#FFF" stroke-linejoin="round" stroke-width="2.7245" d="M59.945 32c0 15.433-12.512 27.945-27.945 27.945S4.054 47.433 4.054 32 16.566 4.054 32 4.054c15.433 0 27.945 12.512 27.945 27.946Zm0 0"/>
    <path fill="none" stroke="#005A7D" stroke-linejoin="round" stroke-width="2.97482706" d="M62.512 32C62.512 48.85 48.852 62.51 32 62.51S1.488 48.851 1.488 32C1.488 15.148 15.148 1.488 32 1.488c16.851 0 30.512 13.66 30.512 30.512Zm0 0"/>
</svg>
