<svg xmlns="http://www.w3.org/2000/svg" width="2500" height="2500" viewBox="0 0 2500 2500">
    <path fill="#fff" d="M2326.512 1247.938c0 592.64-480.426 1073.066-1073.067 1073.066-592.636 0-1073.066-480.426-1073.066-1073.066 0-592.637 480.43-1073.067 1073.066-1073.067 592.64 0 1073.067 480.43 1073.067 1073.067m0 0"/>
    <path fill="none" stroke="#005a7d" stroke-miterlimit="10" stroke-width="10.776" d="M47.227-801.206c.651 25.72 14.78 62.327 14.78 62.327l-10.982 15.12c-14.976 4.922-19.687-4.146-23.44-10.019 0 0-12.216-34.64-21.845-58.994l-6.102-17.312Zm0 0" transform="translate(1732.712 5166.899)scale(4.25706)"/>
    <path fill="#fff" stroke="#005a7d" stroke-miterlimit="10" stroke-width="10.776" d="M-42.131-673.171c6.174-23.237 13.978-43.752 25.882-65.133 0 0 15.23-32.472 23.061-57.618 1.792-5.819 7.688-9.34 13.794-8.407 4.887.788 10.057 1.52 15.591 2.146 2.01.271 4.022.353 6.033.57 12.156.335 23.949.828 35.322.913 5.687.04 11.27-.019 16.74-.25 5.47-.234 14.826-1.065 20.066-1.715 1.504-.187 28.769-3.656 29.687-122.284-1.903-118.467-35.149-114.877-36.493-114.877-48.492 0-75.722 36.282-122.49 80.177-63.148 59.27-102.517 13.075-118.825-20.188-10.06-22.559-19.04-47.561-34.7-62.215-2.228-2.09-3.089-5.317-2.445-8.406l1.793-8.334c.27-1.086-.49-2.091-1.658-2.227-7.4-.488-13.505 2.091-18.895 8.263-2.579-.651-5.387-1.14-8.407-1.439-19.395-2.09-23.274 7.76-42.097 7.76h-9.124c-17.026 0-31.257 8.114-38.22 20.044-5.555 9.518-5.742 19.874 3.381 20.878-2.813 10.025 6.568 13.939 27.523 4.337 0 0 16.473 9.463 39.297 9.463 12.335 0 16.01 1.954 20.536 21.72 10.918 48.06 54.023 127.089 141.167 127.089.923 1.303 1.792 2.58 2.661 3.734 14.801 20.978 19.327 47.487 10.777 71.555-6.896 19.468-15.662 34.411-15.662 34.411.272 2.661.272 5.246.272 7.83-.425 20.44-5.73 43.607-10.7 57.603" transform="translate(1732.712 5166.899)scale(4.25706)"/>
    <path fill="#005a7d" d="M880.91 764.332c-2.082 1.152-5.664 1.5-9.71 1.965-2.891 17.601-17.395 31.23-35.845 31.23-18.437 0-33.222-13.617-36.132-31.23-4.047 0-7.63-1.156-9.711-1.965-9.364-3.93 18.113-26.055 45.644-26.055 27.535 0 55 22.09 45.649 26.055Zm0 0"/>
    <path fill="none" stroke="#005a7d" stroke-linejoin="round" stroke-width="25" d="M143.032-920.095c0 141.619-114.804 256.423-256.423 256.423-141.618 0-256.422-114.804-256.422-256.423 0-141.618 114.804-256.422 256.422-256.422s256.423 114.804 256.423 256.422Zm0 0" transform="translate(1732.712 5166.899)scale(4.25706)"/>
    <path fill="none" stroke="#fff" stroke-linejoin="round" stroke-width="27.297" d="M166.59-920.095c0 154.63-125.352 279.982-279.98 279.982-154.63 0-279.982-125.353-279.982-279.982s125.352-279.981 279.981-279.981c154.63 0 279.982 125.352 279.982 279.981Zm0 0" transform="translate(1732.712 5166.899)scale(4.25706)"/>
</svg>
