<svg xmlns="http://www.w3.org/2000/svg" width="64" height="64" viewBox="0 0 64 64">
    <path fill="#005a7d" d="M59.559 31.945c0 15.172-12.297 27.473-27.47 27.473-15.171 0-27.472-12.3-27.472-27.473 0-15.168 12.301-27.468 27.473-27.468s27.469 12.3 27.469 27.468m0 0"/>
    <path fill="none" stroke="#fff" stroke-miterlimit="10" stroke-width="1.1743684799999998" d="M49.504 45.074c.07 2.8 1.61 6.789 1.61 6.789l-1.196 1.648c-1.633.54-2.145-.449-2.555-1.09 0 0-1.332-3.777-2.379-6.43"/>
    <path fill="none" stroke="#fff" stroke-miterlimit="10" stroke-width="1.1743684799999998" d="M39.766 58.91c.671-2.532 1.523-4.77 2.82-7.098 0 0 1.66-3.539 2.516-6.281.195-.633.836-1.016 1.5-.914a40 40 0 0 0 1.699.234c.219.027.441.035.66.063 1.324.035 2.61.09 3.848.097.62.004 1.23 0 1.824-.027a33 33 0 0 0 2.187-.188c.164-.02 3.137-.398 3.235-13.324-.207-12.91-3.828-12.52-3.977-12.52-5.285 0-8.25 3.954-13.348 8.739-6.882 6.457-11.171 1.422-12.949-2.203-1.097-2.457-2.078-5.184-3.785-6.778a.99.99 0 0 1-.266-.918l.196-.906c.031-.12-.051-.23-.18-.246-.805-.05-1.473.23-2.059.902a6 6 0 0 0-.918-.156c-2.113-.23-2.535.844-4.585.844h-.997c-1.855 0-3.406.887-4.164 2.184-.605 1.039-.625 2.167.368 2.277-.305 1.094.718 1.52 3 .473 0 0 1.796 1.03 4.285 1.03 1.343 0 1.742.212 2.238 2.368 1.188 5.238 5.887 13.852 15.383 13.852.101.14.195.28.289.406 1.613 2.285 2.105 5.176 1.176 7.797-.754 2.12-1.707 3.75-1.707 3.75.027.289.027.57.027.855-.043 2.227-.621 4.75-1.164 6.278"/>
    <path fill="#fff" d="M22.55 19.566c-.054.032-.144.04-.25.051-.07.45-.445.801-.913.801a.944.944 0 0 1-.926-.8.7.7 0 0 1-.25-.052c-.238-.101.465-.668 1.168-.668.707 0 1.41.567 1.168.668Zm0 0"/>
    <path fill="none" stroke="#fff" stroke-linejoin="round" stroke-width="2.7245" d="M59.945 32c0 15.433-12.511 27.945-27.945 27.945S4.055 47.433 4.055 31.999C4.055 16.566 16.566 4.054 32 4.054S59.945 16.566 59.945 32Zm0 0"/>
    <path fill="none" stroke="#005a7d" stroke-linejoin="round" stroke-width="2.97482706" d="M62.512 32C62.512 48.85 48.852 62.51 32 62.51S1.488 48.851 1.488 32C1.488 15.148 15.148 1.488 32 1.488s30.512 13.66 30.512 30.511Zm0 0"/>
</svg>
