<svg xmlns="http://www.w3.org/2000/svg" width="64" height="64">
    <defs>
        <linearGradient id="a" x1="244.823" x2="1115.34" y1="-272.523" y2="-272.523" gradientTransform="scale(.0736)rotate(66.449 17.373 -105.522)" gradientUnits="userSpaceOnUse">
            <stop offset="0" stop-color="#0073A1"/>
            <stop offset="1" stop-color="#003555"/>
        </linearGradient>
    </defs>
    <path fill="#FFF" d="M64 32c0 17.672-14.328 32-32 32S0 49.672 0 32 14.328 0 32 0s32 14.328 32 32m0 0"/>
    <path fill="url(#a)" d="M32.594.004a32.06 32.06 0 0 0-13.36 2.664C3.016 9.738-4.402 28.618 2.668 44.836c5.984 13.633 20.566 21.348 35.2 18.625.624-1.992 1.136-4.172 1.136-6.55q-.001-.505-.031-1.02s1.144-1.953 2.047-4.496c1.117-3.145.527-6.61-1.407-9.352-.113-.148-.226-.316-.347-.488-11.387 0-17.02-10.325-18.446-16.602-.59-2.582-1.07-2.84-2.683-2.84-2.98 0-5.133-1.234-5.133-1.234-2.738 1.254-3.965.742-3.598-.567-1.191-.132-1.164-1.484-.441-2.726.91-1.563 2.77-2.621 4.996-2.621h1.191c2.457 0 2.965-1.285 5.5-1.012.395.035.762.102 1.098.188.703-.809 1.504-1.145 2.469-1.082.148.02.242.152.215.293l-.235 1.09c-.082.402.028.824.32 1.097 2.047 1.914 3.22 5.18 4.532 8.129 2.133 4.344 7.277 10.379 15.527 2.637 5.8-5.446 9.305-9.985 15.067-10.43A32.05 32.05 0 0 0 32.594.004M18.992 15.766c-.847 0-1.691.68-1.402.8.062.028.172.047.297.059.09.543.543.96 1.11.96.566 0 1.01-.417 1.097-.96.125-.012.234-.031.297-.059.289-.12-.555-.8-1.399-.8m29.926 30.8a1.61 1.61 0 0 0-1.508 1.118v.011c-1.02 3.285-3.012 7.528-3.012 7.528s-1.98 3.507-3.097 7.433a32 32 0 0 0 3.535-1.25 32 32 0 0 0 6.367-3.71 20 20 0 0 0-1.066-1.883s-.657-2.918-1.914-6.102c.199-.543.375-1.078.535-1.594l.012-.039c.035-.074.12-.101.214-.101h.008c.656.101 1.352.207 2.16.3.243.02.496.035.75.067.309.027.61.054.922.074.074 2.953 1.356 5.773 1.68 6.45a32 32 0 0 0 5.89-7.946c-2.28.262-5.07.348-8.355.023a17 17 0 0 0-.789-.078 40 40 0 0 1-2.035-.281c-.102-.016-.2-.02-.297-.02m0 0"/>
</svg>
