<svg xmlns="http://www.w3.org/2000/svg" width="1500" height="1500" viewBox="0 0 1500 1500">
    <defs>
        <linearGradient id="a" x1="244.823" x2="1115.34" y1="-272.523" y2="-272.523" gradientTransform="rotate(66.45 9.167 -61.973)scale(1.54777)" gradientUnits="userSpaceOnUse">
            <stop offset="0" stop-color="#0073a1"/>
            <stop offset="1" stop-color="#003555"/>
        </linearGradient>
    </defs>
    <path fill="#fff" d="M1500 750c0 414.215-335.785 750-750 750S0 1164.215 0 750 335.785 0 750 0s750 335.785 750 750m0 0"/>
    <path fill="url(#a)" d="M767.637 77.2a673.7 673.7 0 0 0-280.871 56.015c-341.07 148.66-497.047 545.668-348.387 886.742 125.793 286.621 432.43 448.844 740.156 391.57 13.117-41.82 23.871-87.672 23.871-137.675 0-7.106-.199-14.211-.593-21.512 0 0 24.078-41.055 43.027-94.543 23.488-66.117 11.055-138.95-29.606-196.582-2.367-3.16-4.734-6.711-7.3-10.262-239.414 0-357.836-217.11-387.84-349.152-12.434-54.278-22.524-59.672-56.418-59.672-62.7 0-107.961-25.996-107.961-25.996-57.567 26.379-83.344 15.629-75.617-11.91-25.063-2.762-24.543-31.211-9.286-57.36 19.13-32.781 58.223-55.066 105-55.066h25.067c51.715 0 62.371-27.043 115.66-21.317a156 156 0 0 1 23.098 3.946c14.8-16.973 31.578-24.078 51.906-22.7 3.156.395 5.129 3.16 4.539 6.122l-4.934 22.894c-1.777 8.488.594 17.371 6.711 23.094 43.028 40.262 67.7 108.95 95.332 170.922 44.805 91.383 152.961 218.297 326.454 55.465 121.988-114.496 195.683-209.953 316.828-219.34-118.485-202.778-334.024-329.211-568.836-333.684m-286.04 331.445c-17.769 0-35.495 14.261-29.46 16.816 1.34.57 3.62.957 6.238 1.246 1.875 11.367 11.418 20.156 23.32 20.156s21.29-8.793 23.133-20.156c2.61-.289 4.887-.676 6.23-1.246 6.032-2.555-11.695-16.816-29.46-16.816m629.31 647.699c-14.403.351-27.337 9.504-31.653 23.492v.195c-21.516 69.082-63.356 158.293-63.356 158.293s-41.628 73.735-65.191 156.313a673 673 0 0 0 74.414-26.293 673.4 673.4 0 0 0 133.867-78.02c-6.468-12.87-13.742-26.004-22.406-39.566 0 0-13.816-61.383-40.266-128.29a746 746 0 0 0 11.25-33.554l.2-.789c.785-1.578 2.562-2.172 4.535-2.172h.195c13.816 2.172 28.422 4.344 45.395 6.317 5.132.394 10.464.789 15.793 1.382 6.511.59 12.828 1.184 19.343 1.578 1.559 62.098 28.512 121.446 35.328 135.618a673.8 673.8 0 0 0 123.907-167.043c-47.973 5.476-106.657 7.324-175.703.437-5.528-.59-11.055-1.183-16.579-1.578-15.199-1.777-29.41-3.75-42.832-5.922a35.5 35.5 0 0 0-6.242-.398m0 0"/>
</svg>
