<svg xmlns="http://www.w3.org/2000/svg" width="300" height="300">
    <path fill="#005A7D" d="M279.18 149.754c0 71.117-57.649 128.766-128.766 128.766S21.644 220.87 21.644 149.754s57.653-128.77 128.77-128.77S279.18 78.637 279.18 149.754m0 0"/>
    <path fill="#FFF" stroke="#FFF" stroke-miterlimit="10" stroke-width="5.5049196" d="M232.05 210.735c.333 13.136 7.552 31.84 7.552 31.84l-5.61 7.722c-7.652 2.516-10.058-2.117-11.976-5.117 0 0-6.239-17.695-11.16-30.137l-3.118-8.843Zm0 0"/>
    <path fill="#FFF" stroke="#FFF" stroke-miterlimit="10" stroke-width="5.5049196" d="M186.402 276.14c3.153-11.87 7.141-22.35 13.223-33.273 0 0 7.781-16.59 11.781-29.433.914-2.973 3.926-4.774 7.047-4.293 2.496.402 5.137.773 7.965 1.094 1.024.14 2.05.18 3.082.293 6.207.168 12.23.422 18.043.464 2.906.02 5.758-.007 8.55-.128 2.794-.118 7.575-.543 10.25-.875.77-.094 14.696-1.868 15.165-62.47-.969-60.515-17.953-58.683-18.64-58.683-24.774 0-38.68 18.535-62.575 40.957-32.258 30.278-52.371 6.68-60.7-10.312-5.14-11.524-9.726-24.297-17.726-31.781-1.14-1.07-1.578-2.715-1.25-4.297l.914-4.254c.141-.555-.25-1.07-.843-1.14-3.782-.247-6.899 1.07-9.653 4.222a29.5 29.5 0 0 0-4.297-.735c-9.906-1.07-11.89 3.965-21.503 3.965h-4.66c-8.7 0-15.97 4.145-19.528 10.239-2.836 4.863-2.934 10.152 1.727 10.664-1.434 5.12 3.355 7.12 14.062 2.214 0 0 8.414 4.836 20.074 4.836 6.301 0 8.18 1 10.493 11.094 5.574 24.555 27.597 64.926 72.113 64.926.472.664.914 1.316 1.36 1.906 7.562 10.715 9.874 24.258 5.503 36.555-3.523 9.945-8 17.578-8 17.578.14 1.36.14 2.68.14 4-.218 10.441-2.929 22.277-5.468 29.426"/>
    <path fill="#005A7D" d="M105.707 91.719c-.246.14-.68.18-1.164.238-.348 2.11-2.086 3.746-4.3 3.746-2.212 0-3.99-1.633-4.337-3.746-.484 0-.914-.14-1.164-.238-1.125-.469 2.172-3.125 5.477-3.125 3.304 0 6.597 2.648 5.476 3.125Zm0 0"/>
    <path fill="none" stroke="#FFF" stroke-linejoin="round" stroke-width="12.77125" d="M280.992 150c0 72.344-58.648 130.992-130.992 130.992S19.008 222.344 19.008 150 77.656 19.008 150 19.008 280.992 77.657 280.992 150Zm0 0"/>
    <path fill="none" stroke="#005A7D" stroke-linejoin="round" stroke-width="13.94467245" d="M293.027 150c0 78.992-64.035 143.028-143.027 143.028S6.973 228.992 6.973 150 71.008 6.973 150 6.973 293.027 71.008 293.027 150Zm0 0"/>
</svg>
