<svg xmlns="http://www.w3.org/2000/svg" width="1500" height="1500">
    <path fill="#005A7D" d="M1395.906 748.762c0 355.586-288.254 643.84-643.84 643.84-355.582 0-643.84-288.254-643.84-643.84 0-355.582 288.258-643.84 643.84-643.84 355.586 0 643.84 288.258 643.84 643.84m0 0"/>
    <path fill="none" stroke="#FFF" stroke-miterlimit="10" stroke-width="27.52449024" d="M1160.254 1056.382c1.664 65.692 37.75 159.196 37.75 159.196l-28.05 38.62c-38.25 12.571-50.282-10.59-59.872-25.59 0 0-31.203-88.48-55.797-150.687"/>
    <path fill="none" stroke="#FFF" stroke-miterlimit="10" stroke-width="27.52449024" d="M932.012 1380.703c15.773-59.352 35.703-111.754 66.11-166.364 0 0 38.901-82.941 58.905-147.172 4.575-14.863 19.633-23.855 35.23-21.472 12.485 2.011 25.688 3.886 39.825 5.48 5.133.696 10.27.903 15.41 1.457 31.047.856 61.168 2.114 90.219 2.332 14.527.106 28.785-.047 42.758-.64 13.972-.598 37.87-2.72 51.254-4.38 3.84-.476 73.48-9.335 75.824-312.34-4.86-302.593-89.774-293.425-93.211-293.425-123.86 0-193.406 92.676-312.863 204.793-161.297 151.387-261.856 33.395-303.508-51.566-25.7-57.618-48.633-121.48-88.637-158.91-5.687-5.34-7.887-13.583-6.242-21.473l4.578-21.285c.691-2.774-1.25-5.34-4.23-5.688-18.907-1.25-34.497 5.34-48.266 21.106-6.586-1.664-13.758-2.914-21.473-3.676-49.539-5.344-59.449 19.82-107.527 19.82h-23.3c-43.493 0-79.845 20.723-97.626 51.2-14.191 24.308-14.668 50.757 8.637 53.324-7.188 25.605 16.773 35.601 70.297 11.078 0 0 42.078 24.168 100.375 24.168 31.508 0 40.894 4.996 52.453 55.48 27.887 122.758 137.988 324.613 360.574 324.613 2.36 3.329 4.578 6.59 6.797 9.54 37.805 53.582 49.367 121.293 27.527 182.77-17.617 49.726-40.004 87.89-40.004 87.89.696 6.797.696 13.402.696 20.004-1.086 52.207-14.64 111.379-27.332 147.129"/>
    <path fill="#FFF" d="M528.543 458.602c-1.246.691-3.398.902-5.824 1.18-1.735 10.562-10.438 18.738-21.508 18.738-11.063 0-19.934-8.172-21.68-18.739-2.43 0-4.578-.695-5.828-1.18-5.617-2.359 10.871-15.632 27.39-15.632 16.52 0 33 13.254 27.387 15.633Zm0 0"/>
    <path fill="none" stroke="#FFF" stroke-linejoin="round" stroke-width="63.856" d="M1404.965 750c0 361.726-293.238 654.964-654.965 654.964S95.035 1111.726 95.035 750C95.035 388.273 388.273 95.034 750 95.034S1404.965 388.273 1404.965 750Zm0 0"/>
    <path fill="none" stroke="#005A7D" stroke-linejoin="round" stroke-width="69.72308928" d="M1465.14 750c0 394.96-320.179 715.136-715.14 715.136S34.863 1144.96 34.863 750 355.04 34.86 750 34.86s715.14 320.18 715.14 715.14Zm0 0"/>
</svg>
