<svg xmlns="http://www.w3.org/2000/svg" width="2500" height="2500">
    <path fill="#005A7D" d="M2326.512 1247.938c0 592.64-480.426 1073.066-1073.067 1073.066-592.636 0-1073.066-480.426-1073.066-1073.066 0-592.637 480.43-1073.067 1073.066-1073.067 592.64 0 1073.067 480.43 1073.067 1073.067m0 0"/>
    <path fill="#FFF" stroke="#FFF" stroke-miterlimit="10" stroke-width="10.776" d="M-640.69-1513.324c.65 25.72 14.78 62.327 14.78 62.327l-10.982 15.12c-14.976 4.922-19.687-4.146-23.44-10.019 0 0-12.216-34.64-21.845-58.994l-6.102-17.312Zm0 0" transform="translate(4661.212 8198.427)scale(4.25706)"/>
    <path fill="#FFF" stroke="#FFF" stroke-miterlimit="10" stroke-width="10.776" d="M-730.049-1385.29c6.175-23.236 13.98-43.751 25.884-65.132 0 0 15.23-32.472 23.06-57.618 1.793-5.819 7.688-9.34 13.794-8.407a331 331 0 0 0 15.591 2.146c2.01.271 4.022.352 6.033.57 12.156.335 23.948.828 35.322.913 5.687.04 11.269-.019 16.74-.25 5.47-.234 14.826-1.065 20.066-1.715 1.504-.187 28.769-3.656 29.686-122.284-1.903-118.466-35.148-114.877-36.492-114.877-48.492 0-75.72 36.282-122.489 80.177-63.15 59.27-102.518 13.075-118.826-20.188-10.06-22.559-19.04-47.561-34.701-62.215-2.227-2.09-3.088-5.317-2.444-8.406l1.793-8.334c.271-1.086-.49-2.091-1.657-2.227-7.402-.488-13.506 2.091-18.896 8.263-2.58-.651-5.387-1.14-8.407-1.439-19.395-2.09-23.274 7.76-42.097 7.76h-9.124c-17.027 0-31.257 8.114-38.22 20.044-5.555 9.518-5.742 19.873 3.381 20.878-2.813 10.025 6.568 13.939 27.522 4.337 0 0 16.474 9.463 39.298 9.463 12.335 0 16.01 1.954 20.536 21.72 10.918 48.06 54.023 127.089 141.167 127.089.923 1.303 1.792 2.58 2.661 3.734 14.8 20.978 19.327 47.487 10.777 71.554-6.896 19.469-15.661 34.411-15.661 34.411.271 2.661.271 5.247.271 7.832-.424 20.44-5.73 43.606-10.7 57.602" transform="translate(4661.212 8198.427)scale(4.25706)"/>
    <path fill="#005A7D" d="M880.906 764.332c-2.082 1.152-5.664 1.5-9.71 1.965-2.891 17.601-17.395 31.23-35.844 31.23-18.438 0-33.223-13.617-36.133-31.23-4.047 0-7.63-1.156-9.711-1.965-9.363-3.93 18.113-26.055 45.648-26.055 27.532 0 54.996 22.09 45.645 26.055Zm0 0"/>
    <path fill="none" stroke="#FFF" stroke-linejoin="round" stroke-width="25" d="M-544.885-1632.213c0 141.619-114.803 256.423-256.422 256.423s-256.422-114.804-256.422-256.423 114.803-256.422 256.422-256.422 256.422 114.803 256.422 256.422Zm0 0" transform="translate(4661.212 8198.427)scale(4.25706)"/>
    <path fill="none" stroke="#005A7D" stroke-linejoin="round" stroke-width="27.297" d="M-521.325-1632.213c0 154.63-125.353 279.982-279.982 279.982s-279.982-125.353-279.982-279.982 125.353-279.982 279.982-279.982 279.982 125.353 279.982 279.982Zm0 0" transform="translate(4661.212 8198.427)scale(4.25706)"/>
</svg>
