<svg xmlns="http://www.w3.org/2000/svg" width="1500" height="1500">
    <path fill="#FFF" d="M1395.906 748.762c0 355.586-288.254 643.84-643.84 643.84-355.582 0-643.84-288.254-643.84-643.84 0-355.582 288.258-643.84 643.84-643.84 355.586 0 643.84 288.258 643.84 643.84m0 0"/>
    <path fill="#005A7D" stroke="#005A7D" stroke-miterlimit="10" stroke-width="27.52449024" d="M1160.254 1053.676c1.664 65.695 37.75 159.195 37.75 159.195l-28.05 38.621c-38.25 12.574-50.286-10.59-59.872-25.586 0 0-31.203-88.484-55.797-150.687L1038.7 1031Zm0 0"/>
    <path fill="#005A7D" stroke="#005A7D" stroke-miterlimit="10" stroke-width="27.52449024" d="M932.012 1380.707c15.77-59.352 35.703-111.754 66.11-166.363 0 0 38.901-82.942 58.901-147.172 4.579-14.863 19.637-23.856 35.235-21.469 12.484 2.008 25.687 3.883 39.824 5.477 5.133.695 10.27.902 15.41 1.457 31.047.855 61.168 2.113 90.219 2.332 14.527.105 28.785-.047 42.758-.64 13.972-.599 37.87-2.72 51.254-4.38 3.84-.476 73.48-9.336 75.824-312.34-4.86-302.59-89.774-293.418-93.211-293.418-123.86 0-193.406 92.672-312.863 204.79-161.297 151.386-261.856 33.394-303.512-51.567-25.695-57.621-48.629-121.48-88.633-158.91-5.687-5.34-7.887-13.582-6.242-21.473l4.578-21.285c.691-2.773-1.25-5.34-4.23-5.687-18.907-1.25-34.497 5.34-48.266 21.105-6.59-1.664-13.758-2.914-21.473-3.676-49.539-5.34-59.449 19.82-107.527 19.82h-23.3c-43.493 0-79.845 20.723-97.626 51.2-14.191 24.308-14.668 50.758 8.633 53.324-7.184 25.605 16.777 35.602 70.3 11.078 0 0 42.079 24.168 100.376 24.168 31.508 0 40.894 4.996 52.453 55.477 27.887 122.757 137.988 324.613 360.574 324.613 2.36 3.332 4.578 6.59 6.797 9.539 37.805 53.582 49.367 121.293 27.527 182.77-17.617 49.726-40.004 87.89-40.004 87.89.696 6.797.696 13.399.696 20.004-1.086 52.203-14.64 111.379-27.332 147.125"/>
    <path fill="#FFF" d="M528.543 458.61c-1.246.69-3.398.902-5.824 1.18-1.735 10.562-10.438 18.737-21.508 18.737-11.063 0-19.934-8.172-21.68-18.738-2.43 0-4.578-.695-5.828-1.18-5.617-2.359 10.871-15.632 27.39-15.632 16.52 0 32.997 13.253 27.387 15.632Zm0 0"/>
    <path fill="none" stroke="#005A7D" stroke-linejoin="round" stroke-width="63.856" d="M1404.965 750c0 361.727-293.238 654.965-654.965 654.965S95.035 1111.727 95.035 750 388.273 95.035 750 95.035 1404.965 388.273 1404.965 750Zm0 0"/>
    <path fill="none" stroke="#FFF" stroke-linejoin="round" stroke-width="69.72308928" d="M1465.137 750c0 394.96-320.176 715.14-715.137 715.14S34.86 1144.96 34.86 750C34.86 355.039 355.038 34.863 750 34.863c394.96 0 715.137 320.176 715.137 715.137Zm0 0"/>
</svg>
