<svg xmlns="http://www.w3.org/2000/svg" width="1500" height="1500">
    <path fill="#0073A1" d="M1500 750c0 414.215-335.785 750-750 750S0 1164.215 0 750 335.785 0 750 0s750 335.785 750 750m0 0"/>
    <path fill="#0073A1" d="M1428.86 750c0 374.922-303.938 678.86-678.86 678.86-374.926 0-678.86-303.938-678.86-678.86S375.075 71.14 750 71.14c374.922 0 678.86 303.938 678.86 678.86m0 0"/>
    <path fill="#FFF" d="M759.832 68.906a682 682 0 0 0-284.336 56.703C130.22 276.105-27.684 678.008 122.813 1023.285c127.343 290.156 437.761 454.38 749.28 396.395 13.282-42.332 24.169-88.75 24.169-139.368 0-7.195-.2-14.39-.602-21.78 0 0 24.375-41.56 43.559-95.708 23.777-66.933 11.191-140.664-29.969-199.008-2.398-3.195-4.797-6.793-7.395-10.386-242.363 0-362.25-219.785-392.62-353.457-12.59-54.946-22.805-60.407-57.114-60.407-63.476 0-109.293-26.316-109.293-26.316-58.277 26.703-84.371 15.82-76.55-12.055-25.372-2.797-24.848-31.601-9.4-58.07 19.368-33.184 58.942-55.746 106.298-55.746h25.375c52.347 0 63.137-27.371 117.086-21.578 8.394.8 16.183 2.199 23.379 3.996 14.988-17.184 31.968-24.379 52.547-22.98 3.199.402 5.195 3.199 4.597 6.195l-4.996 23.18c-1.797 8.59.602 17.581 6.793 23.374 43.559 40.762 68.535 110.293 96.508 173.032 45.355 92.511 154.847 220.984 330.48 56.148 123.492-115.906 198.098-212.543 320.735-222.043-119.946-205.277-338.14-333.27-575.848-337.797m-289.57 335.532c-17.989 0-35.934 14.437-29.824 17.023 1.359.578 3.667.969 6.316 1.262 1.898 11.507 11.558 20.402 23.61 20.402 12.046 0 21.546-8.898 23.417-20.402 2.64-.293 4.95-.688 6.305-1.262 6.105-2.586-11.836-17.024-29.824-17.024m637.07 655.683c-14.582.356-27.672 9.617-32.043 23.781v.2c-21.777 69.93-64.137 160.242-64.137 160.242s-42.14 74.644-65.996 158.242a682 682 0 0 0 75.336-26.621 682 682 0 0 0 135.516-78.98c-6.547-13.032-13.91-26.325-22.684-40.051 0 0-13.984-62.141-40.762-129.875a752 752 0 0 0 11.391-33.97l.2-.796c.796-1.598 2.593-2.2 4.59-2.2h.202c13.985 2.2 28.77 4.395 45.953 6.395 5.196.399 10.59.797 15.985 1.399 6.594.597 12.988 1.199 19.582 1.597 1.582 62.868 28.863 122.946 35.765 137.29a682 682 0 0 0 125.434-169.102c-48.566 5.543-107.973 7.414-177.871.445-5.594-.601-11.188-1.199-16.781-1.597-15.387-1.801-29.774-3.797-43.36-5.997a36 36 0 0 0-6.32-.402m0 0"/>
</svg>
