<svg xmlns="http://www.w3.org/2000/svg" width="300" height="300">
    <path fill="#FFF" d="M279.18 149.754c0 71.117-57.649 128.766-128.766 128.766S21.644 220.87 21.644 149.754s57.653-128.77 128.77-128.77S279.18 78.637 279.18 149.754m0 0"/>
    <path fill="#005A7D" stroke="#005A7D" stroke-miterlimit="10" stroke-width="5.5049196" d="M232.05 210.734c.333 13.141 7.552 31.84 7.552 31.84l-5.61 7.723c-7.652 2.516-10.058-2.117-11.976-5.117 0 0-6.239-17.696-11.16-30.137l-3.118-8.844Zm0 0"/>
    <path fill="#005A7D" stroke="#005A7D" stroke-miterlimit="10" stroke-width="5.5049196" d="M186.402 276.14c3.153-11.87 7.141-22.35 13.223-33.273 0 0 7.781-16.586 11.781-29.433.914-2.973 3.926-4.77 7.047-4.293 2.496.402 5.137.777 7.965 1.093 1.024.141 2.05.184 3.082.293 6.207.172 12.23.422 18.043.465a171 171 0 0 0 8.55-.125c2.794-.12 7.575-.547 10.25-.879.77-.093 14.696-1.867 15.165-62.464-.969-60.52-17.953-58.684-18.64-58.684-24.774 0-38.68 18.531-62.575 40.957-32.258 30.277-52.371 6.68-60.7-10.312-5.14-11.528-9.726-24.297-17.726-31.786-1.14-1.066-1.578-2.714-1.25-4.293l.914-4.257c.141-.555-.25-1.067-.843-1.137-3.782-.25-6.899 1.066-9.653 4.223a29 29 0 0 0-4.297-.739c-9.906-1.066-11.89 3.965-21.503 3.965h-4.66c-8.7 0-15.97 4.145-19.528 10.242-2.836 4.86-2.934 10.149 1.727 10.664-1.434 5.121 3.355 7.121 14.062 2.215 0 0 8.414 4.832 20.074 4.832 6.301 0 8.18 1 10.493 11.098 5.574 24.55 27.597 64.922 72.113 64.922.472.668.914 1.316 1.36 1.906 7.562 10.719 9.874 24.262 5.503 36.555-3.523 9.945-8 17.578-8 17.578.14 1.36.14 2.68.14 4-.218 10.441-2.929 22.277-5.468 29.426"/>
    <path fill="#FFF" d="M105.707 91.723c-.246.136-.68.18-1.164.234-.348 2.113-2.086 3.75-4.3 3.75-2.212 0-3.99-1.637-4.337-3.75-.484 0-.914-.137-1.164-.234-1.125-.473 2.172-3.13 5.477-3.13 3.304 0 6.597 2.653 5.476 3.13Zm0 0"/>
    <path fill="none" stroke="#005A7D" stroke-linejoin="round" stroke-width="12.77125" d="M280.992 150c0 72.344-58.648 130.992-130.992 130.992S19.008 222.344 19.008 150 77.656 19.008 150 19.008 280.992 77.656 280.992 150Zm0 0"/>
    <path fill="none" stroke="#FFF" stroke-linejoin="round" stroke-width="13.94467245" d="M293.027 150c0 78.992-64.035 143.027-143.027 143.027S6.973 228.992 6.973 150 71.008 6.973 150 6.973 293.027 71.008 293.027 150Zm0 0"/>
</svg>
