<svg xmlns="http://www.w3.org/2000/svg" width="800" height="800" viewBox="0 0 800 800">
    <defs>
        <linearGradient id="a" x1="244.823" x2="1115.34" y1="-272.523" y2="-272.523" gradientTransform="rotate(66.45 15.984 -97.086)scale(.92006)" gradientUnits="userSpaceOnUse">
            <stop offset="0" stop-color="#0073a1"/>
            <stop offset="1" stop-color="#003555"/>
        </linearGradient>
    </defs>
    <path fill="#fff" d="M800 400c0 220.914-179.086 400-400 400S0 620.914 0 400 179.086 0 400 0s400 179.086 400 400m0 0"/>
    <path fill="url(#a)" d="M407.414.059a400.45 400.45 0 0 0-166.96 33.296C37.706 121.727-55.017 357.727 33.354 560.473c74.778 170.379 257.055 266.812 439.98 232.765 7.798-24.86 14.188-52.113 14.188-81.84 0-4.222-.117-8.445-.351-12.789 0 0 14.312-24.402 25.578-56.195 13.96-39.305 6.57-82.601-17.598-116.86-1.41-1.878-2.816-3.988-4.343-6.1-142.317 0-212.711-129.06-230.547-207.552-7.39-32.261-13.387-35.468-33.535-35.468-37.274 0-64.176-15.454-64.176-15.454-34.223 15.68-49.543 9.29-44.95-7.082-14.902-1.64-14.593-18.554-5.519-34.097 11.371-19.485 34.61-32.73 62.414-32.73h14.902c30.739 0 37.075-16.075 68.754-12.673a93 93 0 0 1 13.727 2.344c8.8-10.09 18.773-14.312 30.855-13.492 1.88.234 3.051 1.879 2.7 3.637L302.5 180.5c-1.055 5.043.352 10.324 3.988 13.727 25.578 23.933 40.246 64.761 56.668 101.601 26.637 54.324 90.93 129.766 194.059 32.969 72.515-68.059 116.324-124.805 188.34-130.383C675.12 77.875 546.996 2.72 407.415.06M237.38 197.082c-10.563 0-21.102 8.48-17.512 10 .797.336 2.153.57 3.707.742 1.117 6.754 6.79 11.98 13.863 11.98 7.075 0 12.653-5.226 13.75-11.984 1.555-.172 2.907-.402 3.704-.738 3.586-1.52-6.95-10-17.512-10m374.086 385.02c-8.563.21-16.246 5.652-18.813 13.964v.118c-12.789 41.066-37.664 94.097-37.664 94.097s-24.742 43.832-38.75 92.918a400 400 0 0 0 44.235-15.629 400.5 400.5 0 0 0 79.574-46.379c-3.844-7.652-8.168-15.457-13.317-23.52 0 0-8.214-36.487-23.937-76.26a439 439 0 0 0 6.687-19.946l.118-.469c.468-.937 1.523-1.293 2.699-1.293h.117c8.211 1.293 16.895 2.582 26.98 3.754 3.055.238 6.223.473 9.391.824 3.871.352 7.625.703 11.496.938.93 36.914 16.95 72.191 21.004 80.617a400.4 400.4 0 0 0 73.653-99.297c-28.516 3.254-63.403 4.352-104.446.262-3.285-.356-6.57-.707-9.855-.942-9.035-1.054-17.48-2.226-25.461-3.52a21.7 21.7 0 0 0-3.711-.237m0 0"/>
</svg>
