<svg xmlns="http://www.w3.org/2000/svg" width="64" height="64">
    <path fill="#FFF" d="M64 32c0 17.672-14.328 32-32 32S0 49.672 0 32 14.328 0 32 0s32 14.328 32 32m0 0"/>
    <path d="M32.754 3.293a28.8 28.8 0 0 0-11.984 2.39C6.215 12.028-.437 28.966 5.902 43.52c5.368 12.226 18.453 19.148 31.582 16.707.559-1.786 1.02-3.743 1.02-5.875 0-.305-.012-.606-.027-.918 0 0 1.027-1.75 1.836-4.036 1.003-2.82.472-5.925-1.262-8.386-.102-.137-.203-.285-.313-.438-10.215 0-15.265-9.261-16.547-14.898-.53-2.317-.96-2.543-2.406-2.543-2.676 0-4.61-1.11-4.61-1.11-2.452 1.125-3.554.665-3.226-.511-1.066-.117-1.047-1.328-.394-2.446.816-1.398 2.484-2.351 4.48-2.351h1.07c2.207 0 2.66-1.152 4.934-.906.352.03.684.09.984.168.633-.727 1.348-1.028 2.215-.97a.218.218 0 0 1 .196.263l-.211.976c-.075.363.023.738.285.984 1.836 1.72 2.89 4.649 4.066 7.293 1.914 3.899 6.528 9.313 13.93 2.368 5.207-4.887 8.351-8.957 13.52-9.36a28.74 28.74 0 0 0-24.27-14.238M20.547 17.438c-.758 0-1.512.605-1.258.714.059.024.156.043.27.055.078.484.484.86.992.86s.91-.376.988-.86c.113-.012.207-.031.266-.055.258-.109-.5-.715-1.258-.715M47.398 45.07a1.445 1.445 0 0 0-1.351 1.004v.008c-.918 2.945-2.703 6.754-2.703 6.754s-1.774 3.144-2.782 6.668a30 30 0 0 0 3.176-1.121 28.8 28.8 0 0 0 5.711-3.328 18 18 0 0 0-.953-1.688s-.59-2.62-1.719-5.476q.258-.71.48-1.43l.009-.035c.03-.067.109-.09.191-.09h.008c.59.09 1.215.184 1.937.266.22.02.45.035.676.062.277.023.547.05.824.066.067 2.649 1.22 5.18 1.508 5.786a28.7 28.7 0 0 0 5.285-7.125c-2.047.23-4.55.312-7.496.015a43 43 0 0 0-.707-.066 38 38 0 0 1-1.828-.254 2 2 0 0 0-.266-.016"/>
</svg>
