<svg xmlns="http://www.w3.org/2000/svg" width="800" height="800">
    <path fill="#FFF" d="M800 400c0 220.918-179.082 400-400 400S0 620.918 0 400 179.082 0 400 0s400 179.082 400 400m0 0"/>
    <path d="M409.406 41.176a359.16 359.16 0 0 0-149.793 29.879C77.711 150.332-5.48 362.07 73.801 543.98c67.094 152.864 230.625 239.387 394.75 208.832 7-22.304 12.73-46.757 12.73-73.425 0-3.782-.105-7.574-.312-11.469 0 0 12.844-21.898 22.949-50.426 12.52-35.262 5.894-74.11-15.793-104.847-1.262-1.688-2.52-3.575-3.895-5.465-127.687 0-190.843-115.793-206.843-186.223-6.637-28.945-12.012-31.82-30.098-31.82-33.437 0-57.57-13.867-57.57-13.867-30.707 14.074-44.457 8.335-40.332-6.352-13.367-1.469-13.094-16.645-4.95-30.594 10.196-17.48 31.055-29.367 56-29.367h13.364c27.586 0 33.262-14.426 61.691-11.363a83 83 0 0 1 12.309 2.105c7.894-9.054 16.844-12.847 27.691-12.113 1.684.215 2.738 1.687 2.414 3.266l-2.625 12.21c-.949 4.532.313 9.262 3.57 12.313 22.95 21.477 36.118 58.117 50.848 91.168 23.895 48.73 81.582 116.414 174.114 29.57 65.062-61.058 104.363-111.965 168.968-116.976C649.594 110.988 534.648 43.563 409.406 41.176M256.852 217.949c-9.477 0-18.934 7.602-15.715 8.969.718.3 1.933.508 3.332.656 1 6.059 6.082 10.75 12.437 10.75 6.344 0 11.356-4.691 12.332-10.75 1.395-.148 2.606-.355 3.325-.656 3.218-1.367-6.239-8.973-15.708-8.973M592.48 563.387c-7.68.187-14.574 5.062-16.875 12.531v.102c-11.48 36.843-33.793 84.418-33.793 84.418s-22.199 39.324-34.773 83.375a359 359 0 0 0 39.688-14.032 359 359 0 0 0 71.398-41.605 232 232 0 0 0-11.945-21.106s-7.367-32.738-21.48-68.425a389 389 0 0 0 6-17.891l.112-.422c.418-.84 1.364-1.156 2.418-1.156h.102c7.367 1.156 15.16 2.316 24.211 3.367 2.738.207 5.582.426 8.426.738 3.468.313 6.832.637 10.312.844.832 33.113 15.211 64.77 18.844 72.324a359.5 359.5 0 0 0 66.082-89.082c-25.582 2.914-56.883 3.906-93.707.227-2.95-.313-5.895-.625-8.844-.844-8.105-.95-15.687-2-22.843-3.156a18.7 18.7 0 0 0-3.333-.207"/>
</svg>
