<svg xmlns="http://www.w3.org/2000/svg" width="1500" height="1500">
    <path fill="#005A7D" d="M1395.906 748.762c0 355.586-288.254 643.84-643.84 643.84-355.582 0-643.84-288.254-643.84-643.84 0-355.582 288.258-643.84 643.84-643.84 355.586 0 643.84 288.258 643.84 643.84m0 0"/>
    <path fill="#E9E9E9" stroke="#E9E9E9" stroke-miterlimit="10" stroke-width="27.52449024" d="M1160.254 1053.672c1.664 65.691 37.75 159.195 37.75 159.195l-28.05 38.621c-38.25 12.57-50.286-10.59-59.872-25.59 0 0-31.203-88.48-55.797-150.687l-15.586-44.219Zm0 0"/>
    <path fill="#E9E9E9" stroke="#E9E9E9" stroke-miterlimit="10" stroke-width="27.52449024" d="M932.012 1380.7c15.77-59.352 35.703-111.75 66.11-166.364 0 0 38.901-82.942 58.901-147.168 4.579-14.863 19.637-23.86 35.235-21.473 12.484 2.012 25.687 3.883 39.824 5.477 5.133.695 10.27.902 15.41 1.457 31.047.855 61.168 2.117 90.219 2.332 14.527.105 28.785-.047 42.758-.64 13.972-.595 37.87-2.72 51.254-4.38 3.84-.476 73.48-9.336 75.824-312.34-4.86-302.59-89.774-293.421-93.211-293.421-123.86 0-193.406 92.671-312.863 204.793-161.297 151.386-261.856 33.394-303.512-51.567-25.695-57.62-48.629-121.484-88.633-158.914-5.687-5.34-7.887-13.578-6.242-21.473l4.578-21.285c.691-2.773-1.25-5.34-4.23-5.687-18.907-1.246-34.497 5.34-48.266 21.105-6.59-1.664-13.758-2.914-21.473-3.676-49.539-5.34-59.449 19.82-107.527 19.82h-23.3c-43.493 0-79.845 20.727-97.626 51.2-14.191 24.309-14.668 50.762 8.633 53.328-7.184 25.606 16.777 35.598 70.3 11.074 0 0 42.079 24.172 100.376 24.172 31.508 0 40.894 4.992 52.453 55.477 27.887 122.758 137.988 324.617 360.574 324.617 2.36 3.328 4.578 6.586 6.797 9.535 37.805 53.582 49.367 121.293 27.527 182.77-17.617 49.726-40.004 87.894-40.004 87.894.696 6.797.696 13.399.696 20-1.086 52.207-14.64 111.38-27.332 147.13"/>
    <path fill="#005A7D" d="M528.543 458.598c-1.246.695-3.398.902-5.824 1.18-1.735 10.562-10.438 18.738-21.508 18.738-11.063 0-19.934-8.168-21.68-18.739-2.43 0-4.578-.695-5.828-1.18-5.617-2.355 10.871-15.632 27.39-15.632 16.52 0 32.997 13.254 27.387 15.633Zm0 0"/>
    <path fill="none" stroke="#E9E9E9" stroke-linejoin="round" stroke-width="63.856" d="M1404.965 750c0 361.726-293.238 654.965-654.965 654.965S95.035 1111.726 95.035 750 388.273 95.035 750 95.035 1404.965 388.273 1404.965 750Zm0 0"/>
    <path fill="none" stroke="#005A7D" stroke-linejoin="round" stroke-width="69.72308928" d="M1465.137 750c0 394.96-320.176 715.14-715.137 715.14S34.86 1144.96 34.86 750C34.86 355.039 355.038 34.86 750 34.86c394.96 0 715.137 320.179 715.137 715.14Zm0 0"/>
</svg>
