<svg xmlns="http://www.w3.org/2000/svg" width="800" height="800">
    <path fill="#FFF" d="M800 400c0 220.918-179.082 400-400 400S0 620.918 0 400 179.082 0 400 0s400 179.082 400 400m0 0"/>
    <path fill="#0073A1" d="M407.414.063A400.5 400.5 0 0 0 240.45 33.355C37.711 121.727-55.02 357.727 33.355 560.48c74.782 170.372 257.051 266.81 439.977 232.758 7.805-24.851 14.188-52.113 14.188-81.843 0-4.22-.114-8.45-.344-12.782 0 0 14.304-24.406 25.574-56.199 13.96-39.309 6.574-82.601-17.602-116.863-1.41-1.875-2.816-3.989-4.336-6.102-142.32 0-212.718-129.054-230.55-207.543-7.387-32.261-13.387-35.465-33.535-35.465-37.278 0-64.176-15.46-64.176-15.46-34.227 15.68-49.54 9.292-44.946-7.086-14.906-1.633-14.593-18.551-5.52-34.094 11.364-19.488 34.603-32.73 62.415-32.73h14.895c30.742 0 37.074-16.079 68.753-12.676a93 93 0 0 1 13.727 2.347c8.8-10.086 18.773-14.316 30.863-13.496 1.875.234 3.043 1.879 2.7 3.64L302.5 180.5c-1.05 5.043.352 10.324 3.992 13.73 25.57 23.926 40.238 64.758 56.664 101.606 26.637 54.32 90.926 129.758 194.063 32.965 72.508-68.063 116.324-124.813 188.332-130.387C675.113 77.875 547 2.72 407.418.063M237.375 197.082c-10.562 0-21.094 8.48-17.512 10 .801.332 2.157.563 3.703.742 1.118 6.762 6.797 11.977 13.868 11.977 7.074 0 12.656-5.215 13.75-11.977 1.55-.18 2.906-.41 3.707-.742 3.586-1.52-6.953-10-17.52-10m374.102 385.023c-8.563.211-16.25 5.649-18.825 13.97v.112c-12.78 41.067-37.652 94.094-37.652 94.094s-24.754 43.836-38.754 92.918a403 403 0 0 0 44.23-15.625 401.5 401.5 0 0 0 79.583-46.375 259 259 0 0 0-13.325-23.52s-8.207-36.491-23.937-76.273a450 450 0 0 0 6.691-19.933l.114-.47c.465-.948 1.53-1.292 2.695-1.292h.125c8.207 1.293 16.887 2.582 26.98 3.75 3.051.242 6.22.469 9.387.82 3.875.356 7.625.7 11.496.942.93 36.914 16.95 72.195 21 80.613a400.4 400.4 0 0 0 73.66-99.293c-28.523 3.25-63.406 4.355-104.449.262a260 260 0 0 0-9.855-.938q-12.77-1.484-25.457-3.52a21.4 21.4 0 0 0-3.707-.242"/>
</svg>
