<svg xmlns="http://www.w3.org/2000/svg" width="800" height="800">
    <path fill="#0073A1" d="M800 400c0 220.914-179.086 400-400 400S0 620.914 0 400 179.086 0 400 0s400 179.086 400 400m0 0"/>
    <path fill="#0073A1" d="M762.059 400c0 199.96-162.098 362.059-362.059 362.059C200.04 762.059 37.941 599.96 37.941 400 37.941 200.04 200.04 37.941 400 37.941c199.96 0 362.059 162.098 362.059 362.059m0 0"/>
    <path fill="#FFF" d="M405.242 36.75a363.7 363.7 0 0 0-151.644 30.242C69.449 147.258-14.766 361.605 65.5 545.75c67.914 154.754 233.473 242.336 399.617 211.414 7.082-22.578 12.887-47.336 12.887-74.332 0-3.836-.106-7.672-.317-11.617 0 0 13-22.164 23.231-51.043 12.68-35.695 5.965-75.02-15.984-106.137-1.282-1.703-2.559-3.62-3.946-5.539-129.261 0-193.199-117.219-209.398-188.512-6.711-29.304-12.16-32.214-30.461-32.214-33.852 0-58.29-14.036-58.29-14.036-31.077 14.243-44.995 8.438-40.823-6.43-13.532-1.491-13.254-16.855-5.012-30.972 10.328-17.695 31.434-29.73 56.687-29.73h13.536c27.918 0 33.675-14.598 62.445-11.508a84 84 0 0 1 12.469 2.133c7.992-9.165 17.05-13.004 28.027-12.258 1.703.215 2.77 1.707 2.45 3.304l-2.665 12.364c-.957 4.582.32 9.375 3.625 12.465 23.23 21.738 36.55 58.824 51.469 92.285 24.191 49.336 82.586 117.86 176.258 29.945 65.86-61.816 105.652-113.355 171.058-118.422C648.391 107.426 532.02 39.164 405.243 36.75M250.805 215.7c-9.594 0-19.164 7.698-15.907 9.081.727.305 1.957.516 3.372.672 1.011 6.137 6.164 10.879 12.59 10.879 6.425 0 11.492-4.746 12.488-10.883 1.41-.152 2.64-.363 3.363-.668 3.258-1.383-6.313-9.082-15.906-9.082m339.773 349.698c-7.777.188-14.758 5.13-17.09 12.684v.106c-11.617 37.296-34.207 85.464-34.207 85.464s-22.476 39.809-35.199 84.395a364 364 0 0 0 40.18-14.2 363.7 363.7 0 0 0 72.273-42.12c-3.488-6.95-7.418-14.043-12.094-21.364 0 0-7.46-33.14-21.742-69.265a397 397 0 0 0 6.074-18.118l.106-.425c.426-.852 1.387-1.172 2.45-1.172h.109c7.457 1.172 15.343 2.344 24.507 3.41 2.774.215 5.649.426 8.528.746 3.515.32 6.925.64 10.441.852.844 33.53 15.395 65.57 19.074 73.222a363.7 363.7 0 0 0 66.899-90.187c-25.899 2.957-57.586 3.953-94.864.238-2.984-.32-5.968-.64-8.949-.855a527 527 0 0 1-23.125-3.196 19.3 19.3 0 0 0-3.37-.215m0 0"/>
</svg>
