<svg xmlns="http://www.w3.org/2000/svg" width="800" height="800">
    <path fill="#005A7D" d="M744.484 399.34c0 189.644-153.738 343.383-343.382 343.383-189.645 0-343.38-153.739-343.38-343.383 0-189.645 153.735-343.38 343.38-343.38s343.382 153.735 343.382 343.38m0 0"/>
    <path fill="#FFF" stroke="#FFF" stroke-miterlimit="10" stroke-width="14.67971376" d="M618.8 561.957c.888 35.035 20.134 84.907 20.134 84.907l-14.957 20.597c-20.403 6.703-26.82-5.648-31.934-13.648 0 0-16.64-47.192-29.758-80.367l-8.312-23.582Zm0 0"/>
    <path fill="#FFF" stroke="#FFF" stroke-miterlimit="10" stroke-width="14.67971376" d="M497.074 736.375c8.41-31.656 19.04-59.601 35.258-88.726 0 0 20.746-44.239 31.414-78.492 2.442-7.926 10.473-12.727 18.793-11.454 6.656 1.075 13.7 2.07 21.238 2.922 2.735.371 5.477.48 8.22.778 16.558.457 32.62 1.129 48.116 1.242 7.746.058 15.352-.024 22.801-.34 7.453-.316 20.2-1.45 27.336-2.336 2.05-.254 39.191-4.98 40.441-166.582-2.59-161.383-47.878-156.492-49.71-156.492-66.059 0-103.153 49.426-166.864 109.222-86.023 80.743-139.656 17.813-161.87-27.5-13.704-30.73-25.938-64.792-47.27-84.753-3.035-2.848-4.207-7.243-3.332-11.454l2.441-11.351c.371-1.48-.664-2.848-2.254-3.031-10.086-.668-18.398 2.847-25.742 11.254-3.516-.887-7.34-1.555-11.453-1.961-26.422-2.848-31.707 10.57-57.348 10.57h-12.426c-23.199 0-42.582 11.055-52.066 27.309-7.57 12.964-7.824 27.07 4.606 28.44-3.833 13.657 8.945 18.985 37.492 5.907 0 0 22.441 12.89 53.53 12.89 16.806 0 21.813 2.665 27.977 29.587 14.875 65.472 73.594 173.129 192.305 173.129 1.258 1.777 2.442 3.515 3.625 5.086 20.164 28.578 26.332 64.69 14.684 97.48-9.395 26.52-21.336 46.875-21.336 46.875.37 3.625.37 7.145.37 10.668-.581 27.844-7.808 59.402-14.577 78.469"/>
    <path fill="#005A7D" d="M281.89 244.586c-.667.371-1.812.48-3.109.629-.922 5.633-5.566 9.996-11.469 9.996-5.898 0-10.628-4.36-11.562-9.996-1.297 0-2.441-.371-3.11-.63-2.995-1.257 5.798-8.335 14.61-8.335 8.809 0 17.598 7.066 14.605 8.336Zm0 0"/>
    <path fill="none" stroke="#FFF" stroke-linejoin="round" stroke-width="34.0565" d="M749.313 400c0 192.922-156.391 349.313-349.313 349.313S50.688 592.923 50.688 400c0-192.922 156.39-349.312 349.312-349.312S749.313 207.078 749.313 400Zm0 0"/>
    <path fill="none" stroke="#005A7D" stroke-linejoin="round" stroke-width="37.18561122" d="M781.406 400c0 210.645-170.761 381.406-381.406 381.406-210.644 0-381.406-170.761-381.406-381.406C18.594 189.356 189.356 18.594 400 18.594c210.645 0 381.406 170.762 381.406 381.406Zm0 0"/>
</svg>
