<svg xmlns="http://www.w3.org/2000/svg" width="300" height="300">
    <path fill="#0073A1" d="M300 150c0 82.844-67.156 150-150 150S0 232.844 0 150 67.156 0 150 0s150 67.156 150 150m0 0"/>
    <path fill="#0073A1" d="M285.773 150c0 74.984-60.789 135.773-135.773 135.773S14.227 224.984 14.227 150 75.016 14.227 150 14.227 285.773 75.016 285.773 150m0 0"/>
    <path fill="#FFF" d="M151.965 13.781a136.4 136.4 0 0 0-56.867 11.34C26.043 55.223-5.535 135.601 24.563 204.656c25.468 58.031 87.55 90.875 149.855 79.282 2.656-8.47 4.836-17.75 4.836-27.875 0-1.438-.043-2.88-.121-4.356 0 0 4.875-8.312 8.71-19.14 4.755-13.387 2.239-28.133-5.991-39.805-.48-.637-.961-1.356-1.48-2.075-48.474 0-72.45-43.957-78.524-70.69-2.52-10.993-4.563-12.083-11.422-12.083-12.696 0-21.86-5.266-21.86-5.266-11.656 5.344-16.875 3.165-15.312-2.41-5.074-.558-4.969-6.32-1.879-11.613 3.875-6.637 11.79-11.148 21.262-11.148h5.074c10.469 0 12.625-5.477 23.418-4.317a32 32 0 0 1 4.676.8c2.996-3.437 6.39-4.878 10.507-4.597.641.082 1.04.64.918 1.239l-.996 4.636c-.359 1.719.118 3.516 1.356 4.676 8.715 8.152 13.707 22.059 19.305 34.606 9.07 18.503 30.968 44.199 66.093 11.23 24.7-23.184 39.621-42.508 64.149-44.41-23.989-41.055-67.63-66.652-115.172-67.559M94.05 80.887c-3.598 0-7.184 2.886-5.965 3.406.273.113.734.191 1.266.25.378 2.305 2.312 4.082 4.722 4.082 2.406 0 4.309-1.781 4.684-4.082.527-.059.988-.137 1.258-.25 1.222-.52-2.368-3.406-5.965-3.406m127.414 131.136c-2.914.07-5.531 1.926-6.406 4.758v.04c-4.356 13.984-12.829 32.046-12.829 32.046s-8.43 14.93-13.199 31.649a136 136 0 0 0 15.067-5.325 136.4 136.4 0 0 0 27.105-15.793 89 89 0 0 0-4.539-8.011s-2.797-12.43-8.152-25.977c.84-2.316 1.597-4.594 2.277-6.793l.043-.16c.156-.316.516-.437.918-.437h.04c2.796.437 5.753.878 9.19 1.277 1.04.082 2.118.16 3.196.281 1.32.117 2.597.238 3.918.32.316 12.57 5.773 24.586 7.152 27.457a136.3 136.3 0 0 0 25.086-33.82c-9.71 1.11-21.594 1.48-35.574.09a89 89 0 0 0-3.356-.32 202 202 0 0 1-8.672-1.2 7.3 7.3 0 0 0-1.265-.082m0 0"/>
</svg>
