<svg xmlns="http://www.w3.org/2000/svg" width="2500" height="2500.001">
    <path fill="#0073A1" d="M2500 1250c0 690.355-559.645 1250-1250 1250S0 1940.355 0 1250 559.645 0 1250 0s1250 559.645 1250 1250m0 0"/>
    <path fill="#0073A1" d="M2381.434 1250c0 624.875-506.563 1131.434-1131.434 1131.434-624.875 0-1131.434-506.559-1131.434-1131.434 0-624.871 506.559-1131.434 1131.434-1131.434 624.871 0 1131.434 506.563 1131.434 1131.434m0 0"/>
    <path fill="#FFF" d="M1266.383 114.848a1136.6 1136.6 0 0 0-473.89 94.504c-575.462 250.824-838.63 920.66-587.805 1496.12 212.238 483.598 729.601 757.301 1248.804 660.665 22.13-70.559 40.274-147.922 40.274-232.285 0-11.989-.329-23.98-1-36.301 0 0 40.629-69.262 72.601-159.508 39.625-111.559 18.649-234.441-49.953-331.68-3.996-5.328-7.992-11.32-12.32-17.316-403.942 0-603.75-366.309-654.371-589.09-20.98-91.578-38.004-100.68-95.188-100.68-105.793 0-182.156-43.863-182.156-43.863-97.129 44.508-140.617 26.371-127.582-20.09-42.29-4.66-41.414-52.664-15.664-96.781 32.273-55.309 98.234-92.91 177.156-92.91h42.293c87.25 0 105.23-45.621 195.145-35.965a263.6 263.6 0 0 1 38.968 6.66c24.977-28.637 53.282-40.629 87.578-38.297 5.329.664 8.657 5.332 7.66 10.324l-8.324 38.63c-2.996 14.32 1 29.304 11.32 38.96 72.594 67.934 114.223 183.82 160.844 288.387 75.598 154.18 258.082 368.309 550.801 93.574 205.82-193.172 330.164-354.234 534.559-370.066-199.91-342.13-563.567-555.453-959.75-562.992M783.77 674.058c-29.98 0-59.887 24.063-49.707 28.38 2.265.96 6.113 1.613 10.527 2.101 3.164 19.176 19.265 34.004 39.347 34.004 20.079 0 35.915-14.832 39.028-34.008 4.406-.488 8.25-1.14 10.512-2.097 10.18-4.317-19.73-28.38-49.707-28.38m1061.785 1092.81c-24.305.589-46.121 16.03-53.407 39.632v.336c-36.296 116.55-106.898 267.07-106.898 267.07s-70.23 124.407-109.988 263.735a1137 1137 0 0 0 125.554-44.364 1136.8 1136.8 0 0 0 225.864-131.632c-10.914-21.723-23.184-43.88-37.805-66.758 0 0-23.312-103.567-67.937-216.453a1253 1253 0 0 0 18.984-56.614l.328-1.332c1.328-2.664 4.324-3.664 7.656-3.664h.332c23.313 3.664 47.953 7.324 76.59 10.656 8.664.665 17.652 1.332 26.645 2.332 10.988.997 21.648 1.997 32.636 2.665 2.633 104.773 48.106 204.906 59.61 228.812a1136.7 1136.7 0 0 0 209.054-281.836c-80.941 9.242-179.953 12.36-296.449.742-9.328-1-18.648-1.996-27.972-2.664-25.641-3-49.622-6.328-72.266-9.988a59.6 59.6 0 0 0-10.531-.676m0 0"/>
</svg>
