<svg xmlns="http://www.w3.org/2000/svg" width="64" height="64">
    <path fill="#0073A1" d="M64 32c0 17.672-14.328 32-32 32S0 49.672 0 32 14.328 0 32 0s32 14.328 32 32m0 0"/>
    <path fill="#0073A1" d="M60.965 32c0 15.996-12.969 28.965-28.965 28.965S3.035 47.996 3.035 32 16.004 3.035 32 3.035 60.965 16.004 60.965 32m0 0"/>
    <path fill="#FFF" d="M32.418 2.941A29.05 29.05 0 0 0 20.289 5.36C5.555 11.781-1.18 28.93 5.24 43.66c5.433 12.38 18.679 19.387 31.972 16.914.566-1.808 1.031-3.789 1.031-5.949 0-.305-.012-.613-.027-.926 0 0 1.039-1.773 1.86-4.086 1.01-2.855.476-6-1.282-8.492-.102-.133-.203-.289-.313-.441-10.343 0-15.457-9.38-16.753-15.082-.536-2.344-.973-2.575-2.438-2.575-2.707 0-4.66-1.125-4.66-1.125-2.488 1.141-3.602.676-3.27-.515-1.082-.117-1.058-1.348-.398-2.477.824-1.414 2.516-2.379 4.535-2.379h1.082c2.235 0 2.695-1.168 4.996-.918.36.032.692.094.996.168.64-.734 1.364-1.039 2.242-.98.137.02.223.137.196.265l-.211.989c-.078.367.023.75.289.996 1.86 1.742 2.926 4.707 4.117 7.383 1.938 3.949 6.61 9.43 14.102 2.398 5.27-4.945 8.453-9.07 13.683-9.476a29.09 29.09 0 0 0-24.57-14.41M20.066 17.258c-.77 0-1.535.613-1.273.722a1 1 0 0 0 .27.055c.078.492.492.871 1.007.871.512 0 .918-.379.996-.87a1 1 0 0 0 .27-.056c.262-.109-.504-.722-1.27-.722m27.18 27.972c-.621.016-1.18.41-1.367 1.016v.008c-.93 2.984-2.738 6.84-2.738 6.84s-1.797 3.183-2.813 6.75a29 29 0 0 0 3.211-1.137 29 29 0 0 0 5.785-3.367 19 19 0 0 0-.969-1.711s-.597-2.652-1.738-5.543q.269-.74.485-1.45l.007-.03c.036-.07.114-.094.196-.094h.011c.594.093 1.227.187 1.961.273.22.016.45.031.68.059.281.023.555.05.836.066.066 2.684 1.23 5.246 1.527 5.86a29.2 29.2 0 0 0 5.352-7.215c-2.074.234-4.61.316-7.59.02q-.357-.042-.715-.071a39 39 0 0 1-1.851-.254c-.09-.016-.18-.02-.27-.02m0 0"/>
</svg>
