<svg xmlns="http://www.w3.org/2000/svg" width="2500" height="2500">
    <path fill="#FFF" d="M2326.512 1247.938c0 592.64-480.426 1073.066-1073.067 1073.066-592.636 0-1073.066-480.426-1073.066-1073.066 0-592.637 480.43-1073.067 1073.066-1073.067 592.64 0 1073.067 480.43 1073.067 1073.067m0 0"/>
    <path fill="#005A7D" stroke="#005A7D" stroke-miterlimit="10" stroke-width="10.776" d="M-640.69-809.53c.65 25.718 14.78 62.325 14.78 62.325l-10.982 15.12c-14.976 4.923-19.687-4.145-23.44-10.017 0 0-12.216-34.642-21.845-58.995l-6.102-17.312Zm0 0" transform="translate(4661.212 5202.348)scale(4.25706)"/>
    <path fill="#005A7D" stroke="#005A7D" stroke-miterlimit="10" stroke-width="10.776" d="M-730.049-681.497c6.175-23.236 13.98-43.752 25.884-65.131 0 0 15.23-32.472 23.06-57.619 1.793-5.818 7.688-9.34 13.794-8.406a330 330 0 0 0 15.591 2.144c2.01.272 4.022.354 6.033.571 12.156.335 23.948.828 35.322.912 5.687.042 11.269-.017 16.74-.25s14.826-1.065 20.066-1.714c1.504-.187 28.769-3.655 29.686-122.283-1.903-118.465-35.148-114.876-36.492-114.876-48.492 0-75.72 36.282-122.489 80.177-63.15 59.269-102.518 13.074-118.826-20.188-10.06-22.56-19.04-47.56-34.701-62.216-2.227-2.09-3.088-5.316-2.444-8.406l1.793-8.333c.271-1.086-.49-2.09-1.657-2.227-7.402-.489-13.506 2.09-18.896 8.263-2.58-.652-5.387-1.14-8.407-1.44-19.395-2.09-23.274 7.76-42.097 7.76h-9.124c-17.027 0-31.257 8.114-38.22 20.046-5.555 9.516-5.742 19.872 3.381 20.877-2.813 10.025 6.568 13.938 27.522 4.336 0 0 16.474 9.463 39.298 9.463 12.335 0 16.01 1.955 20.536 21.72 10.918 48.06 54.023 127.088 141.167 127.088.923 1.303 1.792 2.58 2.661 3.733 14.8 20.98 19.327 47.487 10.777 71.556-6.896 19.468-15.661 34.41-15.661 34.41.271 2.662.271 5.246.271 7.831-.424 20.44-5.73 43.606-10.7 57.601" transform="translate(4661.212 5202.348)scale(4.25706)"/>
    <path fill="#FFF" d="M880.906 764.348c-2.082 1.156-5.664 1.504-9.71 1.965-2.891 17.605-17.395 31.234-35.844 31.234-18.438 0-33.223-13.617-36.133-31.235-4.047 0-7.63-1.156-9.711-1.964-9.363-3.93 18.113-26.055 45.648-26.055 27.532 0 54.996 22.09 45.645 26.055Zm0 0"/>
    <path fill="none" stroke="#005A7D" stroke-linejoin="round" stroke-width="25" d="M-544.885-928.422C-544.885-786.803-659.688-672-801.307-672s-256.422-114.803-256.422-256.422 114.803-256.423 256.422-256.423 256.422 114.804 256.422 256.423Zm0 0" transform="translate(4661.212 5202.348)scale(4.25706)"/>
    <path fill="none" stroke="#FFF" stroke-linejoin="round" stroke-width="27.297" d="M-521.325-928.422c0 154.63-125.353 279.982-279.982 279.982s-279.982-125.353-279.982-279.982 125.353-279.982 279.982-279.982 279.982 125.353 279.982 279.982Zm0 0" transform="translate(4661.212 5202.348)scale(4.25706)"/>
</svg>
