<svg xmlns="http://www.w3.org/2000/svg" width="2500" height="2500">
    <path fill="#FFF" d="M2500 1250c0 690.367-559.633 1250-1250 1250S0 1940.367 0 1250 559.633 0 1250 0s1250 559.633 1250 1250m0 0"/>
    <path d="M1279.39 128.676a1122.4 1122.4 0 0 0-468.097 93.367c-568.453 247.75-828.418 909.434-580.668 1477.89 209.668 477.7 720.707 748.083 1233.602 652.61 21.875-69.703 39.773-146.125 39.773-229.461 0-11.816-.324-23.664-.977-35.84 0 0 40.145-68.426 71.72-157.582 39.124-110.195 18.417-231.586-49.352-327.644-3.942-5.274-7.875-11.164-12.176-17.082-399.024 0-596.383-361.852-646.383-581.942-20.742-90.457-37.531-99.441-94.047-99.441-104.492 0-179.918-43.336-179.918-43.336-95.957 43.984-138.926 26.05-126.035-19.848-41.766-4.594-40.914-52.015-15.465-95.61 31.867-54.624 97.043-91.765 175-91.765h41.766c86.199 0 103.933-45.082 192.777-35.508a257.6 257.6 0 0 1 38.473 6.575c24.668-28.293 52.633-40.141 86.527-37.86 5.266.684 8.555 5.278 7.547 10.219l-8.207 38.148c-2.957 14.168.984 28.942 11.168 38.485 71.715 67.117 112.855 181.61 158.89 284.89 74.669 152.286 254.942 363.801 544.11 92.418 203.316-190.816 326.133-349.902 528.023-365.558-197.457-337.961-556.668-548.668-948.05-556.125M802.668 681.09c-29.617 0-59.176 23.762-49.117 28.027 2.25.942 6.05 1.59 10.414 2.051 3.125 18.941 19.012 33.59 38.867 33.59 19.828 0 35.484-14.649 38.543-33.59 4.36-.461 8.133-1.11 10.383-2.05 10.058-4.266-19.5-28.036-49.082-28.036m1048.824 1079.5c-24 .586-45.543 15.816-52.734 39.16v.324c-35.875 115.133-105.598 263.801-105.598 263.801s-69.375 122.883-108.668 260.551a1126 1126 0 0 0 124.023-43.852 1122.3 1122.3 0 0 0 223.118-130.015 724 724 0 0 0-37.332-65.95s-23.016-102.308-67.125-213.835a1202 1202 0 0 0 18.75-55.914l.359-1.309c1.297-2.633 4.258-3.617 7.547-3.617h.328c23.016 3.617 47.367 7.234 75.648 10.515 8.559.649 17.45 1.332 26.332 2.309 10.844.984 21.36 1.992 32.227 2.64 2.61 103.485 47.535 202.41 58.89 226.008a1123.2 1123.2 0 0 0 206.508-278.382c-79.949 9.109-177.765 12.21-292.832.718-9.214-.984-18.425-1.96-27.64-2.644-25.324-2.957-49.028-6.25-71.383-9.856a58.5 58.5 0 0 0-10.418-.652"/>
</svg>
