<svg xmlns="http://www.w3.org/2000/svg" width="1500" height="1500">
    <path fill="#E9E9E9" d="M1395.906 748.762c0 355.586-288.254 643.84-643.84 643.84-355.582 0-643.84-288.254-643.84-643.84 0-355.582 288.258-643.84 643.84-643.84 355.586 0 643.84 288.258 643.84 643.84m0 0"/>
    <path fill="none" stroke="#005A7D" stroke-miterlimit="10" stroke-width="27.52449024" d="M1160.254 1053.672c1.664 65.691 37.75 159.195 37.75 159.195l-28.047 38.621c-38.254 12.57-50.285-10.59-59.875-25.59 0 0-31.2-88.48-55.793-150.687l-15.586-44.22Zm0 0"/>
    <path fill="#E9E9E9" stroke="#005A7D" stroke-miterlimit="10" stroke-width="27.52449024" d="M932.016 1380.699c15.77-59.352 35.703-111.75 66.109-166.363 0 0 38.902-82.942 58.902-147.168 4.578-14.864 19.633-23.86 35.23-21.473 12.485 2.012 25.692 3.883 39.825 5.477 5.133.695 10.273.902 15.41 1.457 31.047.855 61.172 2.117 90.223 2.332 14.523.105 28.781-.047 42.754-.64 13.972-.595 37.87-2.72 51.254-4.38 3.843-.476 73.484-9.336 75.828-312.34-4.86-302.59-89.778-293.422-93.211-293.422-123.86 0-193.41 92.672-312.867 204.793-161.297 151.387-261.852 33.395-303.508-51.566-25.696-57.621-48.633-121.484-88.637-158.914-5.684-5.34-7.883-13.578-6.242-21.473l4.578-21.285c.695-2.773-1.246-5.34-4.23-5.687-18.907-1.247-34.497 5.34-48.262 21.105-6.59-1.664-13.762-2.914-21.473-3.676-49.539-5.34-59.453 19.82-107.527 19.82h-23.305c-43.492 0-79.84 20.727-97.621 51.2-14.191 24.308-14.672 50.761 8.633 53.328-7.184 25.605 16.777 35.598 70.297 11.074 0 0 42.078 24.172 100.379 24.172 31.507 0 40.89 4.992 52.453 55.477 27.886 122.757 137.988 324.617 360.574 324.617 2.355 3.328 4.578 6.586 6.797 9.535 37.805 53.582 49.367 121.293 27.527 182.77-17.617 49.726-40.004 87.894-40.004 87.894.692 6.797.692 13.398.692 20-1.086 52.207-14.637 111.379-27.328 147.129"/>
    <path fill="#005A7D" d="M528.547 458.598c-1.25.695-3.399.902-5.828 1.18-1.735 10.562-10.438 18.738-21.504 18.738-11.063 0-19.934-8.168-21.684-18.739-2.426 0-4.574-.695-5.824-1.18-5.617-2.355 10.867-15.632 27.387-15.632s33 13.254 27.39 15.633Zm0 0"/>
    <path fill="none" stroke="#005A7D" stroke-linejoin="round" stroke-width="63.856" d="M1404.965 750c0 361.726-293.238 654.965-654.965 654.965S95.035 1111.726 95.035 750 388.273 95.035 750 95.035 1404.965 388.273 1404.965 750Zm0 0"/>
    <path fill="none" stroke="#E9E9E9" stroke-linejoin="round" stroke-width="69.72308928" d="M1465.14 750c0 394.96-320.179 715.137-715.14 715.137S34.863 1144.96 34.863 750 355.04 34.859 750 34.859s715.14 320.18 715.14 715.14Zm0 0"/>
</svg>
