<svg xmlns="http://www.w3.org/2000/svg" width="2500" height="2500">
    <defs>
        <linearGradient id="a" x1="244.823" x2="1115.34" y1="-272.523" y2="-272.523" gradientTransform="rotate(66.449 15.278 -103.289)scale(2.57961)" gradientUnits="userSpaceOnUse">
            <stop offset="0" stop-color="#0073A1"/>
            <stop offset="1" stop-color="#003555"/>
        </linearGradient>
    </defs>
    <path fill="#FFF" d="M2500 1250c0 690.355-559.645 1250-1250 1250S0 1940.355 0 1250 559.645 0 1250 0s1250 559.645 1250 1250m0 0"/>
    <path fill="url(#a)" d="M1279.398 128.668a1122.8 1122.8 0 0 0-468.12 93.355c-568.45 247.77-828.415 909.45-580.645 1477.903 209.652 477.703 720.715 748.078 1233.59 652.617 21.863-69.695 39.785-146.117 39.785-229.453 0-11.844-.328-23.688-.985-35.86 0 0 40.13-68.418 71.711-157.566 39.145-110.2 18.422-231.586-49.343-327.64-3.946-5.262-7.895-11.184-12.168-17.106-399.024 0-596.395-361.848-646.399-581.918-20.726-90.46-37.543-99.453-94.031-99.453-104.5 0-179.934-43.328-179.934-43.328-95.945 43.965-138.906 26.05-126.027-19.848-41.773-4.601-40.91-52.02-15.477-95.601 31.883-54.633 97.04-91.778 175-91.778h41.778c86.187 0 103.949-45.066 192.77-35.527 13.816 1.316 26.644 3.617 38.492 6.582 24.671-28.293 52.632-40.137 86.511-37.832 5.262.656 8.551 5.265 7.567 10.2l-8.223 38.155c-2.96 14.145.988 28.95 11.18 38.489 71.71 67.105 112.832 181.582 158.886 284.875 74.676 152.3 254.938 363.82 544.09 92.433 203.313-190.82 326.14-349.918 528.051-365.562-197.477-337.961-556.707-548.684-948.059-556.137M802.66 681.074c-29.617 0-59.156 23.77-49.101 28.028 2.238.953 6.039 1.597 10.402 2.078 3.125 18.941 19.027 33.593 38.867 33.593 19.832 0 35.477-14.656 38.55-33.597 4.352-.48 8.15-1.125 10.384-2.074 10.054-4.258-19.489-28.028-49.102-28.028M1851.512 1760.57c-24.008.586-45.559 15.84-52.758 39.157v.328c-35.856 115.132-105.594 263.82-105.594 263.82s-69.375 122.89-108.648 260.523a1123 1123 0 0 0 124.023-43.824 1122.8 1122.8 0 0 0 223.11-130.031c-10.778-21.457-22.899-43.344-37.344-65.945 0 0-23.024-102.305-67.11-213.817a1232 1232 0 0 0 18.754-55.926l.328-1.316c1.313-2.629 4.274-3.617 7.563-3.617h.328c23.024 3.617 47.367 7.238 75.656 10.527 8.555.656 17.438 1.313 26.317 2.301 10.855.988 21.383 1.973 32.238 2.633 2.602 103.5 47.52 202.41 58.887 226.027a1122.9 1122.9 0 0 0 206.508-278.402c-79.954 9.125-177.762 12.207-292.84.73-9.211-.988-18.422-1.972-27.633-2.629-25.328-2.964-49.016-6.25-71.383-9.87a59.3 59.3 0 0 0-10.402-.669m0 0"/>
</svg>
