<svg xmlns="http://www.w3.org/2000/svg" width="2500" height="2500">
    <path fill="#E9E9E9" d="M2326.512 1247.938c0 592.64-480.426 1073.066-1073.067 1073.066-592.636 0-1073.066-480.426-1073.066-1073.066 0-592.637 480.43-1073.067 1073.066-1073.067 592.64 0 1073.067 480.43 1073.067 1073.067m0 0"/>
    <path fill="#005A7D" stroke="#005A7D" stroke-miterlimit="10" stroke-width="45.87407856" d="M1933.754 1756.129c2.773 109.488 62.918 265.324 62.918 265.324l-46.746 64.367c-63.754 20.957-83.809-17.648-99.79-42.644 0 0-52.003-147.473-92.992-251.145l-25.976-73.695Zm0 0"/>
    <path fill="#005A7D" stroke="#005A7D" stroke-miterlimit="10" stroke-width="45.87407856" d="M1553.351 2301.176c26.286-98.918 59.508-186.254 110.188-277.27 0 0 64.832-138.234 98.168-245.285 7.633-24.77 32.727-39.762 58.723-35.785 20.804 3.351 42.812 6.473 66.37 9.133 8.555 1.156 17.122 1.5 25.684 2.425 51.746 1.426 101.95 3.524 150.368 3.883 24.21.18 47.972-.074 71.261-1.066 23.285-.992 63.117-4.531 85.422-7.297 6.402-.793 122.473-15.559 126.379-520.563-8.102-504.316-149.629-489.035-155.352-489.035-206.433 0-322.347 154.453-521.441 341.317-268.832 252.312-436.426 55.656-505.852-85.942-42.824-96.035-81.05-202.468-147.722-264.855-9.48-8.899-13.145-22.633-10.403-35.785l7.63-35.477c1.156-4.621-2.083-8.898-7.051-9.476-31.512-2.082-57.497 8.902-80.442 35.175-10.98-2.777-22.933-4.855-35.789-6.129-82.566-8.898-99.082 33.036-179.21 33.036h-38.84c-72.485 0-133.067 34.539-162.704 85.332-23.652 40.511-24.449 84.601 14.39 88.875-11.976 42.68 27.962 59.336 117.165 18.46 0 0 70.129 40.286 167.293 40.286 52.512 0 68.152 8.32 87.422 92.46 46.48 204.594 229.98 541.024 600.957 541.024 3.93 5.547 7.629 10.98 11.328 15.895 63.008 89.304 82.277 202.152 45.879 304.613-29.36 82.879-66.672 146.488-66.672 146.488 1.156 11.328 1.156 22.332 1.156 33.336-1.808 87.012-24.398 185.633-45.555 245.211"/>
    <path fill="#E9E9E9" d="M880.906 764.348c-2.082 1.156-5.664 1.504-9.71 1.965-2.891 17.605-17.395 31.234-35.844 31.234-18.438 0-33.223-13.617-36.133-31.235-4.047 0-7.63-1.156-9.711-1.964-9.363-3.93 18.113-26.055 45.648-26.055 27.532 0 54.996 22.09 45.645 26.055Zm0 0"/>
    <path fill="none" stroke="#005A7D" stroke-linejoin="round" stroke-width="106.4265" d="M2341.605 1250c0 602.879-488.726 1091.605-1091.605 1091.605S158.394 1852.88 158.394 1250 647.121 158.394 1250 158.394 2341.605 647.121 2341.605 1250Zm0 0"/>
    <path fill="none" stroke="#E9E9E9" stroke-linejoin="round" stroke-width="116.20496682000001" d="M2441.898 1250c0 658.266-533.632 1191.898-1191.898 1191.898S58.1 1908.266 58.1 1250 591.734 58.1 1250 58.1 2441.898 591.734 2441.898 1250Zm0 0"/>
</svg>
