<svg xmlns="http://www.w3.org/2000/svg" width="300" height="300">
    <path fill="#005A7D" d="M279.18 149.754c0 71.117-57.649 128.766-128.766 128.766S21.644 220.87 21.644 149.754s57.653-128.77 128.77-128.77S279.18 78.637 279.18 149.754m0 0"/>
    <path fill="none" stroke="#FFF" stroke-miterlimit="10" stroke-width="5.5049196" d="M232.05 211.278c.333 13.136 7.552 31.84 7.552 31.84l-5.61 7.722c-7.652 2.516-10.058-2.117-11.976-5.117 0 0-6.239-17.695-11.16-30.137"/>
    <path fill="none" stroke="#FFF" stroke-miterlimit="10" stroke-width="5.5049196" d="M186.402 276.14c3.157-11.87 7.141-22.35 13.223-33.273 0 0 7.781-16.586 11.781-29.433.914-2.973 3.926-4.77 7.047-4.293 2.496.402 5.137.777 7.965 1.094 1.023.14 2.05.18 3.082.293 6.207.171 12.23.421 18.043.464 2.906.024 5.758-.007 8.55-.128 2.794-.118 7.575-.543 10.25-.875.77-.094 14.696-1.868 15.165-62.47-.969-60.515-17.953-58.683-18.64-58.683-24.774 0-38.68 18.535-62.575 40.957-32.258 30.278-52.371 6.68-60.7-10.312-5.14-11.524-9.726-24.297-17.726-31.782-1.14-1.066-1.578-2.714-1.25-4.292l.914-4.258c.14-.555-.25-1.07-.843-1.137-3.782-.25-6.899 1.066-9.653 4.219a29.5 29.5 0 0 0-4.297-.735c-9.906-1.07-11.89 3.965-21.504 3.965h-4.66c-8.699 0-15.968 4.145-19.527 10.238-2.836 4.864-2.934 10.153 1.73 10.665-1.437 5.12 3.352 7.12 14.059 2.218 0 0 8.414 4.832 20.074 4.832 6.301 0 8.18 1 10.492 11.098 5.575 24.55 27.598 64.922 72.114 64.922.472.664.914 1.316 1.359 1.906 7.563 10.719 9.875 24.258 5.504 36.555-3.524 9.945-8 17.578-8 17.578.14 1.36.14 2.68.14 4-.218 10.441-2.93 22.277-5.468 29.426"/>
    <path fill="#FFF" d="M105.707 91.719c-.246.14-.68.183-1.164.238-.348 2.113-2.086 3.746-4.3 3.746-2.212 0-3.99-1.633-4.337-3.746-.484 0-.914-.14-1.164-.238-1.125-.469 2.172-3.125 5.477-3.125 3.304 0 6.601 2.652 5.476 3.125Zm0 0"/>
    <path fill="none" stroke="#FFF" stroke-linejoin="round" stroke-width="12.77125" d="M280.992 150c0 72.344-58.648 130.992-130.992 130.992S19.008 222.344 19.008 150 77.656 19.008 150 19.008 280.992 77.657 280.992 150Zm0 0"/>
    <path fill="none" stroke="#005A7D" stroke-linejoin="round" stroke-width="13.94467245" d="M293.027 150c0 78.992-64.035 143.028-143.027 143.028S6.973 228.992 6.973 150 71.008 6.973 150 6.973 293.027 71.008 293.027 150Zm0 0"/>
</svg>
