<svg xmlns="http://www.w3.org/2000/svg" width="800" height="800" viewBox="0 0 800 800">
    <path fill="#fff" d="M744.484 399.34c0 189.644-153.738 343.383-343.382 343.383-189.645 0-343.38-153.739-343.38-343.383 0-189.645 153.735-343.38 343.38-343.38s343.382 153.735 343.382 343.38m0 0"/>
    <path fill="none" stroke="#005a7d" stroke-miterlimit="10" stroke-width="14.67971376" d="M618.8 561.957c.891 35.035 20.137 84.906 20.137 84.906l-14.96 20.598c-20.403 6.703-26.817-5.648-31.934-13.648 0 0-16.64-47.192-29.758-80.368l-8.308-23.582Zm0 0"/>
    <path fill="#fff" stroke="#005a7d" stroke-miterlimit="10" stroke-width="14.67971376" d="M497.074 736.375c8.41-31.656 19.043-59.601 35.258-88.726 0 0 20.75-44.239 31.414-78.493 2.441-7.925 10.473-12.726 18.793-11.453 6.656 1.074 13.7 2.07 21.238 2.922 2.739.371 5.477.48 8.22.777 16.558.458 32.624 1.13 48.116 1.243 7.746.058 15.352-.024 22.805-.34 7.45-.317 20.195-1.45 27.336-2.336 2.047-.254 39.187-4.98 40.441-166.582-2.593-161.383-47.883-156.492-49.715-156.492-66.058 0-103.152 49.425-166.859 109.222-86.027 80.743-139.656 17.813-161.875-27.5-13.703-30.73-25.933-64.793-47.27-84.754-3.035-2.847-4.206-7.242-3.328-11.453l2.442-11.351c.367-1.48-.668-2.848-2.258-3.031-10.082-.668-18.398 2.847-25.742 11.253-3.512-.886-7.336-1.554-11.45-1.96-26.421-2.848-31.706 10.57-57.347 10.57h-12.43c-23.195 0-42.582 11.054-52.066 27.308-7.567 12.965-7.824 27.07 4.605 28.442-3.832 13.656 8.95 18.984 37.493 5.906 0 0 22.44 12.89 53.535 12.89 16.804 0 21.808 2.665 27.972 29.587 14.875 65.472 73.594 173.128 192.309 173.128 1.258 1.778 2.441 3.516 3.625 5.086 20.16 28.579 26.328 64.692 14.68 97.48-9.395 26.52-21.336 46.876-21.336 46.876.37 3.625.37 7.144.37 10.668-.577 27.844-7.808 59.402-14.577 78.469"/>
    <path fill="#005a7d" d="M281.89 244.586c-.663.371-1.812.48-3.105.629-.926 5.633-5.566 9.996-11.473 9.996-5.898 0-10.628-4.36-11.562-9.996-1.293 0-2.441-.371-3.105-.63-2.997-1.257 5.796-8.335 14.605-8.335 8.813 0 17.602 7.066 14.61 8.336Zm0 0"/>
    <path fill="none" stroke="#005a7d" stroke-linejoin="round" stroke-width="34.0565" d="M749.312 400c0 192.922-156.39 349.313-349.312 349.313S50.688 592.922 50.688 400 207.078 50.688 400 50.688 749.312 207.078 749.312 400Zm0 0"/>
    <path fill="none" stroke="#fff" stroke-linejoin="round" stroke-width="37.18561122" d="M781.406 400c0 210.645-170.761 381.406-381.406 381.406S18.594 610.645 18.594 400C18.594 189.356 189.355 18.594 400 18.594S781.406 189.356 781.406 400Zm0 0"/>
</svg>
