<svg xmlns="http://www.w3.org/2000/svg" width="2500" height="2500">
    <path fill="#005A7D" d="M2326.512 1247.938c0 592.64-480.426 1073.066-1073.067 1073.066-592.636 0-1073.066-480.426-1073.066-1073.066 0-592.637 480.43-1073.067 1073.066-1073.067 592.64 0 1073.067 480.43 1073.067 1073.067m0 0"/>
    <path fill="#FFF" stroke="#FFF" stroke-miterlimit="10" stroke-width="45.87407856" d="M1933.754 1756.117c2.773 109.488 62.918 265.328 62.918 265.328l-46.746 64.367c-63.754 20.953-83.809-17.648-99.79-42.648 0 0-52.003-147.469-92.992-251.145l-25.976-73.695Zm0 0"/>
    <path fill="#FFF" stroke="#FFF" stroke-miterlimit="10" stroke-width="45.87407856" d="M1553.351 2301.168c26.286-98.918 59.508-186.254 110.188-277.274 0 0 64.832-138.234 98.168-245.28 7.633-24.774 32.727-39.766 58.723-35.79 20.804 3.352 42.812 6.473 66.37 9.133 8.555 1.156 17.122 1.504 25.684 2.426 51.746 1.425 101.95 3.527 150.368 3.886 24.21.176 47.972-.078 71.261-1.066 23.285-.992 63.117-4.531 85.422-7.297 6.402-.797 122.473-15.562 126.379-520.57-8.102-504.317-149.629-489.035-155.352-489.035-206.433 0-322.347 154.453-521.441 341.316-268.832 252.313-436.426 55.66-505.852-85.941-42.824-96.036-81.05-202.47-147.722-264.856-9.48-8.898-13.145-22.633-10.403-35.785l7.63-35.477c1.156-4.625-2.083-8.902-7.051-9.48-31.512-2.078-57.497 8.902-80.442 35.176-10.98-2.774-22.933-4.856-35.789-6.125-82.566-8.903-99.082 33.035-179.21 33.035h-38.84c-72.485 0-133.067 34.539-162.704 85.328-23.652 40.516-24.449 84.602 14.39 88.879-11.976 42.676 27.962 59.336 117.165 18.46 0 0 70.129 40.286 167.293 40.286 52.512 0 68.152 8.32 87.422 92.461 46.48 204.598 229.98 541.027 600.957 541.027 3.93 5.547 7.629 10.98 11.328 15.895 63.008 89.305 82.277 202.156 45.879 304.617-29.36 82.875-66.672 146.488-66.672 146.488 1.156 11.328 1.156 22.332 1.156 33.336-1.808 87.012-24.398 185.633-45.555 245.215"/>
    <path fill="#005A7D" d="M880.906 764.332c-2.082 1.152-5.664 1.5-9.71 1.965-2.891 17.601-17.395 31.23-35.844 31.23-18.438 0-33.223-13.617-36.133-31.23-4.047 0-7.63-1.156-9.711-1.965-9.363-3.93 18.113-26.055 45.648-26.055 27.532 0 54.996 22.09 45.645 26.055Zm0 0"/>
    <path fill="none" stroke="#FFF" stroke-linejoin="round" stroke-width="106.4265" d="M2341.605 1250c0 602.879-488.726 1091.605-1091.605 1091.605S158.394 1852.88 158.394 1250 647.121 158.394 1250 158.394 2341.605 647.121 2341.605 1250Zm0 0"/>
    <path fill="none" stroke="#005A7D" stroke-linejoin="round" stroke-width="116.20496682000001" d="M2441.898 1250c0 658.265-533.632 1191.898-1191.898 1191.898S58.1 1908.265 58.1 1250C58.101 591.734 591.734 58.1 1250 58.1S2441.898 591.734 2441.898 1250Zm0 0"/>
</svg>
