<svg xmlns="http://www.w3.org/2000/svg" width="1500" height="1500">
    <path fill="#FFF" d="M1500 750c0 414.219-335.781 750-750 750S0 1164.219 0 750 335.781 0 750 0s750 335.781 750 750m0 0"/>
    <path fill="#005A7D" d="M763.906.113A751 751 0 0 0 450.84 62.54c-380.137 165.7-554 608.2-388.3 988.36 140.214 319.453 481.972 500.273 824.96 436.425 14.629-46.597 26.602-97.715 26.602-153.46 0-7.91-.215-15.84-.649-23.966 0 0 26.82-45.757 47.953-105.367 26.172-73.71 12.324-154.883-33.008-219.12-2.636-3.516-5.273-7.481-8.125-11.446-266.851 0-398.847-241.977-432.285-389.14-13.847-60.49-25.097-66.5-62.875-66.5-69.898 0-120.328-28.99-120.328-28.99-64.18 29.4-92.89 17.427-84.273-13.28-27.953-3.067-27.367-34.785-10.352-63.926 21.305-36.543 64.88-61.367 117.031-61.367h27.922c57.64 0 69.516-30.153 128.91-23.774a175 175 0 0 1 25.743 4.403c16.5-18.91 35.199-26.84 57.87-25.301 3.512.433 5.704 3.52 5.06 6.82l-5.512 25.524c-1.97 9.457.668 19.363 7.488 25.746 47.95 44.867 75.45 121.425 106.25 190.511 49.937 101.848 170.484 243.297 363.863 61.813 135.953-127.617 218.106-234.024 353.125-244.473-132.07-226.015-372.285-366.93-634-371.918M445.074 369.531c-19.804 0-39.55 15.899-32.836 18.75 1.508.625 4.047 1.055 6.953 1.39 2.094 12.673 12.739 22.458 26 22.458 13.258 0 23.73-9.785 25.778-22.457 2.91-.336 5.453-.766 6.953-1.39 6.723-2.852-13.043-18.75-32.852-18.75m701.442 721.917c-16.059.39-30.473 10.586-35.297 26.192v.214c-23.965 76.997-70.602 176.426-70.602 176.426s-46.41 82.188-72.66 174.219a755 755 0 0 0 82.934-29.3 753 753 0 0 0 149.218-86.95 486 486 0 0 0-24.984-44.102s-15.39-68.418-44.883-143.007a842 842 0 0 0 12.543-37.38l.215-.882c.875-1.774 2.867-2.418 5.055-2.418h.234c15.39 2.418 31.66 4.84 50.586 7.027 5.723.453 11.66.883 17.598 1.543 7.265.664 14.3 1.309 21.562 1.758 1.739 69.223 31.778 135.371 39.375 151.152a751 751 0 0 0 138.11-186.171c-53.48 6.093-118.891 8.164-195.84.492a480 480 0 0 0-18.48-1.762 1109 1109 0 0 1-47.735-6.602c-2.3-.351-4.625-.5-6.95-.449"/>
</svg>
