<svg xmlns="http://www.w3.org/2000/svg" width="2500" height="2500">
    <path fill="#E9E9E9" d="M2326.512 1247.938c0 592.64-480.426 1073.066-1073.067 1073.066-592.636 0-1073.066-480.426-1073.066-1073.066 0-592.637 480.43-1073.067 1073.066-1073.067 592.64 0 1073.067 480.43 1073.067 1073.067m0 0"/>
    <path fill="none" stroke="#005A7D" stroke-miterlimit="10" stroke-width="45.87407856" d="M1933.758 1756.118c2.773 109.488 62.918 265.328 62.918 265.328l-46.746 64.367c-63.754 20.953-83.809-17.649-99.79-42.649 0 0-52.003-147.468-92.992-251.144l-25.976-73.695Zm0 0"/>
    <path fill="#E9E9E9" stroke="#005A7D" stroke-miterlimit="10" stroke-width="45.87407856" d="M1553.355 2301.168c26.286-98.918 59.508-186.254 110.184-277.273 0 0 64.836-138.234 98.172-245.281 7.629-24.774 32.726-39.766 58.723-35.79 20.804 3.352 42.812 6.473 66.37 9.133 8.555 1.157 17.122 1.5 25.684 2.426 51.746 1.426 101.95 3.528 150.367 3.887 24.211.176 47.973-.078 71.262-1.067 23.285-.992 63.117-4.53 85.422-7.296 6.402-.797 122.473-15.563 126.379-520.57-8.102-504.32-149.629-489.04-155.352-489.04-206.433 0-322.351 154.457-521.445 341.32-268.828 252.313-436.422 55.66-505.848-85.94-42.824-96.036-81.05-202.473-147.722-264.856-9.48-8.899-13.145-22.633-10.406-35.785l7.632-35.477c1.153-4.625-2.082-8.902-7.054-9.48-31.508-2.079-57.492 8.902-80.438 35.175-10.98-2.773-22.933-4.855-35.789-6.125-82.566-8.902-99.082 33.036-179.21 33.036h-38.84c-72.485 0-133.067 34.539-162.704 85.328-23.652 40.515-24.449 84.601 14.39 88.879-11.976 42.675 27.962 59.335 117.165 18.46 0 0 70.129 40.286 167.293 40.286 52.512 0 68.152 8.32 87.422 92.46 46.476 204.598 229.98 541.028 600.957 541.028 3.93 5.547 7.629 10.98 11.328 15.894 63.008 89.305 82.277 202.157 45.879 304.614-29.36 82.879-66.676 146.488-66.676 146.488 1.156 11.328 1.156 22.336 1.156 33.34-1.808 87.011-24.394 185.633-45.55 245.215"/>
    <path fill="#005A7D" d="M880.91 764.332c-2.082 1.152-5.664 1.5-9.71 1.965-2.891 17.601-17.395 31.23-35.845 31.23-18.437 0-33.222-13.617-36.132-31.23-4.047 0-7.63-1.156-9.711-1.965-9.364-3.93 18.113-26.055 45.644-26.055 27.535 0 55 22.09 45.649 26.055Zm0 0"/>
    <path fill="none" stroke="#005A7D" stroke-linejoin="round" stroke-width="106.4265" d="M2341.605 1250c0 602.88-488.726 1091.606-1091.605 1091.606-602.875 0-1091.605-488.727-1091.605-1091.606S647.125 158.395 1250 158.395c602.879 0 1091.605 488.727 1091.605 1091.605Zm0 0"/>
    <path fill="none" stroke="#E9E9E9" stroke-linejoin="round" stroke-width="116.20496682000001" d="M2441.898 1250c0 658.266-533.632 1191.899-1191.898 1191.899S58.102 1908.266 58.102 1250 591.734 58.102 1250 58.102 2441.898 591.735 2441.898 1250Zm0 0"/>
</svg>
