<svg xmlns="http://www.w3.org/2000/svg" width="800" height="800" viewBox="0 0 800 800">
    <path fill="#005a7d" d="M744.484 399.34c0 189.644-153.738 343.383-343.382 343.383-189.645 0-343.38-153.739-343.38-343.383 0-189.645 153.735-343.38 343.38-343.38s343.382 153.735 343.382 343.38m0 0"/>
    <path fill="none" stroke="#fff" stroke-miterlimit="10" stroke-width="14.67971376" d="M618.8 563.402c.887 35.04 20.134 84.907 20.134 84.907l-14.957 20.597c-20.403 6.707-26.82-5.648-31.934-13.648 0 0-16.64-47.192-29.758-80.367"/>
    <path fill="none" stroke="#fff" stroke-miterlimit="10" stroke-width="14.67971376" d="M497.074 736.375c8.41-31.652 19.04-59.602 35.258-88.727 0 0 20.746-44.234 31.414-78.492 2.442-7.925 10.473-12.722 18.793-11.449a454 454 0 0 0 21.238 2.922c2.739.367 5.477.48 8.22.773 16.558.457 32.62 1.13 48.116 1.246 7.746.055 15.352-.027 22.805-.343 7.45-.317 20.195-1.45 27.332-2.332 2.05-.258 39.191-4.98 40.441-166.582-2.59-161.383-47.879-156.493-49.71-156.493-66.06 0-103.153 49.422-166.864 109.22-86.023 80.741-139.656 17.812-161.87-27.5-13.704-30.731-25.938-64.79-47.27-84.755-3.036-2.847-4.207-7.242-3.332-11.453l2.44-11.351c.372-1.477-.663-2.848-2.253-3.032-10.086-.668-18.398 2.848-25.742 11.254-3.516-.886-7.34-1.55-11.453-1.96-26.418-2.848-31.707 10.574-57.348 10.574h-12.426c-23.195 0-42.582 11.05-52.066 27.304-7.57 12.965-7.824 27.074 4.605 28.442-3.832 13.656 8.946 18.984 37.493 5.906 0 0 22.44 12.89 53.535 12.89 16.8 0 21.808 2.665 27.972 29.59 14.875 65.47 73.594 173.13 192.309 173.13 1.254 1.773 2.437 3.511 3.625 5.085 20.16 28.578 26.328 64.688 14.68 97.477-9.395 26.52-21.336 46.875-21.336 46.875.37 3.625.37 7.148.37 10.668-.577 27.844-7.808 59.402-14.577 78.469"/>
    <path fill="#fff" d="M281.89 244.586c-.667.371-1.812.48-3.109.629-.922 5.633-5.566 9.996-11.469 9.996-5.898 0-10.628-4.36-11.562-9.996-1.297 0-2.441-.367-3.105-.63-2.997-1.257 5.792-8.335 14.605-8.335 8.809 0 17.598 7.066 14.605 8.336Zm0 0"/>
    <path fill="none" stroke="#fff" stroke-linejoin="round" stroke-width="34.0565" d="M749.312 400c0 192.922-156.39 349.313-349.312 349.313S50.688 592.922 50.688 400 207.078 50.688 400 50.688 749.312 207.078 749.312 400Zm0 0"/>
    <path fill="none" stroke="#005a7d" stroke-linejoin="round" stroke-width="37.18561122" d="M781.406 400c0 210.645-170.761 381.406-381.406 381.406S18.594 610.645 18.594 400C18.594 189.356 189.355 18.594 400 18.594S781.406 189.356 781.406 400Zm0 0"/>
</svg>
