<svg xmlns="http://www.w3.org/2000/svg" width="2500" height="2500">
    <defs>
        <linearGradient id="a" x1="244.823" x2="1115.34" y1="-272.523" y2="-272.523" gradientTransform="scale(2.87518)rotate(66.449 17.373 -105.521)" gradientUnits="userSpaceOnUse">
            <stop offset="0" stop-color="#0073A1"/>
            <stop offset="1" stop-color="#003555"/>
        </linearGradient>
    </defs>
    <path fill="#FFF" d="M2500 1250c0 690.355-559.645 1250-1250 1250S0 1940.355 0 1250 559.645 0 1250 0s1250 559.645 1250 1250m0 0"/>
    <path fill="url(#a)" d="M1273.168.188a1251.5 1251.5 0 0 0-521.754 104.05C117.828 380.398-171.922 1117.895 104.238 1751.48c233.672 532.438 803.293 833.786 1374.934 727.391 24.367-77.684 44.344-162.86 44.344-255.746 0-13.2-.368-26.398-1.102-39.965 0 0 44.73-76.262 79.93-175.62 43.633-122.825 20.535-258.122-54.996-365.185-4.399-5.863-8.797-12.46-13.567-19.062-444.738 0-664.726-403.309-720.46-648.594-23.098-100.828-41.84-110.847-104.801-110.847-116.477 0-200.555-48.293-200.555-48.293-106.938 49.004-154.82 29.035-140.465-22.121-46.559-5.13-45.598-57.981-17.25-106.555C385.785 625.988 458.406 584.59 545.3 584.59h46.567c96.063 0 115.86-50.23 214.852-39.602 15.406 1.469 29.703 4.035 42.906 7.336 27.496-31.531 58.66-44.734 96.422-42.168 5.867.735 9.531 5.871 8.433 11.371l-9.164 42.528c-3.3 15.765 1.102 32.265 12.461 42.898 79.93 74.797 125.762 202.387 177.094 317.516 83.23 169.754 284.149 405.508 606.43 103.027 226.605-212.687 363.512-390.016 588.55-407.45C2109.75 243.364 1709.364 8.493 1273.169.189m-531.36 615.699c-33.011 0-65.937 26.492-54.726 31.242 2.492 1.058 6.73 1.777 11.59 2.316 3.484 21.11 21.21 37.438 43.32 37.438s39.543-16.332 42.973-37.442c4.847-.539 9.078-1.257 11.57-2.312 11.207-4.75-21.722-31.242-54.726-31.242m1169.024 1203.187c-26.758.649-50.777 17.653-58.8 43.637v.367c-39.962 128.324-117.692 294.05-117.692 294.05s-77.324 136.97-121.098 290.372a1251 1251 0 0 0 138.235-48.848 1251.2 1251.2 0 0 0 248.671-144.925c-12.011-23.914-25.523-48.313-41.62-73.5 0 0-25.665-114.028-74.798-238.32a1382 1382 0 0 0 20.903-62.329l.363-1.469c1.461-2.93 4.762-4.03 8.43-4.03h.363c25.664 4.03 52.797 8.066 84.324 11.73 9.535.734 19.438 1.464 29.336 2.566 12.098 1.098 23.832 2.2 35.93 2.934 2.902 115.359 52.965 225.601 65.633 251.925a1251.4 1251.4 0 0 0 230.172-310.304c-89.118 10.175-198.133 13.61-326.395.82-10.266-1.102-20.531-2.2-30.797-2.934-28.23-3.3-54.633-6.968-79.562-11a66 66 0 0 0-11.598-.742m0 0"/>
</svg>
