<svg xmlns="http://www.w3.org/2000/svg" width="64" height="64" viewBox="0 0 64 64">
    <path fill="#fff" d="M59.559 31.945c0 15.172-12.297 27.473-27.47 27.473-15.171 0-27.472-12.3-27.472-27.473 0-15.168 12.301-27.468 27.473-27.468s27.469 12.3 27.469 27.468m0 0"/>
    <path fill="none" stroke="#005a7d" stroke-miterlimit="10" stroke-width="1.1743684799999998" d="M49.504 44.957c.07 2.8 1.61 6.793 1.61 6.793l-1.196 1.648c-1.633.535-2.145-.453-2.555-1.094 0 0-1.332-3.773-2.379-6.43l-.668-1.886Zm0 0"/>
    <path fill="#fff" stroke="#005a7d" stroke-miterlimit="10" stroke-width="1.1743684799999998" d="M39.766 58.91c.671-2.531 1.523-4.77 2.82-7.098 0 0 1.66-3.539 2.516-6.281.195-.633.836-1.016 1.5-.914a40 40 0 0 0 1.699.234c.219.028.441.036.66.063 1.324.035 2.61.09 3.848.098q.931.006 1.824-.028a36 36 0 0 0 2.187-.187c.164-.02 3.137-.399 3.235-13.325-.207-12.914-3.828-12.52-3.977-12.52-5.285 0-8.25 3.954-13.348 8.735-6.882 6.461-11.171 1.426-12.949-2.199-1.097-2.457-2.078-5.184-3.781-6.777a.98.98 0 0 1-.27-.918l.196-.91c.031-.118-.051-.227-.18-.243-.805-.05-1.473.23-2.059.903a6 6 0 0 0-.918-.157c-2.113-.23-2.535.844-4.585.844h-.997c-1.855 0-3.406.887-4.164 2.184-.605 1.039-.625 2.168.368 2.277-.305 1.094.718 1.52 3 .473 0 0 1.796 1.031 4.285 1.031 1.343 0 1.742.211 2.238 2.367 1.188 5.239 5.887 13.852 15.383 13.852.101.14.195.281.289.406 1.613 2.285 2.105 5.176 1.176 7.797-.754 2.121-1.707 3.75-1.707 3.75.03.29.03.57.03.855-.046 2.227-.624 4.75-1.167 6.278"/>
    <path fill="#005a7d" d="M22.55 19.566c-.054.032-.144.04-.25.051-.07.45-.445.801-.913.801a.944.944 0 0 1-.926-.8.7.7 0 0 1-.25-.052c-.238-.101.465-.668 1.168-.668.707 0 1.41.567 1.168.668Zm0 0"/>
    <path fill="none" stroke="#005a7d" stroke-linejoin="round" stroke-width="2.7245" d="M59.945 32c0 15.433-12.511 27.945-27.945 27.945S4.055 47.433 4.055 32 16.566 4.054 32 4.054 59.945 16.566 59.945 32Zm0 0"/>
    <path fill="none" stroke="#fff" stroke-linejoin="round" stroke-width="2.97482706" d="M62.512 32c0 16.851-13.66 30.512-30.512 30.512S1.488 48.852 1.488 32 15.148 1.488 32 1.488 62.512 15.148 62.512 32Zm0 0"/>
</svg>
