<svg xmlns="http://www.w3.org/2000/svg" width="2500" height="2500" viewBox="0 0 2500 2500">
    <path fill="#fff" d="M2500 1250c0 690.367-559.633 1250-1250 1250S0 1940.367 0 1250 559.633 0 1250 0s1250 559.633 1250 1250m0 0"/>
    <path fill="#0073a1" d="M1273.176.191a1251.7 1251.7 0 0 0-521.778 104.043C117.84 380.398-171.934 1117.898 104.234 1751.5c233.692 532.418 803.282 833.785 1374.934 727.375 24.383-77.668 44.332-162.86 44.332-255.766 0-13.183-.36-26.402-1.074-39.941 0 0 44.699-76.27 79.914-175.617 43.625-122.852 20.543-258.133-55.008-365.2-4.398-5.859-8.789-12.468-13.539-19.078-444.758 0-664.75-403.289-720.477-648.566-23.082-100.816-41.832-110.832-104.793-110.832-116.5 0-200.546-48.316-200.546-48.316-106.97 49-154.817 29.043-140.461-22.133-46.582-5.11-45.606-57.977-17.25-106.543 35.507-60.906 108.132-102.281 195.05-102.281h46.543c96.067 0 115.856-50.25 214.848-39.618a290.5 290.5 0 0 1 42.902 7.332c27.5-31.515 58.664-44.734 96.45-42.168 5.859.727 9.507 5.868 8.433 11.368l-9.183 42.543c-3.286 15.757 1.109 32.265 12.476 42.906 79.914 74.777 125.75 202.375 177.082 317.52 83.235 169.75 284.14 405.5 606.442 103.023 226.59-212.7 363.507-390.043 588.543-407.457C2109.734 243.359 1709.375 8.5 1273.184.19M741.793 615.883c-33.008 0-65.918 26.5-54.727 31.25 2.508 1.043 6.743 1.758 11.582 2.316 3.493 21.125 21.235 37.434 43.336 37.434 22.098 0 39.551-16.309 42.965-37.434 4.852-.558 9.086-1.273 11.586-2.316 11.207-4.75-21.734-31.25-54.75-31.25m1169.067 1203.199c-26.762.652-50.786 17.645-58.829 43.652v.356c-39.941 128.328-117.664 294.043-117.664 294.043s-77.351 136.984-121.101 290.367a1259 1259 0 0 0 138.219-48.832 1255.2 1255.2 0 0 0 248.699-144.918 809 809 0 0 0-41.64-73.5s-25.653-114.035-74.802-238.352a1409 1409 0 0 0 20.899-62.296l.36-1.47c1.456-2.956 4.78-4.03 8.425-4.03h.39c25.649 4.03 52.766 8.066 84.31 11.714 9.542.75 19.433 1.47 29.331 2.567 12.11 1.11 23.836 2.183 35.934 2.933 2.902 115.368 52.969 225.618 65.625 251.918a1251.7 1251.7 0 0 0 230.183-310.285c-89.132 10.16-198.148 13.61-326.398.817a814 814 0 0 0-30.8-2.934 1848 1848 0 0 1-79.56-11 67 67 0 0 0-11.581-.75"/>
</svg>
