<?xml version="1.0" encoding="UTF-8"?>
<svg id="Layer_1" data-name="Layer 1" xmlns="http://www.w3.org/2000/svg" width="90" height="90" viewBox="0 0 90 90">
  <defs>
    <style>
      .cls-1 {
        fill: #000;
        stroke-width: 0px;
      }

      .cls-2 {
        fill: none;
        stroke: #000;
        stroke-miterlimit: 10;
        stroke-width: 1.5px;
      }
    </style>
  </defs>
  <path class="cls-2" d="M79.33538,42.621c.25,7.65002,4.7746,14.91853,5.49464,17.3185.20001.69.08997,1.42004-.28003,2.04004-2.20996,3.69-3.06,12.22998-3.06,12.22998v2.09998c0,.54004-.46997.97003-1.04999.97003h-5.10999c-.70001,0-1.14001-.72003-.75-1.25.88-1.16998,2.70001-1.82001,2.70001-1.82001,0,0,2.10999-4.40997,2.10999-10.81,0-3.14001-1.28003-4.95001-2.69-7.07001l-1.50511-2.15904"/>
  <path class="cls-2" d="M50.31278,51.97409c.09003,3.57996,2.05722,8.67543,2.05722,8.67543,0,0,1.53003,7.90002,1.91003,13.58997l.18994,2.07001c0,.53003-.46997.97003-1.06.97003h-5.62c-.69995,0-1.13995-.72003-.75-1.26001.88-1.15997,2.70001-1.81,2.70001-1.81.42999-1.28003.70001-2.67999.70001-4.17999,0-2.53003-.77002-5.40002-2.85999-8.66998,0,0-1.70053-4.82164-3.04056-8.21159"/>
  <path class="cls-2" d="M76.91043,30.64605c6.09192,6.33285,6.94852,12.69618,8.36251,15.32109"/>
  <path class="cls-1" d="M83.58137,43.76561c.65686,2.25987-1.45317,5.35657,3.28752,6.80633,0,0,.0056-.3883.0056-2.81668,0-2.43724-1.27461-2.70868-2.07825-4.81478"/>
  <path class="cls-2" d="M76.51001,30.26953c-8.72003-7.78003-11.81-11.51001-17.79999-11.51001-6.75,0-10.54004,5.04999-17.05005,11.16003-8.78998,8.25-14.26996,1.81995-16.53998-2.81-1.40002-3.14001-2.65002-6.62006-4.83002-8.66003-.31-.28998-.42999-.73999-.33997-1.16998l.25-1.16003c.02997-.14996-.07001-.28998-.23004-.31-1.02997-.07001-1.87994.29004-2.62994,1.15002-.36005-.09003-.75-.15997-1.17004-.20001-2.70001-.28998-3.23999,1.08002-5.85999,1.08002h-1.27002c-2.37,0-4.35071,1.12921-5.31995,2.78998-.77319,1.32483-.7995,2.7663.4704,2.90625-.39148,1.39526.91449,1.93982,3.83118.60333,0,0,2.29315,1.31714,5.46991,1.31714,1.71722,0,2.22845.27332,2.85846,3.02332,1.52002,6.69,7.52002,17.69,19.65002,17.69.13.17999.25.35999.37.51996,2.06,2.92004,2.69,6.61005,1.5,9.96002-.96002,2.71002-2.17999,4.78998-2.17999,4.78998.02002.37.02997.73004.02997,1.09003,0,4.60999-1.78998,8.54999-2.85999,11.76001,0,0-1.82001.64996-2.69,1.80994-.38995.53998.04999,1.26001.73999,1.26001h5.61005c.58997,0,1.06-.44,1.06-.97003l-.19-2.06995c-.38-5.69,4.07996-13.58997,4.07996-13.58997,0,0,2.12006-4.52002,3.21002-8.02002v-.01001c.25-.81,1.07001-1.29999,1.91998-1.16998.68005.10999,1.40002.20996,2.17004.29999.27997.02002.56.04999.83997.08002,10.63,1.06,16.52002-1.92999,16.52002-1.92999,0,0,3.81,7.10999,3.81,12.52997,0,6.39001-4.20001,11.78003-4.20001,11.78003,0,0-1.77997.64996-2.65997,1.77991-.40002.53003.02997,1.29004.69,1.29004h5.13c.57996,0,1.03998-.44,1.03998-.97003v-2.09991c3.5-8.61005,3.37-7.41003,5.66998-11.25.38-.64001.47003-1.39001.26001-2.09003-.84998-2.96002-1.70001-10.90997,2.47003-16.72998,3.26996-4.32001,2.50995-10.08002-1.83002-13.95001Z"/>
  <path class="cls-1" d="M15.88763,19.54523c-.06793.02881-.18329.0484-.31561.06305-.09351.57581-.56903,1.02124-1.172,1.02124s-1.08624-.44531-1.18146-1.02112c-.13263-.01465-.24817-.0343-.31622-.06317-.30566-.12952.59235-.85211,1.49268-.85211.90027,0,1.79828.7226,1.49261.85211Z"/>
</svg>